<svg width="100" height="100" viewBox="0 0 100 100" fill="none" xmlns="http://www.w3.org/2000/svg">
<g id="Icon/1">
<path id="Vector" d="M17.12 32.7404C17.68 16.3004 31.36 2.18043 48.56 1.56043C57.5 1.24043 65.38 4.08043 71.98 10.1204C78.6 16.1604 82.04 23.7604 82.64 32.7404C84.72 32.7404 86.72 32.7404 88.74 32.7404C91.28 32.7404 93.8 32.7404 96.34 32.7404C97.68 32.7404 98.24 33.3004 98.24 34.6204C98.24 55.1804 98.24 75.7404 98.24 96.3004C98.24 97.7004 97.68 98.2204 96.16 98.2204C84.24 98.2204 72.32 98.2204 60.4 98.2204C41.56 98.2204 22.72 98.2204 3.88004 98.2204C1.96004 98.2204 1.54004 97.8004 1.54004 95.8804C1.54004 75.6204 1.54004 55.3404 1.54004 35.0804C1.54004 33.1604 1.96004 32.7404 3.88004 32.7404C8.26004 32.7404 12.64 32.7404 17.1 32.7404H17.12ZM4.72004 95.0404H95.04V35.8404C94.6 35.8404 94.26 35.8404 93.9 35.8404C89.8 35.8404 85.72 35.8404 81.62 35.8404C80.04 35.8404 79.56 35.3604 79.52 33.7404C79.5 32.9604 79.44 32.1804 79.38 31.4004C77.94 14.8804 62.54 2.64043 46.08 4.88043C31.42 6.88043 20.62 19.0004 20.3 33.8204C20.26 35.3404 19.76 35.8204 18.2 35.8204C14.08 35.8204 9.94004 35.8204 5.82004 35.8204C5.48004 35.8204 5.12004 35.8204 4.74004 35.8204V95.0204L4.72004 95.0404Z" fill="#555555"/>
<path id="Vector_2" d="M29.6401 65.5C29.6401 57.42 29.6401 49.32 29.6401 41.24C29.6401 39.44 30.0801 39 31.8801 39C43.9001 39 55.9201 39 67.9401 39C69.7401 39 70.1801 39.46 70.1801 41.24C70.1801 57.42 70.1801 73.6 70.1801 89.78C70.1801 91.56 69.7201 92.02 67.9401 92.02C55.9201 92.02 43.9001 92.02 31.8801 92.02C30.0801 92.02 29.6401 91.56 29.6401 89.78C29.6401 81.7 29.6401 73.6 29.6401 65.52V65.5ZM48.2801 56.1V42.18H32.8001V56.1H48.2801ZM67.0001 56.1V42.18H51.5201V56.1H67.0001ZM32.8201 74.9V88.82H48.3001V74.9H32.8201ZM51.5401 74.9V88.82H67.0201V74.9H51.5401ZM32.8001 71.66H48.2801V59.3H32.8001V71.66ZM51.5201 71.66H67.0001V59.3H51.5201V71.66Z" fill="#555555"/>
<path id="Vector_3" d="M26.5198 65.5995C26.5198 73.6595 26.5198 81.7195 26.5198 89.7795C26.5198 91.5595 26.0598 92.0195 24.2798 92.0195C19.4998 92.0195 14.7198 92.0195 9.95982 92.0195C8.29982 92.0195 7.81982 91.5395 7.81982 89.8795C7.81982 73.6395 7.81982 57.3995 7.81982 41.1595C7.81982 39.4995 8.29982 39.0195 9.95982 39.0195C14.7598 39.0195 19.5798 39.0195 24.3798 39.0195C26.0398 39.0195 26.5198 39.4995 26.5198 41.1595C26.5198 49.3195 26.5198 57.4595 26.5198 65.6195V65.5995ZM15.5398 56.0995V42.1795H10.9798V56.0995H15.5398ZM23.3398 56.0995V42.1795H18.7798V56.0995H23.3398ZM15.5798 74.9395H10.9798V88.8395H15.5798V74.9395ZM18.7998 74.8995V88.8195H23.3598V74.8995H18.7998ZM15.5398 71.6995V59.3395H10.9798V71.6995H15.5398ZM18.7798 59.2995V71.6795H23.3398V59.2995H18.7798Z" fill="#555555"/>
<path id="Vector_4" d="M91.9998 65.5995C91.9998 73.6595 91.9998 81.7195 91.9998 89.7795C91.9998 91.5595 91.5398 92.0195 89.7598 92.0195C84.9798 92.0195 80.1998 92.0195 75.4398 92.0195C73.7798 92.0195 73.2998 91.5395 73.2998 89.8795C73.2998 73.6395 73.2998 57.3995 73.2998 41.1595C73.2998 39.4995 73.7798 39.0195 75.4398 39.0195C80.2398 39.0195 85.0598 39.0195 89.8598 39.0195C91.5198 39.0195 91.9998 39.4995 91.9998 41.1595C91.9998 49.3195 91.9998 57.4595 91.9998 65.6195V65.5995ZM81.0198 56.0995V42.1795H76.4598V56.0995H81.0198ZM88.8198 56.0995V42.1795H84.2598V56.0995H88.8198ZM81.0198 88.8595V74.9395H76.4598V88.8595H81.0198ZM84.2598 88.8595H88.8398V74.9595H84.2598V88.8595ZM76.4398 71.6995H81.0398V59.3595H76.4398V71.6995ZM84.2798 59.3195V71.6795H88.8398V59.3195H84.2798Z" fill="#555555"/>
<path id="Vector_5" d="M49.8802 35.86C41.8002 35.86 33.7002 35.86 25.6202 35.86C23.8402 35.86 23.3602 35.38 23.4002 33.62C23.5802 20.58 34.0802 9.18002 47.0002 7.96002C61.5002 6.60002 73.7402 16.04 76.1202 30.44C76.3002 31.52 76.3602 32.64 76.4002 33.74C76.4602 35.32 75.9202 35.86 74.3402 35.86C66.9402 35.86 59.5402 35.86 52.1202 35.86C51.3802 35.86 50.6202 35.86 49.8802 35.86ZM32.3002 18.9C28.8402 22.94 26.9602 27.48 26.5602 32.7H42.1602C42.5002 31.92 42.8802 31.2 43.1002 30.42C43.1802 30.16 43.0402 29.7 42.8202 29.48C41.5202 28.12 40.1802 26.8 38.8402 25.48C36.6802 23.32 34.5402 21.16 32.2802 18.92L32.3002 18.9ZM73.2202 32.7C72.8002 27.44 70.9202 22.92 67.5602 19.02C67.4802 19.02 67.4402 19.02 67.4202 19.06C63.8402 22.6 60.2802 26.14 56.7202 29.7C56.5802 29.84 56.5602 30.22 56.6402 30.44C56.9202 31.2 57.2602 31.92 57.6002 32.7H73.2002H73.2202ZM65.2602 16.72C61.2202 13.28 56.7002 11.38 51.4802 11.02V26.58C52.2202 26.88 52.9602 27.12 53.6202 27.5C54.1002 27.78 54.3602 27.64 54.7002 27.3C55.9202 26.04 57.1802 24.82 58.4202 23.58C60.6602 21.34 62.9202 19.08 65.2602 16.72ZM48.3002 11C43.0402 11.42 38.5202 13.3 34.5202 16.74C38.1402 20.36 41.6802 23.9 45.2402 27.42C45.4002 27.58 45.7802 27.64 45.9802 27.58C46.7602 27.3 47.5202 26.92 48.3202 26.58V11.02L48.3002 11ZM54.1202 32.7C53.6802 30.9 51.8002 29.58 49.7802 29.62C47.8402 29.66 45.9802 31.04 45.6802 32.7H54.1202Z" fill="#555555"/>
</g>
</svg>
