<svg width="100" height="100" viewBox="0 0 100 100" fill="none" xmlns="http://www.w3.org/2000/svg">
<g id="Icon/2">
<path id="Vector" d="M99.9999 51.0803C99.1799 52.7603 98.3999 54.4603 97.4999 56.1003C93.5599 63.2603 89.5399 70.4003 85.5999 77.5603C84.1199 80.2403 81.9599 81.5203 78.8799 81.5203C55.0599 81.5003 31.2599 81.5203 7.43993 81.5203C2.87993 81.5203 0.179932 78.8003 0.179932 74.2403C0.179932 58.0203 0.179932 41.8203 0.179932 25.6003C0.179932 21.0403 2.87993 18.3203 7.43993 18.3203C31.2799 18.3203 55.1399 18.3203 78.9799 18.3203C81.9799 18.3203 84.1199 19.5803 85.5599 22.2003C89.9799 30.2003 94.4599 38.2003 98.8799 46.2003C99.3199 47.0203 99.6399 47.9003 99.9999 48.7603V51.1003V51.0803ZM43.1799 78.1803C55.0999 78.1803 67.0199 78.1803 78.9399 78.1803C80.6599 78.1803 81.8199 77.5203 82.6399 76.0203C87.0799 67.9803 91.5399 59.9603 96.0199 51.9403C96.8199 50.5203 96.7999 49.2403 96.0199 47.8203C91.5599 39.8603 87.1399 31.9003 82.7399 23.9203C81.8599 22.3203 80.6599 21.6003 78.8199 21.6003C55.0399 21.6203 31.2799 21.6003 7.49993 21.6203C4.73993 21.6203 3.51993 22.8403 3.51993 25.6003C3.51993 41.8003 3.51993 58.0203 3.51993 74.2203C3.51993 76.9203 4.75993 78.1803 7.41993 78.1803C19.3399 78.1803 31.2599 78.1803 43.1799 78.1803Z" fill="#555555"/>
<path id="Vector_2" d="M32.58 73.1802C26.44 73.1802 20.3 73.1002 14.16 73.2202C10.68 73.2802 8.44002 70.8602 8.48002 67.5402C8.58002 55.7802 8.58002 44.0202 8.48002 32.2602C8.46002 28.9402 10.7 26.5602 14.16 26.5802C26.46 26.6602 38.78 26.6202 51.08 26.6202C54.78 26.6202 56.72 28.5602 56.72 32.2602C56.72 44.0202 56.72 55.7802 56.72 67.5402C56.72 71.2402 54.78 73.1802 51.08 73.1802C44.9 73.1802 38.74 73.1802 32.56 73.1802H32.58ZM32.6 69.8402C38.78 69.8402 44.94 69.8402 51.12 69.8402C52.94 69.8402 53.42 69.3602 53.42 67.5202C53.42 55.7602 53.42 44.0002 53.42 32.2602C53.42 30.4402 52.94 29.9602 51.12 29.9602C38.82 29.9602 26.5 29.9602 14.2 29.9602C12.3 29.9602 11.86 30.4202 11.86 32.3202C11.86 44.0402 11.86 55.7602 11.86 67.5002C11.86 69.4002 12.3 69.8602 14.2 69.8602C20.34 69.8602 26.48 69.8602 32.62 69.8602L32.6 69.8402Z" fill="#555555"/>
<path id="Vector_3" d="M70.98 73.1804C69.04 73.1804 67.08 73.1804 65.14 73.1804C63.28 73.1804 62.56 71.9604 63.46 70.3404C67.08 63.8204 70.68 57.2804 74.34 50.7804C74.7 50.1204 74.68 49.6604 74.34 49.0204C70.8 42.7004 67.3 36.3804 63.78 30.0604C63.62 29.7804 63.46 29.5004 63.32 29.2004C62.7 27.9004 63.34 26.6804 64.78 26.6604C68.96 26.6204 73.16 26.6604 77.36 26.6604C78.26 26.6604 78.74 27.2204 79.14 27.9604C82.7 34.4004 86.3 40.8404 89.86 47.2804C91.5 50.2604 91.5 49.6404 89.86 52.6204C86.32 59.0004 82.76 65.3804 79.24 71.7804C78.66 72.8404 77.94 73.2804 76.76 73.2404C74.84 73.1804 72.92 73.2404 71.02 73.2404L70.98 73.1804ZM67.54 69.8404C70.5 69.8404 73.26 69.8404 76.02 69.8204C76.26 69.8204 76.6 69.5404 76.72 69.3004C80.24 63.0204 83.74 56.7204 87.2 50.4004C87.34 50.1404 87.34 49.6404 87.2 49.3604C83.74 43.0804 80.26 36.8004 76.76 30.5604C76.58 30.2604 76.08 29.9804 75.72 29.9604C73.26 29.9004 70.78 29.9404 68.32 29.9404C68.12 29.9404 67.92 29.9804 67.62 30.0204C67.86 30.4604 68.04 30.8004 68.22 31.1404C71.44 36.9204 74.64 42.7204 77.88 48.4804C78.44 49.4804 78.44 50.3004 77.88 51.2804C75.2 56.0204 72.56 60.8004 69.92 65.5604C69.16 66.9204 68.42 68.2804 67.56 69.8204L67.54 69.8404Z" fill="#555555"/>
<path id="Vector_4" d="M26.82 53.2196C26.82 56.1196 26.82 58.8796 26.82 61.6396C26.82 62.1196 26.82 62.6196 26.82 63.0996C26.76 64.1796 26.06 64.8796 25.14 64.8596C24.24 64.8596 23.6 64.1596 23.52 63.1396C23.52 62.9196 23.52 62.6796 23.52 62.4596C23.52 54.0796 23.52 45.6996 23.52 37.3396C23.52 35.3996 24 34.8996 25.94 34.9196C29.22 34.9596 32.52 34.7996 35.76 35.1196C40.32 35.5796 43.7 39.8796 43.48 44.4996C43.24 49.2196 39.42 53.0796 34.76 53.2196C32.52 53.2796 30.28 53.2196 28.04 53.2396C27.68 53.2396 27.34 53.2396 26.86 53.2396L26.82 53.2196ZM26.9 38.3596V49.8796C29.6 49.8796 32.24 49.9796 34.84 49.8596C37.76 49.6996 40.04 47.1596 40.12 44.2196C40.2 41.3796 38.14 38.6796 35.28 38.4196C32.52 38.1796 29.72 38.3596 26.9 38.3596Z" fill="#555555"/>
</g>
</svg>
