<svg width="100" height="100" viewBox="0 0 100 100" fill="none" xmlns="http://www.w3.org/2000/svg">
<g id="Icon/3">
<path id="Vector" d="M0 47.9596C0.86 45.6196 2.56 44.6796 5 44.8396C6.2 44.9196 7.4 44.8196 8.6 44.8796C9.26 44.9196 9.66 44.6796 9.92 44.1396C10.28 43.3596 10.64 42.5796 10.96 41.8596C10.82 41.6996 10.8 41.6796 10.78 41.6596C7.3 41.1596 6.92 40.8196 6 37.3396C5.86 36.7996 5.76 36.3596 5 36.2596C3.4 36.0396 2.3 34.7996 2.04 33.1996C1.8 31.7796 2.54 30.2196 3.9 29.5196C4.48 29.2196 4.64 28.8596 4.78 28.2796C6.8 19.9396 11.82 14.4996 20.24 12.3996C21.04 12.1996 21.88 12.1196 22.7 11.9796C22.98 10.0996 23.34 9.55958 24.28 9.57958C25.22 9.57958 25.62 10.2196 25.8 11.9596C26.64 12.0996 27.5 12.1996 28.34 12.3996C36.64 14.4996 41.62 19.8596 43.68 28.0596C43.86 28.7396 44.04 29.2396 44.74 29.6196C46.1 30.3396 46.7 31.8996 46.42 33.4596C46.16 34.8396 45 36.0396 43.52 36.2596C42.88 36.3596 42.64 36.6596 42.54 37.2196C42.46 37.6396 42.34 38.0396 42.24 38.4396C41.64 40.5996 40.42 41.5396 38.16 41.5796C37.82 41.5796 37.48 41.5796 36.78 41.5796C37.38 42.7396 37.84 43.6796 38.36 44.5796C38.46 44.7596 38.86 44.8396 39.12 44.8396C45.48 44.8396 51.86 44.8396 58.22 44.8396C58.54 44.8396 59.02 44.6396 59.18 44.3996C59.68 43.5796 60.06 42.6996 60.6 41.5996C59.8 41.5996 59.3 41.5996 58.8 41.5996C56.78 41.5196 55.54 40.5596 54.98 38.6196C54.92 38.3996 54.84 38.1796 54.8 37.9596C54.66 36.9796 54.32 36.3396 53.14 36.1196C51.8 35.8596 51 34.7796 50.74 33.4396C50.48 32.0796 50.8 30.7796 51.96 29.9596C52.74 29.3996 52.7 28.8396 52.62 28.0796C51.82 20.0196 54.54 13.4996 61.14 8.67958C61.54 8.39958 61.96 8.15958 62.38 7.89958C62.78 7.67958 63.18 7.45958 63.64 7.21958C63.34 6.13958 62.8 4.93958 64.36 4.37958C65.18 4.07958 65.7 4.51958 66.5 6.03958C67.74 5.83958 68.98 5.55958 70.22 5.47958C78.6 4.95958 84.9 8.45958 89.4 15.4196C90.56 17.1996 90.1 18.4396 88.1 19.2196C85.34 20.2796 82.6 21.3396 79.84 22.3996C79.66 22.4596 79.5 22.5396 79.42 22.5796C80.48 23.1996 81.54 23.8796 82.66 24.4596C83.04 24.6596 83.62 24.6796 84.02 24.5596C87.72 23.3396 90.6 24.8196 91.74 28.5596C91.82 28.7996 92.1 29.0596 92.34 29.1596C94.18 29.8396 95.24 31.2396 95.14 32.9196C95.04 34.6796 93.86 35.9196 91.98 36.3796C91.7 36.4396 91.46 36.7596 91.28 36.9996C91.14 37.1996 91.14 37.4996 91.08 37.7396C90.34 40.6796 89.58 41.3596 86.46 41.6996C86.68 42.8396 87.1 43.8596 87.88 44.6996C88.06 44.8796 88.48 44.8996 88.78 44.8996C90.98 44.8996 93.2 44.8996 95.4 44.8996C97.78 44.8996 99.42 46.1396 99.8 48.1996C100.16 50.1596 99.04 51.8796 96.72 52.7796C96.72 54.5196 96.72 56.2996 96.72 58.0596C96.68 61.5196 94.44 64.1796 91.02 64.6396C88.72 64.9596 86.82 64.0996 85.2 62.3596C83.82 63.8196 82.18 64.6996 80.16 64.6996C78.18 64.6996 76.52 63.8796 75.12 62.3396C73.76 63.8396 72.1 64.6996 70.08 64.6996C68.1 64.6996 66.44 63.8796 65.06 62.3396C63.68 63.8396 62.02 64.6996 60 64.6996C58.02 64.6996 56.36 63.8596 54.98 62.3396C53.6 63.8596 51.92 64.6996 49.92 64.6996C47.94 64.6996 46.28 63.8796 44.98 62.3796C41.4 65.8396 37.4 65.0596 34.84 62.3996C31.48 65.8196 27.26 65.0796 24.78 62.3396C23.44 63.7996 21.78 64.6796 19.76 64.6796C17.78 64.6796 16.12 63.8796 14.96 62.5996C13.56 63.2796 12.3 64.1796 10.92 64.4996C6.98 65.4196 3.3 62.4196 3.18 58.3796C3.12 56.5396 3.18 54.6796 3.18 52.7396C1.56 52.3396 0.64 51.1996 0.04 49.7196V47.9596H0ZM7.66 28.9596H40.78C39.94 23.1996 34.5 15.2596 24.68 14.8796C16.62 14.5796 8.98 20.8796 7.66 28.9596ZM86.6 16.6196C82.12 9.19958 72.64 6.23958 64.98 9.81958C56.72 13.6796 54.26 22.8196 55.68 28.4796C65.96 24.5396 76.24 20.5996 86.58 16.6396L86.6 16.6196ZM49.8 49.8996C64.96 49.8996 80.14 49.8996 95.3 49.8996C96.08 49.8996 96.84 49.7996 96.84 48.8396C96.84 47.8796 96.08 47.7596 95.3 47.7796C95.2 47.7796 95.1 47.7796 95 47.7796C64.92 47.7796 34.84 47.7796 4.76 47.7796C3.44 47.7796 2.9 48.0796 2.9 48.8396C2.9 49.5796 3.44 49.8996 4.76 49.8996C19.76 49.8996 34.78 49.8996 49.78 49.8996H49.8ZM39.66 36.4396H8.84C9.10667 37.9196 9.94 38.6596 11.34 38.6596C20.1 38.6596 28.88 38.6596 37.64 38.6596C39.16 38.6596 39.18 38.6396 39.54 37.1996C39.6 36.9796 39.62 36.7596 39.68 36.4396H39.66ZM88.3 36.4396H57.54C57.54 38.1596 57.9 38.6796 59.02 38.6796C68.24 38.6796 77.46 38.6796 86.68 38.6796C87.48 38.6796 87.9 38.3996 88.04 37.6196C88.1 37.2396 88.22 36.8796 88.32 36.4196L88.3 36.4396ZM83.3 41.6396H63.44C63.1 42.7196 62.78 43.7596 62.44 44.8396H84.32C83.98 43.7796 83.66 42.7596 83.32 41.6396H83.3ZM13.02 44.8196H34.84C34.56 43.8596 34.34 42.9596 34.02 42.0796C33.94 41.8596 33.58 41.6196 33.34 41.6196C27.08 41.5996 20.8 41.5996 14.54 41.6196C14.3 41.6196 13.94 41.8596 13.86 42.0596C13.54 42.9396 13.3 43.8396 13.02 44.8196ZM66.48 52.8796C66.48 54.7996 66.44 56.6196 66.48 58.4196C66.54 60.1996 67.98 61.6396 69.78 61.7796C71.52 61.9196 73.32 60.6796 73.48 58.8996C73.66 56.9196 73.52 54.9196 73.52 52.8596H66.48V52.8796ZM26.26 52.8796C26.26 54.9396 26.14 56.8796 26.3 58.8196C26.44 60.5196 27.94 61.7196 29.62 61.8196C31.22 61.8996 32.96 60.8596 33.14 59.2196C33.38 57.1396 33.2 54.9996 33.2 52.8796H26.28H26.26ZM36.44 52.8796C36.44 55.0196 36.26 57.1996 36.5 59.3196C36.68 60.8796 38.42 61.8996 40 61.8196C41.6 61.7396 43.12 60.5996 43.26 58.9996C43.44 56.9796 43.3 54.9596 43.3 52.8796H36.44ZM56.38 52.8796C56.38 54.5396 56.38 56.1196 56.38 57.6996C56.38 58.0596 56.38 58.4196 56.46 58.7596C56.76 60.5396 58.22 61.7996 59.96 61.8196C61.64 61.8196 63.3 60.6196 63.44 58.8996C63.62 56.9196 63.48 54.9196 63.48 52.8796H56.38ZM13.16 52.9196H6.06C6.06 54.7996 6 56.6196 6.06 58.4196C6.12 60.2596 7.64 61.6996 9.44 61.7996C11.22 61.8996 12.94 60.5996 13.1 58.7396C13.26 56.8196 13.14 54.8796 13.14 52.8996L13.16 52.9196ZM93.76 52.9196H86.68C86.68 54.9396 86.54 56.9196 86.72 58.8796C86.88 60.6796 88.6 61.9396 90.36 61.8396C92.18 61.7396 93.68 60.2996 93.74 58.4596C93.8 56.6596 93.74 54.8396 93.74 52.9396L93.76 52.9196ZM46.38 52.8796C46.38 54.8196 46.34 56.6596 46.38 58.4996C46.44 60.2196 47.78 61.5796 49.52 61.7996C51.16 62.0196 53.06 60.9196 53.26 59.2596C53.5 57.1796 53.32 55.0396 53.32 52.8796H46.36H46.38ZM16.18 52.8796C16.18 54.7996 16.14 56.6396 16.18 58.4796C16.24 60.2396 17.62 61.6196 19.4 61.8196C21.06 61.9996 22.92 60.8596 23.1 59.1996C23.32 57.1396 23.16 55.0196 23.16 52.8996H16.18V52.8796ZM76.6 52.8796C76.6 54.8196 76.54 56.6596 76.6 58.4996C76.66 60.3796 78.28 61.8196 80.14 61.7996C82 61.7996 83.58 60.3396 83.66 58.4596C83.72 56.9996 83.68 55.5396 83.68 54.0796C83.68 53.6796 83.68 53.2796 83.68 52.8596H76.58L76.6 52.8796ZM24.16 31.9396C22.64 31.9396 21.1 31.9396 19.58 31.9396C15.06 31.9396 10.56 31.9396 6.04 31.9396C5.48 31.9396 4.88 32.0396 4.98 32.7196C5.02 32.9996 5.66 33.1996 6.04 33.4196C6.14 33.4796 6.3 33.4196 6.42 33.4196C18.3 33.4196 30.18 33.4196 42.06 33.4196C42.32 33.4196 42.62 33.4796 42.82 33.3796C43.08 33.2196 43.44 32.9196 43.44 32.6796C43.44 32.4396 43.1 32.1396 42.82 31.9796C42.62 31.8596 42.32 31.9396 42.06 31.9396C36.08 31.9396 30.12 31.9396 24.14 31.9396H24.16ZM72.8 33.4196C78.74 33.4196 84.68 33.4196 90.62 33.4196C90.94 33.4196 91.3 33.4796 91.58 33.3396C91.82 33.2196 92.12 32.8796 92.12 32.6596C92.12 32.4196 91.8 32.1396 91.56 31.9796C91.36 31.8596 91.06 31.9396 90.8 31.9396C78.86 31.9396 66.9 31.9396 54.96 31.9396C54.8 31.9396 54.6 31.8796 54.48 31.9396C54.16 32.1396 53.88 32.3996 53.6 32.6196C53.9 32.8796 54.18 33.1796 54.52 33.3796C54.72 33.4796 55.02 33.3996 55.28 33.3996C61.12 33.3996 66.96 33.3996 72.82 33.3996L72.8 33.4196ZM88.68 28.9796C88.3 27.3396 86.8 26.5796 85.2 27.1996C84.16 27.5996 83.12 27.8196 82.08 27.3996C81.4 27.1196 80.8 26.6796 80.18 26.2596C79.02 25.4796 77.84 25.3396 76.62 26.0196C75.5 26.6396 74.9 27.6196 74.86 28.9796H88.68ZM73.08 24.9196C69.7 26.2196 66.28 27.5396 62.86 28.8396C62.86 28.8796 62.9 28.9396 62.92 28.9796H71.66C72.16 27.5796 72.6 26.2996 73.1 24.9196H73.08Z" fill="#555555"/>
<path id="Vector_2" d="M19.7001 84.1002C19.7001 86.7202 19.7001 89.2202 19.7001 91.7002C19.7001 94.3602 18.1201 95.9202 15.4401 95.9202C14.7401 95.9202 14.0001 95.9202 13.3201 95.7002C11.7001 95.2002 10.7201 93.7802 10.7001 92.0002C10.7001 89.4002 10.7001 86.8002 10.7001 84.0402C10.0201 84.0402 9.38012 84.0402 8.76012 84.0402C5.40012 84.0202 3.14012 81.7802 3.12012 78.4202C3.12012 74.5602 3.12012 70.6802 3.12012 66.8202C3.12012 66.0602 3.36012 65.3802 4.12012 65.2402C4.60012 65.1602 5.28012 65.3602 5.66012 65.6802C5.96012 65.9202 6.02012 66.5602 6.02012 67.0202C6.04012 70.7002 6.02012 74.3602 6.02012 78.0402C6.02012 80.2602 6.88012 81.1402 9.06012 81.1402C36.2801 81.1402 63.5001 81.1402 90.7201 81.1402C92.8601 81.1402 93.7401 80.2602 93.7401 78.1202C93.7401 74.4402 93.7401 70.7802 93.7401 67.1002C93.7401 65.8802 94.2601 65.2002 95.2001 65.2002C96.1201 65.2002 96.6601 65.8802 96.6601 67.1002C96.6601 70.8602 96.6601 74.6402 96.6601 78.4002C96.6601 81.7602 94.4001 84.0002 91.0401 84.0402C90.5001 84.0402 89.9401 84.0402 89.2801 84.0402C89.2601 84.4402 89.2201 84.7802 89.2201 85.1202C89.2201 87.2602 89.2201 89.4002 89.2201 91.5602C89.2201 94.4202 87.6801 95.9602 84.8401 95.9802C81.6601 95.9802 80.1801 94.5402 80.1801 91.3602C80.1801 89.3202 80.1801 87.2602 80.1801 85.2202C80.1801 84.8802 80.1801 84.5202 80.1801 84.1202H19.7001V84.1002ZM83.1401 84.1002C83.1401 86.8002 83.0801 89.4402 83.1601 92.1002C83.2001 93.2402 84.2001 93.0202 84.9601 93.0402C85.7001 93.0802 86.2601 92.8202 86.3001 92.0002C86.3401 91.1202 86.3001 90.2602 86.3001 89.3802C86.3001 87.6402 86.3001 85.9002 86.3001 84.1002H83.1201H83.1401ZM13.6401 84.1002C13.6401 86.8002 13.6401 89.4202 13.6401 92.0402C13.6401 92.6602 14.0201 92.9802 14.6401 93.0002C15.0201 93.0002 15.4801 93.1202 15.8001 92.9802C16.1801 92.8002 16.7201 92.4202 16.7401 92.1002C16.8201 89.4602 16.7801 86.8002 16.7801 84.1002H13.6601H13.6401Z" fill="#555555"/>
</g>
</svg>
