<svg width="100" height="100" viewBox="0 0 100 100" fill="none" xmlns="http://www.w3.org/2000/svg">
<g id="Icon/4">
<path id="Vector" d="M71.96 84.3998V93.7598H87.48V96.8198H12.72V93.8198H28.2V84.3998C26.8 84.3998 25.42 84.3998 24.04 84.3998C20.86 84.3998 18.92 82.4798 18.92 79.3198C18.92 55.6598 18.92 31.9998 18.92 8.3598C18.92 5.2398 20.86 3.2998 23.94 3.2998C41.38 3.2998 58.84 3.2998 76.28 3.2998C79.34 3.2998 81.3 5.2398 81.3 8.2798C81.3 31.9998 81.3 55.7198 81.3 79.4398C81.3 82.4398 79.34 84.3798 76.36 84.3998C74.94 84.3998 73.5 84.3998 71.98 84.3998H71.96ZM22.02 43.7398C22.02 55.4998 22.02 67.2598 22.02 79.0398C22.02 80.8398 22.48 81.2798 24.26 81.2798C41.48 81.2798 58.7 81.2798 75.92 81.2798C77.7 81.2798 78.16 80.8198 78.16 79.0398C78.16 55.5798 78.16 32.1198 78.16 8.6598C78.16 6.8798 77.7 6.4198 75.92 6.4198C58.7 6.4198 41.48 6.4198 24.26 6.4198C22.46 6.4198 22.02 6.8598 22.02 8.6598C22.02 20.3598 22.02 32.0598 22.02 43.7598V43.7398ZM68.76 84.4598H31.46V93.6998H68.76V84.4598Z" fill="#555555"/>
<path id="Vector_2" d="M71.9399 74.9796V25.1796H75.0399V26.1996C75.0399 42.7796 75.0399 59.3396 75.0399 75.9196C75.0399 77.7196 74.5799 78.1796 72.8199 78.1796C57.6399 78.1796 42.4799 78.1796 27.2999 78.1796C25.6199 78.1796 25.1399 77.6996 25.1399 76.0596C25.1399 54.5796 25.1399 33.0996 25.1399 11.6396C25.1399 10.0596 25.6399 9.55957 27.2399 9.55957C42.4799 9.55957 57.7199 9.55957 72.9399 9.55957C74.5399 9.55957 75.0399 10.0596 75.0399 11.6596C75.0399 15.0596 75.0399 18.4796 75.0399 21.9596H71.9399V12.7196H28.3399V74.9996H71.9599L71.9399 74.9796Z" fill="#555555"/>
<path id="Vector_3" d="M48.46 43.7996H45.44V40.7996H36.08V43.7996H33C33 43.4996 32.96 43.1796 32.96 42.8796C32.96 37.6196 32.96 32.3596 32.96 27.0996C32.96 23.9396 34.9 22.0196 38.08 22.0196C40.02 22.0196 41.98 21.9996 43.92 22.0196C46.48 22.0596 48.52 24.0396 48.54 26.5996C48.58 32.2196 48.54 37.8396 48.54 43.4596C48.54 43.5596 48.5 43.6396 48.48 43.7996H48.46ZM45.4 37.5796C45.4 33.8796 45.4 30.2796 45.4 26.6796C45.4 25.6996 44.72 25.1396 43.66 25.1396C41.78 25.1396 39.9 25.1396 38.02 25.1396C36.62 25.1396 36.08 25.6796 36.06 27.0796C36.06 29.7996 36.06 32.5396 36.06 35.2596C36.06 36.0196 36.06 36.7996 36.06 37.5996H45.42L45.4 37.5796Z" fill="#555555"/>
<path id="Vector_4" d="M51.6599 32.8797C51.6599 29.9197 51.6599 26.9797 51.6599 24.0197C51.6599 22.5597 52.1799 21.9997 53.6399 22.0197C56.0399 22.0397 58.4599 21.8797 60.8199 22.1997C64.5399 22.6997 67.1799 25.9197 67.2199 29.6597C67.2399 32.2597 67.3599 34.8797 67.0399 37.4397C66.5599 41.1197 63.3599 43.7397 59.6599 43.8397C57.5799 43.8797 55.4999 43.8597 53.4199 43.8397C52.2199 43.8397 51.6399 43.2397 51.6399 42.0197C51.6399 38.9597 51.6399 35.9197 51.6399 32.8597L51.6599 32.8797ZM54.8399 25.1597V40.7197C56.5599 40.7197 58.2199 40.7997 59.8599 40.7197C62.1799 40.5797 64.0599 38.6197 64.1199 36.2997C64.1799 34.0597 64.1799 31.8197 64.1199 29.5797C64.0599 27.2997 62.2199 25.3397 59.9399 25.1797C58.2599 25.0597 56.5799 25.1597 54.8399 25.1597Z" fill="#555555"/>
<path id="Vector_5" d="M65.6401 56.4004V59.4004H34.5801V56.4004H65.6401Z" fill="#555555"/>
<path id="Vector_6" d="M65.6401 62.6201V65.6201H34.5601V62.6201H65.6401Z" fill="#555555"/>
<path id="Vector_7" d="M62.52 50.1602V53.1602H37.7V50.1602H62.52Z" fill="#555555"/>
</g>
</svg>
