<svg width="100" height="100" viewBox="0 0 100 100" fill="none" xmlns="http://www.w3.org/2000/svg">
<g id="Icon/5" clip-path="url(#clip0_1637_1992)">
<path id="Vector" d="M98.84 0C99.52 0.48 100.04 1.04 99.7 1.94C99.38 2.86 98.62 2.94 97.78 2.92C96.48 2.92 95.18 2.92 93.82 2.92C93.8 3.24 93.76 3.52 93.76 3.8C93.76 5.82 93.72 7.82 93.76 9.84C93.78 10.82 93.94 11.82 94.12 12.8C94.54 14.92 94.06 16.78 92.46 18.2C91.32 19.22 90.8 20.12 91.38 21.8C92.12 23.98 91.54 26.16 90.3 28.12C89.7 29.08 88.86 29.34 88.1 28.84C87.38 28.38 87.26 27.54 87.8 26.62C89.3 24.04 89 21.54 86.92 19.42C85.76 18.24 84.6 17.06 83.4 15.9C81.12 13.7 77.78 13.68 75.52 15.9C73.76 17.62 72.04 19.38 70.38 21.04C74.22 24.88 78.04 28.7 82.06 32.7C82.28 32.44 82.6 31.98 83.02 31.58C83.74 30.9 84.58 30.88 85.18 31.5C85.74 32.08 85.72 32.9 85.12 33.6C84.9 33.84 84.68 34.08 84.44 34.3C83.94 34.74 83.7 35.18 83.78 35.96C84.02 38.32 80.54 41.12 78.26 40.54C78.14 40.5 78.02 40.46 77.78 40.38C76.4 42.62 75.02 44.86 73.58 47.18C73.94 47.42 74.22 47.62 74.52 47.8C82.44 52.7 90.38 57.58 98.3 62.48C98.6 62.66 98.92 62.84 99.2 63.06C99.88 63.6 100.02 64.4 99.56 65.04C99.08 65.7 98.42 65.9 97.68 65.5C96.94 65.1 96.24 64.64 95.52 64.18C88 59.54 80.5 54.9 72.98 50.26C72.68 50.08 72.38 49.9 72.02 49.7C69.98 53 67.98 56.26 65.96 59.52C61.34 67 56.72 74.5 52.08 81.98C51.72 82.56 51.74 82.96 52.08 83.54C54.86 88 57.62 92.48 60.38 96.96C60.56 97.24 60.72 97.52 60.86 97.8C61.18 98.54 60.96 99.16 60.32 99.58C59.66 100.02 59.02 99.9 58.48 99.32C58.26 99.08 58.1 98.8 57.94 98.52C55.46 94.52 53 90.5 50.52 86.5C50.36 86.24 50.16 85.98 49.92 85.62C49.68 85.98 49.48 86.26 49.3 86.56C46.84 90.54 44.4 94.52 41.94 98.5C41.74 98.82 41.54 99.18 41.26 99.44C40.72 99.94 40.08 100 39.48 99.56C38.9 99.14 38.66 98.56 38.96 97.86C39.1 97.54 39.3 97.22 39.48 96.92C51.34 77.7 63.2 58.46 75.08 39.26C75.54 38.54 75.46 38.14 74.86 37.56C71.62 34.38 68.42 31.14 65.2 27.92C64.94 27.66 64.76 27.36 64.52 27.04C63.12 27.9 61.88 28.66 60.64 29.44C41.36 41.34 22.08 53.24 2.8 65.14C1.42 65.98 0.94 65.9 0 64.74V63.76C0.46 63.36 0.88 62.9 1.38 62.58C9.32 57.66 17.26 52.76 25.22 47.86C25.54 47.66 25.86 47.46 26.24 47.2C24.8 44.88 23.42 42.62 22.04 40.4C19.64 41.08 16.34 38.86 16.02 36.46C15.98 36.2 16.06 35.94 16.02 35.68C15.94 35.3 15.9 34.86 15.66 34.6C14.02 32.9 12.32 31.24 10.66 29.56C8.62 27.46 7.6 24.9 8.38 22.08C8.88 20.22 8.52 19.16 7.14 17.98C5.76 16.78 5.16 15.08 5.62 13.3C6.08 11.5 6.02 9.7 6.02 7.9C6.02 6.26 6.02 4.62 6.02 2.9C4.62 2.9 3.32 2.86 2.02 2.9C1.16 2.98 0.46 2.72 0 1.94C0 1.3 0 0.66 0 0C32.94 0 65.88 0 98.84 0ZM14.94 2.96C14.94 4.92 15.02 6.82 14.92 8.68C14.84 9.98 15.18 10.96 16.24 11.68C16.52 11.86 17 11.98 17.3 11.88C20.82 10.72 23.88 11.42 26.52 14C28.1 15.54 29.66 17.12 31.2 18.68C31.6 19.1 31.98 19.34 32.62 19.24C33.54 19.08 34.34 19.42 35.02 20.08C35.48 20.54 35.94 21 36.4 21.46C37.18 22.2 37.58 23.1 37.4 24.18C37.32 24.72 37.5 24.98 37.96 25.26C41.72 27.56 45.48 29.88 49.22 32.22C49.7 32.52 50.04 32.54 50.52 32.22C54.24 29.9 57.96 27.6 61.7 25.32C62.2 25.02 62.44 24.72 62.34 24.1C62.18 23.1 62.56 22.26 63.28 21.56C63.74 21.1 64.2 20.64 64.66 20.18C65.36 19.46 66.22 19.2 67.22 19.22C67.64 19.22 68.16 19.04 68.46 18.76C70.18 17.12 71.8 15.38 73.52 13.76C76 11.42 78.92 10.78 82.16 11.82C82.74 12 83.24 12.24 83.68 11.58C84.02 11.08 84.74 10.66 84.76 10.16C84.88 7.78 84.82 5.38 84.82 2.96H14.94ZM20.42 37.64C25.1 32.96 29.74 28.32 34.3 23.76C33.88 23.3 33.38 22.76 32.8 22.14C31.46 23.5 30.12 24.86 28.78 26.22C27.88 27.12 27 28.02 26.08 28.88C25.46 29.46 24.62 29.42 24.06 28.88C23.48 28.3 23.46 27.54 24.02 26.86C24.24 26.58 24.52 26.34 24.76 26.1C26.36 24.5 27.96 22.9 29.64 21.24C27.9 19.52 26.26 17.88 24.6 16.24C24.32 15.96 24.04 15.7 23.74 15.46C21.62 13.82 18.68 13.88 16.68 15.72C15.22 17.06 13.82 18.46 12.48 19.92C10.66 21.9 10.54 25.12 12.32 27.06C14.14 29.04 16.14 30.86 18.2 32.88C18.44 32.6 18.68 32.24 18.96 31.94C19.8 31.12 20.6 31.04 21.26 31.68C21.9 32.3 21.84 33.2 21.04 33.98C20.32 34.68 19.56 35.32 18.78 36.02C19.48 36.72 20 37.24 20.42 37.66V37.64ZM47.12 34.34C43.14 31.88 39.3 29.5 35.64 27.26C31.82 31.06 28.1 34.76 24.32 38.52C25.76 40.84 27.24 43.24 28.76 45.7C34.88 41.92 40.92 38.18 47.12 34.36V34.34ZM65.34 23.7C70.02 28.4 74.66 33.04 79.26 37.66C79.74 37.2 80.28 36.7 80.7 36.3C76.04 31.62 71.38 26.98 66.72 22.3C66.3 22.72 65.8 23.22 65.34 23.7ZM10.56 17.4C11.82 16.14 12.96 14.98 14.18 13.78C13.7 13.32 13.2 12.78 12.64 12.3C11.58 11.4 10.06 11.48 9.14 12.46C8.24 13.42 8.22 14.86 9.12 15.9C9.58 16.44 10.1 16.92 10.58 17.42L10.56 17.4ZM89.14 17.44C89.7 16.86 90.3 16.36 90.78 15.76C91.6 14.78 91.54 13.38 90.7 12.48C89.84 11.54 88.36 11.36 87.36 12.16C86.7 12.68 86.16 13.32 85.6 13.88C86.78 15.08 87.92 16.22 89.16 17.46L89.14 17.44ZM11.96 8.68V2.98H9V8.92C10 8.84 10.96 8.76 11.96 8.68ZM90.8 2.98H87.84V8.68C88.86 8.76 89.82 8.84 90.8 8.92V2.98Z" fill="#555555"/>
</g>
<defs>
<clipPath id="clip0_1637_1992">
<rect width="100" height="100" fill="white"/>
</clipPath>
</defs>
</svg>
