<svg width="100" height="100" viewBox="0 0 100 100" fill="none" xmlns="http://www.w3.org/2000/svg">
<g id="Icon/6" clip-path="url(#clip0_1637_1624)">
<path id="Vector" d="M32.16 99.9999C31.2 99.7399 30.2 99.5599 29.28 99.1999C26.96 98.3199 25.14 96.9199 24.54 94.3399C24.1 92.4199 24.7 90.7199 25.86 89.2399C27.92 86.6199 30.78 85.3599 33.96 84.7999C37.1 84.2399 40.16 84.5199 43.16 86.2799V84.8999C43.16 71.0999 43.16 57.2799 43.16 43.4799C43.16 38.6199 45.42 35.8799 50.14 34.8599C61.4 32.4599 72.66 30.0399 83.9 27.6199C87.32 26.8799 89.86 28.8799 89.86 32.3599C89.86 48.7599 89.86 65.1599 89.86 81.5799C89.86 83.8599 88.98 85.7199 87.28 87.1199C83.02 90.6199 78.2 91.4799 72.94 89.7799C72.46 89.6199 71.98 89.3599 71.54 89.0999C67.72 86.8799 67.04 82.6399 70.02 79.3799C72.4 76.7799 75.5 75.6199 78.92 75.2599C79.92 75.1599 80.94 75.1999 81.94 75.2599C83.04 75.3199 83.7 75.9799 83.6 76.8799C83.52 77.7399 82.84 78.2599 81.76 78.1599C79.06 77.9599 76.5 78.3399 74.18 79.7599C73.32 80.2999 72.5 80.9999 71.86 81.7999C70.56 83.4599 70.86 85.3199 72.7 86.3599C73.82 86.9999 75.16 87.4199 76.44 87.5799C79.44 87.9599 82.24 87.2199 84.72 85.4399C86.2 84.3799 86.96 82.9999 86.94 81.0599C86.88 69.0999 86.92 57.1599 86.9 45.1999C86.9 43.1999 86.2 42.6199 84.26 43.0399C72.9 45.4599 61.54 47.8999 50.18 50.3199C47.46 50.8999 46.02 52.7199 46.02 55.6199C46.02 66.9199 46.02 78.2199 46.02 89.5399C46.02 94.3999 44.2 97.0999 39.62 98.8399C38.26 99.3599 36.82 99.6199 35.42 99.9999H32.1H32.16ZM86.92 39.9399C86.92 39.9399 86.92 39.9599 86.92 39.8999C86.92 37.4399 86.92 34.9599 86.92 32.4999C86.92 30.7199 86.12 30.1199 84.36 30.4999C72.98 32.9399 61.58 35.3799 50.2 37.8199C47.58 38.3799 46.08 40.1399 46.04 42.8199C46.02 44.6399 46.04 46.4599 46.04 48.2799C46.04 48.4799 46.1 48.6799 46.12 48.7399C47.38 48.2999 48.56 47.7199 49.82 47.4599C61.08 45.0199 72.34 42.5999 83.6 40.2199C84.62 39.9999 85.7 40.0399 86.9 39.9599L86.92 39.9399ZM35.84 87.4999C33.54 87.5799 30.7 88.3399 28.5 90.6399C26.58 92.6599 27 94.84 29.48 96.1199C31.06 96.9399 32.76 97.1799 34.48 97.0399C37.44 96.8199 40.18 95.9799 42.18 93.6399C43.76 91.7999 43.36 89.7999 41.28 88.5799C39.84 87.7399 38.24 87.4799 35.84 87.4999Z" fill="#555555"/>
<path id="Vector_2" d="M29.06 53.3203C29.06 52.9003 29.06 52.5203 29.06 52.1403C29.06 38.2403 29.06 24.3403 29.06 10.4403C29.06 5.90025 31.32 3.08026 35.76 2.08025C38.52 1.46025 41.28 0.880255 44.04 0.300255C45.32 0.0202551 46.04 0.600255 46.06 1.94026C46.06 4.80025 46.1 7.66026 46.06 10.5203C46 13.4803 44.1 15.7403 41.18 16.4203C39.5 16.8003 37.82 17.1603 36.14 17.5403C33.46 18.1203 32 19.9003 32 22.6403C32 34.1403 31.92 45.6403 32.04 57.1403C32.08 60.9803 30.42 63.5203 27.24 65.2603C23.52 67.3003 19.56 67.8003 15.48 66.5003C13.22 65.7803 11.4 64.4603 10.6 62.1203C9.88 60.0003 10.48 58.0803 11.82 56.3803C13.68 54.0403 16.24 52.8403 19.08 52.1603C19.86 51.9803 20.62 52.5003 20.78 53.2603C20.94 54.0803 20.58 54.6603 19.82 54.9603C18.98 55.2803 18.08 55.5003 17.26 55.8603C15.9 56.4403 14.72 57.3003 13.88 58.5403C12.84 60.1003 13.06 61.7603 14.62 62.7803C15.54 63.3803 16.66 63.8403 17.74 64.0403C20.86 64.6003 23.8 64.0403 26.5 62.3003C26.74 62.1403 26.98 61.9603 27.2 61.7803C30.06 59.4003 29.6 56.5803 26.12 55.2603C25.9 55.1803 25.68 55.1203 25.48 55.0403C24.6 54.6803 24.22 53.9803 24.5 53.2003C24.78 52.4003 25.48 52.0203 26.38 52.3003C27.26 52.5803 28.12 52.9803 29.08 53.3603L29.06 53.3203ZM43.06 3.48026C40.62 4.00026 38.2 4.50026 35.82 5.04026C33.7 5.52026 32.3 6.90026 32.1 9.02026C31.9 11.3203 32.06 13.6603 32.06 15.7403C33.86 15.2203 35.66 14.7003 37.48 14.2003C38.58 13.9003 39.7 13.7203 40.8 13.4403C42 13.1203 42.94 12.3003 43.02 11.1203C43.18 8.60025 43.06 6.08026 43.06 3.48026Z" fill="#555555"/>
</g>
<defs>
<clipPath id="clip0_1637_1624">
<rect width="100" height="100" fill="white"/>
</clipPath>
</defs>
</svg>
