<svg width="100" height="100" viewBox="0 0 100 100" fill="none" xmlns="http://www.w3.org/2000/svg">
<g id="Icon/7">
<path id="Vector" d="M50.0802 2.7002C62.4602 2.7002 74.8402 2.7002 87.2202 2.7002C89.0202 2.7002 89.4602 3.1602 89.4602 4.9402C89.4602 21.2202 89.4602 37.5002 89.4602 53.7802C89.4602 55.5802 89.0002 56.0202 87.2202 56.0202C62.4602 56.0202 37.7002 56.0202 12.9402 56.0202C11.1402 56.0202 10.7002 55.5602 10.7002 53.7802C10.7002 37.5002 10.7002 21.2202 10.7002 4.9402C10.7002 3.1402 11.1402 2.7002 12.9402 2.7002C25.3202 2.7002 37.7002 2.7002 50.0802 2.7002ZM13.9002 5.8802V52.8402H86.3002V5.8802H13.9002Z" fill="#555555"/>
<path id="Vector_2" d="M80.7 78.2999C74.72 84.1999 67.38 86.6199 59.58 87.8399C51.38 89.1199 43.2 88.8399 35.14 86.7199C29.38 85.1999 24.04 82.8999 19.78 78.5399C19.74 78.4999 19.68 78.4999 19.5 78.4399C19.5 78.8199 19.5 79.1599 19.5 79.4999C19.5 84.7799 19.5 90.0399 19.5 95.3199C19.5 96.8399 19.06 97.2799 17.52 97.2799C15.02 97.2799 12.52 97.2799 10.02 97.2799C8.52 97.2799 8 96.7799 8 95.3199C8 85.2999 8 75.2599 8 65.2399C8 61.8799 10.46 59.3599 13.7 59.3399C16.98 59.3399 19.46 61.8599 19.48 65.2599C19.48 66.8199 19.56 68.3799 19.48 69.9399C19.34 72.3599 20.28 74.3199 21.8 76.0599C24.52 79.1599 28.06 80.9999 31.84 82.3999C39.38 85.1799 47.18 85.8399 55.14 85.2399C60.54 84.8199 65.8 83.6999 70.76 81.4399C73.64 80.1199 76.34 78.4999 78.44 76.0599C79.96 74.2999 80.88 72.3399 80.74 69.9199C80.64 68.3399 80.7 66.7399 80.74 65.1399C80.78 61.8199 83.32 59.2399 86.52 59.2599C89.7 59.2599 92.24 61.8199 92.24 65.0799C92.26 75.1999 92.24 85.3199 92.24 95.4599C92.24 96.7399 91.7 97.2799 90.38 97.2799C87.74 97.2799 85.12 97.2799 82.48 97.2799C81.22 97.2799 80.74 96.7599 80.74 95.4799C80.74 90.1799 80.74 84.8599 80.74 79.5599V78.2999H80.7ZM16.3 94.0999V72.1399H11.16V94.0999H16.3ZM89.04 72.1399H83.9V94.0999H89.04V72.1399ZM11.12 68.8999H16.36C16.36 67.7599 16.36 66.6599 16.36 65.5599C16.36 65.2599 16.36 64.9799 16.34 64.6799C16.16 63.3599 15.04 62.3799 13.74 62.3599C12.46 62.3599 11.24 63.3599 11.16 64.6599C11.06 66.0399 11.14 67.4399 11.14 68.8799L11.12 68.8999ZM83.84 68.8999H89.08C89.08 67.4999 89.14 66.1799 89.08 64.8599C89 63.4399 87.8 62.3799 86.42 62.3999C85.08 62.4199 83.92 63.4799 83.86 64.8399C83.8 66.1599 83.86 67.4999 83.86 68.8799L83.84 68.8999Z" fill="#555555"/>
<path id="Vector_3" d="M50.0001 50.1801C39.6001 50.1801 29.2001 50.1801 18.8001 50.1801C17.0201 50.1801 16.5601 49.7201 16.5601 47.9401C16.5601 35.5601 16.5601 23.2001 16.5601 10.8201C16.5601 9.02008 17.0001 8.58008 18.8001 8.58008C39.6601 8.58008 60.5201 8.58008 81.3801 8.58008C83.1801 8.58008 83.6201 9.04008 83.6201 10.8201C83.6201 23.2001 83.6201 35.5601 83.6201 47.9401C83.6201 49.7401 83.1601 50.1801 81.3801 50.1801C70.9201 50.1801 60.4601 50.1801 50.0001 50.1801ZM19.7401 11.7401V38.5201C20.1001 38.3001 20.3801 38.1601 20.6401 37.9801C24.7801 35.2401 28.9201 32.5001 33.0801 29.7601C36.7601 27.3401 40.7401 27.5801 44.1401 30.4201C47.1801 32.9601 50.2201 35.5001 53.2601 38.0401C55.4401 39.8601 57.6201 40.1001 60.1001 38.7601C66.6801 35.1801 73.2601 31.5801 79.8401 28.0001C80.3201 27.7401 80.5401 27.4601 80.5201 26.8801C80.5001 22.0201 80.5201 17.1801 80.5201 12.3201C80.5201 12.1401 80.5001 11.9401 80.4801 11.7201H19.7401V11.7401ZM80.4801 31.2201C79.9601 31.5001 79.5601 31.7001 79.1801 31.9001C73.4001 35.0601 67.6201 38.2201 61.8401 41.3801C57.9001 43.5201 54.4801 43.1401 51.0401 40.2601C47.9601 37.6601 44.8801 35.0601 41.7601 32.5201C39.8201 30.9201 37.3001 30.7401 35.2201 32.1001C30.1801 35.3801 25.1801 38.7201 20.1801 42.0401C19.9601 42.1801 19.7201 42.4801 19.7201 42.7001C19.6801 44.1201 19.7001 45.5401 19.7001 47.0001H80.4801V31.2201Z" fill="#555555"/>
<path id="Vector_4" d="M63.7602 21.7596C63.7602 25.7996 60.3602 29.0796 56.2002 29.0596C52.0802 29.0396 48.7202 25.7596 48.7202 21.7796C48.7202 17.7396 52.1402 14.4596 56.2802 14.4796C60.4002 14.4996 63.7602 17.7796 63.7602 21.7596ZM60.6402 21.7596C60.6402 19.4796 58.6602 17.6196 56.2402 17.6196C53.8402 17.6196 51.8402 19.4796 51.8402 21.7596C51.8402 24.0796 53.8402 25.9796 56.2802 25.9596C58.7002 25.9396 60.6402 24.0596 60.6402 21.7596Z" fill="#555555"/>
</g>
</svg>
