<svg width="461" height="342" viewBox="0 0 461 342" fill="none" xmlns="http://www.w3.org/2000/svg">
<path d="M229.678 0.409583L230.508 0L231.338 0.409583L461 115.638V342H432.553V175.263C432.212 167.815 429.423 145.246 408.887 122.225C386.4 97.0312 337.208 65.894 230.508 60.6111C123.808 65.894 74.6087 97.0312 52.1298 122.225C48.8085 125.934 45.7569 129.878 42.9988 134.028C42.9407 134.095 42.8245 134.262 42.7746 134.337C42.1827 135.147 41.65 135.999 41.1809 136.887C30.4976 154.29 28.7295 169.487 28.4556 175.338V342H-1.23978e-05V115.638L229.678 0.409583ZM459.34 122.334C458.817 118.531 455.247 119.617 453.529 120.353L442.53 125.786C441.302 126.706 436.786 130.425 439.21 133.978L454.625 149.108C458.584 151.615 459.323 147.043 459.323 147.043L459.34 122.334ZM459.34 161.354C458.991 158.704 457.48 159.64 456.675 160.351L437.533 179.275C436.081 181.073 438.164 181.332 438.753 181.374H459.34V161.354ZM459.34 260.826V243.197C459.265 242.612 459.34 238.031 455.48 241.007L437.525 258.761C436.023 260.625 438.355 260.826 438.82 260.851L459.34 260.826ZM457.962 262.498L458.086 262.556L458.144 262.498H457.962ZM439.808 254.139L453.579 240.522C455.887 237.279 454.11 236.292 452.599 236.016H438.04C435.151 236.401 434.396 239.268 434.238 240.129V254.782C434.86 258.209 439.808 254.189 439.808 254.189V254.139ZM439.808 227.666L453.629 213.999C456.194 210.312 453.454 209.635 451.927 209.518H438.172C435.192 209.844 434.42 212.778 434.254 213.648V228.276C434.844 231.619 439.492 227.925 439.758 227.682L439.808 227.666ZM439.733 201.251L453.579 187.559C456.069 184.09 453.878 183.238 452.309 183.037H438.065C435.176 183.43 434.42 186.289 434.263 187.15V201.82C434.777 204.963 439.044 201.795 439.716 201.268L439.733 201.251ZM459.356 190.309C459.356 190.309 458.883 184.943 455.123 188.378L437.583 205.707C436.155 207.378 437.824 207.78 438.579 207.855H459.332L459.356 190.309ZM458.028 209.535L458.12 209.577V209.535H458.028ZM459.356 216.857C459.356 216.857 458.842 211.006 454.641 215.386L437.558 232.271C436.105 234.069 438.189 234.336 438.778 234.378H459.365L459.356 216.857ZM459.356 269.862C459.356 269.862 458.842 264.011 454.641 268.391L438.04 284.816C436.114 286.705 437.5 287.232 438.372 287.324H459.34L459.356 269.862ZM459.356 296.31C459.356 296.31 458.842 290.458 454.641 294.839L437.542 311.749C436.039 313.613 438.372 313.813 438.837 313.839H454.409C455.552 313.961 456.698 313.64 457.614 312.941C458.531 312.243 459.148 311.218 459.34 310.077L459.356 296.31ZM440.713 340.328H459.34V320.919C458.809 317.734 455.837 320.183 454.716 321.236L454.293 321.654L439.758 335.99L438.712 337.026C436.438 339.776 440.646 340.286 440.696 340.328H440.713ZM434.23 333.925C434.703 338.506 438.77 334.678 438.77 334.678L456.36 317.232C456.825 316.672 457.248 315.769 455.33 315.51H438.015C434.919 315.945 434.288 319.238 434.213 319.79L434.23 333.925ZM434.23 307.603C434.703 311.331 439.824 307.143 439.824 307.143L453.571 293.551C456.061 290.024 453.786 289.196 452.218 289.012H439.252C439.019 289 438.787 289 438.554 289.012H438.43C434.977 289.205 434.279 292.774 434.23 293.342V307.603ZM434.23 281.163C434.645 284.407 438.563 281.665 439.584 280.887L453.695 266.953C457.016 262.121 451.055 262.531 451.055 262.531H438.015C435.151 262.932 434.396 265.783 434.238 266.644V273.866L434.23 281.163ZM434.23 175.138C434.694 178.749 439.492 174.954 439.808 174.695L455.505 159.18C456.194 158.462 456.633 157.538 456.758 156.547H434.23V175.138ZM434.23 154.875H456.642C456.236 153.536 455.516 152.315 454.542 151.315L453.936 150.721L438.098 135.173C434.927 132.306 434.346 135.04 434.238 136.009L434.23 154.875ZM433.399 128.444L451.744 119.383C457.422 115.889 452.309 113.156 452.309 113.156L426.227 100.066C421.322 98.7866 421.164 105.165 421.164 105.165V121.105L433.399 128.444ZM410.157 121.164C424.268 136.971 430.079 152.602 432.569 163.443V129.874L397.116 108.592C401.767 112.453 406.129 116.655 410.165 121.164H410.157ZM391.77 103.359L419.512 120.077V102.356C419.089 100.584 417.561 97.7083 412.099 97.6832L394.85 99.1293C388.292 99.5473 391.779 103.359 391.779 103.359H391.77ZM383.984 86.4738V92.1747C384.814 96.6885 388.616 97.7 391.281 97.7752L409.65 96.2037C414.374 95.6186 412.672 93.5288 412.058 92.9186L388.533 81.1575C383.835 80.0876 383.992 86.4738 383.992 86.4738H383.984ZM354.773 83.3977L378.182 95.2173C381.004 96.3207 381.984 94.791 382.332 93.3533V84.1584C381.884 82.2274 380.166 78.7334 373.541 79.143L357.346 80.447H356.965L355.769 80.5389C350.938 81.1575 354.781 83.3977 354.781 83.3977H354.773ZM345.767 73.0827V73.1245C346.19 78.5328 352.216 79.0343 354.964 78.9758L372.985 77.5297C377.426 76.9446 375.791 75.1056 374.836 74.3031L351.121 62.4083C345.916 61.1293 345.767 67.5156 345.767 67.5156V73.0827ZM315.053 70.4245C315.352 70.5332 339.582 77.5882 339.582 77.5882C342.122 78.5829 343.301 77.0699 343.841 75.4316C344.054 74.7504 344.158 74.0393 344.148 73.3251V65.0748C343.733 63.2275 342.222 60.5358 337.1 61.6392L316.265 67.5407C310.894 69.179 315.02 70.4245 315.02 70.4245H315.053ZM307.582 61.681C307.964 66.6379 311.633 66.8385 313.708 66.5042L336.37 60.0845C340.579 58.5464 339.001 56.5904 337.897 55.6876L312.754 43.0739C307.541 41.7699 307.582 48.1896 307.582 48.1896V61.681ZM276.495 63.1355L298.626 66.8051C302.776 67.4237 304.644 65.242 305.457 63.4113C305.773 62.6723 305.931 61.8751 305.922 61.0708V46.3841C305.549 44.8627 304.204 42.5222 299.796 44.4949L275.939 59.3489C271.573 61.8649 276.446 63.1355 276.446 63.1355H276.495ZM269.348 55.1192C269.298 59.7334 271.722 59.6582 273.333 59.0062L299.29 42.8399C302.876 39.747 300.004 36.9886 298.958 36.1527L274.968 24.1157C269.448 22.4941 269.348 28.9974 269.348 28.9974V55.1192ZM235.638 59.2151L237.398 59.3154H237.523C244.955 59.7668 252.201 60.3547 259.263 61.0792L258.947 61.029L260.06 61.1628L260.815 61.238C265.845 61.4721 267.29 58.3374 267.688 56.3396V27.2169C267.364 25.8126 266.269 23.982 263.098 27.0079L234.119 57.2591L234.045 57.3511C233.273 58.5213 234.46 59.0396 235.555 59.2151H235.638ZM231.388 8.88562V55.161C231.388 56.7409 232.218 56.5904 232.799 56.231L262.741 24.9683C265.347 21.1315 262.334 18.1725 261.081 17.161L236.178 4.68104C234.609 4.18786 230.932 3.54422 231.338 8.88562H231.388ZM229.728 55.813V6.9714C229.388 5.2996 225.096 4.60582 225.096 4.60582L201.621 16.4589C201.621 16.4589 194.823 20.7721 199.322 25.963L228.084 56.0805C229.014 56.7743 229.487 56.2811 229.678 55.813H229.728ZM193.42 54.8684C193.42 54.8684 193.42 61.0207 199.82 61.2965C208.37 60.3937 217.196 59.6832 226.3 59.165C227.719 58.9894 227.644 58.2121 227.47 57.7523L197.305 26.264C193.569 23.3717 193.42 28.1865 193.42 28.1865V54.8684ZM191.76 57.0502V26.6986C191.386 24.9182 190.191 22.7532 186.439 24.0739L163.545 35.5592C163.269 35.6977 163.008 35.8628 162.765 36.0524C161.544 37.0304 158.373 40.165 162.665 43.3665L186.447 58.1786C186.447 58.1786 190.83 61.4136 191.71 57.0502H191.76ZM155.236 60.7699C155.236 60.7699 156.016 67.6744 162.789 66.7884C169.945 65.3896 177.349 64.1637 185.003 63.1104C185.7 62.9098 188.547 61.9736 186.663 60.2349L161.304 44.4448C155.493 42.1544 155.26 47.7884 155.26 47.7884L155.236 60.7699ZM153.575 61.9653V47.0611C153.202 45.0884 151.973 42.0457 147.765 43.4835L124.273 55.1861C124.273 55.1861 118.936 58.4043 126.074 60.4941L145.698 66.0528L146.337 66.2367C148.039 66.663 152.828 67.3066 153.484 61.9318L153.575 61.9653ZM116.985 72.4976C116.985 73.2583 117.184 79.3185 121.675 77.5631L120.646 77.956C128.697 75.1697 137.22 72.662 146.212 70.4329H146.138C146.138 70.4329 150.288 69.1623 145.399 67.6744L144.751 67.4905L123.866 61.5807C116.595 60.1764 117.002 66.5961 117.002 66.5961L116.985 72.4976ZM115.325 73.1078V67.2565C115.225 65.9692 114.495 60.8869 109.273 62.7259L109.58 62.5754L87.168 73.835C86.5869 74.2613 83.2084 76.9279 88.9941 77.5631L90.1315 77.6551L105.712 78.9089C108.144 79.0427 114.793 78.8086 115.192 73.1078H115.325ZM79.6805 97.2569L80.6684 96.6551L79.6722 97.2486L79.6805 97.2569ZM78.7758 92.5257C78.9169 94.0638 79.6059 96.4879 82.9262 95.2591C90.4253 90.7987 98.2219 86.8661 106.26 83.4897L106.061 83.5649C106.061 83.5649 109.971 81.2996 105.853 80.6142L87.1099 79.1012C79.7553 79.026 78.8587 84.1166 78.7508 85.1113L78.7758 92.5257ZM77.1156 92.3168V84.9525C76.9828 83.055 76.2191 80.0207 72.575 81.1408L49.3324 92.8434C49.1581 92.9938 46.3357 95.4932 51.1586 96.2371L69.9436 97.8086C72.4753 97.7167 76.1776 96.7805 77.0077 92.3168H77.1156ZM66.3824 99.1795L49.3241 97.7418C43.1399 97.6749 41.8532 101.194 41.5876 102.891V120.11L74.8744 100.132L69.4622 103.376C69.4622 103.376 72.8572 99.5473 66.2912 99.1795H66.3824ZM28.5552 135.959V163.477C30.9874 152.61 36.8561 136.996 50.9677 121.189C55.0082 116.689 59.3754 112.498 64.0333 108.65L28.5801 129.932L28.5552 135.959ZM39.9274 121.13V105.616C39.9274 105.616 39.8611 98.5108 34.6066 100.191L8.5583 113.264C7.42937 114.1 4.75648 116.566 9.4797 119.45L27.6835 128.444L39.9274 121.13ZM4.3663 154.901H26.895V140.356C26.895 139.746 26.8203 131.688 23.5746 134.638L5.6031 152.284C4.89385 152.981 4.42789 153.89 4.27499 154.875L4.3663 154.901ZM7.20524 160.752L21.1757 174.569C21.1757 174.569 26.5049 179 26.9116 174.678V156.547H4.49915C4.89686 157.892 5.6117 159.119 6.58268 160.125L7.19692 160.735L7.20524 160.752ZM26.8701 201.318V186.941C26.7373 186.205 26.04 183.371 23.0268 183.054H9.50461C8.11006 183.229 5.1549 183.973 7.18033 187.233L21.2089 201.109L21.159 201.017C21.159 201.017 26.2226 205.28 26.7788 201.31L26.8701 201.318ZM21.8895 236.041H9.77019C8.50845 236.158 5.00546 236.81 7.27991 240.346L21.1507 254.055V254.013C21.1507 254.013 26.2973 258.285 26.8618 254.322V239.928C26.7207 239.168 26.0317 236.259 22.8608 236.033H21.9061L21.8895 236.041ZM7.15538 266.727L21.1259 280.536L21.0677 280.444C21.0677 280.444 26.3969 284.866 26.8037 280.553V273.824V266.393C26.6709 265.649 25.9736 262.849 22.9936 262.523H10.152C10.152 262.523 4.56549 262.606 7.15538 266.727ZM7.0807 293.142L21.0677 306.976C21.0677 306.976 26.3969 311.398 26.8037 307.085V293.05C26.8037 293.05 26.4136 289.505 23.1513 289.012H7.76966C6.46642 289.514 5.34582 290.634 7.08902 293.192L7.0807 293.142ZM26.7788 227.808V213.397C26.646 212.678 25.9487 209.953 23.1263 209.535H9.97772C9.09783 209.585 4.78133 210.02 7.1886 213.806L21.0844 227.549C21.3915 227.824 26.2392 231.67 26.7788 227.841V227.808ZM26.7788 333.967V319.581C26.7788 319.581 26.3638 315.795 22.7861 315.51H9.9445C9.9445 315.51 4.1339 315.51 7.52067 320.133L22.4623 334.92C22.9936 335.396 26.372 338.548 26.8037 334L26.7788 333.967ZM1.64358 340.295H20.6859C20.6859 340.295 24.6371 339.868 22.4208 337.169L6.35851 321.286C2.10014 317.558 1.64358 322.473 1.64358 322.473V340.295ZM1.64358 313.805H22.3129C23.2094 313.763 25.0522 313.412 22.7445 310.997L6.08461 294.529C2.07527 290.835 1.64358 295.641 1.64358 295.641V313.805ZM1.64358 287.307H21.8812C21.8812 287.307 25.4008 287.55 23.0101 284.799L6.11775 268.081C2.48195 265.081 1.75979 268.483 1.64358 269.243V287.307ZM1.66849 260.876H21.9061C21.9061 260.876 25.5752 261.127 22.8857 258.209L5.81895 241.324C2.49858 238.658 1.7847 242.026 1.66849 242.779V260.876ZM1.66849 234.386H22.4208C23.3422 234.328 25.0356 233.935 22.7861 231.586L5.93517 214.918C2.51519 212.093 1.78473 215.528 1.68512 216.289L1.66849 234.386ZM1.66849 207.888H21.9061C21.9061 207.888 25.4506 208.131 23.0184 205.381L5.99326 188.554C2.85551 185.862 1.91752 188.32 1.66849 189.448V207.888ZM1.66849 181.399H21.9061C21.9061 181.399 25.6001 181.658 22.8691 178.715L6.36683 162.39C2.41559 159.941 1.66849 164.472 1.66849 164.472V181.399ZM1.66849 150.144C2.00883 152.702 3.43658 151.908 4.26667 151.214L22.0473 133.744C25.1685 130.125 22.4042 127.893 22.0473 127.575L7.23006 120.253C5.46196 119.517 2.24959 118.723 1.71003 122.1L1.66849 150.144Z" fill="#252424"/>
</svg>
