<svg width="911" height="669" viewBox="0 0 911 669" fill="none" xmlns="http://www.w3.org/2000/svg">
<g clip-path="url(#clip0_1480_186781)">
<path d="M457.149 2.95967L455.509 2.15625L453.869 2.95967L0.223633 228.987V673.008H56.4149V345.944C57.0872 331.335 62.5965 287.064 103.162 241.908C147.58 192.488 244.747 131.411 455.509 121.048C666.271 131.411 763.454 192.488 807.856 241.908C814.417 249.182 820.444 256.919 825.892 265.06C826.007 265.191 826.237 265.519 826.335 265.667C827.505 267.255 828.557 268.926 829.483 270.668V270.668C850.586 304.805 854.078 334.614 854.619 346.092V673.008H910.827V228.987L457.149 2.95967ZM3.50296 242.121C4.53595 234.661 11.5865 236.792 14.9806 238.235L36.7061 248.893C39.1328 250.696 48.0526 257.993 43.2648 264.962L12.8163 294.639C4.99514 299.558 3.53578 290.589 3.53578 290.589L3.50296 242.121ZM3.50296 318.66C4.19162 313.463 7.17584 315.299 8.76631 316.693L46.5769 353.815C49.4464 357.34 45.3309 357.848 44.1667 357.93H3.50296V318.66ZM3.50296 513.78V479.2C3.65053 478.052 3.503 469.067 11.1274 474.904L46.5934 509.73C49.5612 513.387 44.9537 513.78 44.0355 513.83L3.50296 513.78ZM6.22486 517.06L5.97887 517.175L5.86408 517.06H6.22486ZM42.0843 500.663L14.8822 473.953C10.324 467.591 13.8329 465.656 16.8171 465.115H45.5768C51.2828 465.869 52.7749 471.494 53.0865 473.182V501.926C51.8567 508.648 42.0843 500.762 42.0843 500.762V500.663ZM42.0843 448.735L14.7839 421.926C9.71729 414.696 15.1283 413.367 18.1452 413.138H45.3144C51.2008 413.777 52.7257 419.533 53.0536 421.238V449.932C51.8895 456.491 42.7074 449.243 42.1827 448.768L42.0843 448.735ZM42.2319 396.922L14.8822 370.064C9.96324 363.259 14.292 361.587 17.391 361.193H45.5275C51.2336 361.964 52.7257 367.572 53.0372 369.26V398.037C52.0206 404.202 43.5928 397.987 42.2646 396.954L42.2319 396.922ZM3.47023 375.458C3.47023 375.458 4.4048 364.932 11.8325 371.671L46.4786 405.661C49.2988 408.94 46.003 409.727 44.511 409.875H3.51937L3.47023 375.458ZM6.09366 413.171L5.91332 413.253V413.171H6.09366ZM3.47023 427.534C3.47023 427.534 4.48681 416.057 12.7835 424.648L46.5278 457.77C49.3972 461.295 45.2816 461.819 44.1175 461.901H3.45382L3.47023 427.534ZM3.47023 531.505C3.47023 531.505 4.48681 520.028 12.7835 528.619L45.5768 560.839C49.3808 564.544 46.6425 565.577 44.9209 565.758H3.50296L3.47023 531.505ZM5.97887 569.07H5.88049H5.97887ZM3.47023 583.384C3.47023 583.384 4.48681 571.907 12.7835 580.498L46.5605 613.669C49.5283 617.325 44.9209 617.719 44.0027 617.768H13.2426C10.985 618.008 8.72067 617.379 6.91099 616.008C5.1013 614.637 3.88248 612.628 3.50296 610.389L3.47023 583.384ZM40.297 669.729H3.50296V631.656C4.55234 625.409 10.4224 630.213 12.6359 632.279L13.4721 633.099L42.1827 661.219L44.2487 663.252C48.7413 668.647 40.4282 669.647 40.3298 669.729H40.297ZM53.1028 657.169C52.1682 666.154 44.1339 658.645 44.1339 658.645L9.38939 624.425C8.47118 623.326 7.63494 621.555 11.4226 621.047H45.6259C51.7419 621.9 52.988 628.36 53.1356 629.442L53.1028 657.169ZM53.1028 605.536C52.1682 612.849 42.0515 604.634 42.0515 604.634L14.8986 577.973C9.97965 571.054 14.4723 569.431 17.5713 569.07H43.1828C43.6416 569.046 44.1014 569.046 44.5602 569.07H44.8061C51.6271 569.447 53.0044 576.448 53.1028 577.563V605.536ZM53.1028 553.673C52.2829 560.035 44.5438 554.657 42.527 553.132L14.6528 525.799C8.0941 516.322 19.8669 517.125 19.8669 517.125H45.6259C51.2828 517.912 52.7749 523.504 53.0865 525.193V539.359L53.1028 553.673ZM53.1028 345.699C52.1846 352.782 42.7074 345.338 42.0843 344.83L11.0783 314.397C9.7176 312.988 8.8491 311.176 8.60239 309.232H53.1028V345.699ZM53.1028 305.953H8.83187C9.63412 303.326 11.057 300.93 12.9803 298.968L14.1772 297.804L45.462 267.306C51.7255 261.682 52.8733 267.044 53.0865 268.946L53.1028 305.953ZM54.7424 254.107L18.5059 236.333C7.29062 229.479 17.391 224.117 17.391 224.117L68.9092 198.44C78.5996 195.932 78.9112 208.442 78.9112 208.442V239.711L54.7424 254.107ZM100.653 239.825C72.7787 270.831 61.3011 301.493 56.3821 322.76V256.911L126.412 215.165C117.224 222.739 108.609 230.981 100.637 239.825H100.653ZM136.972 204.901L82.1741 237.694V202.933C83.0103 199.457 86.0273 193.816 96.8163 193.767L130.888 196.604C143.842 197.424 136.955 204.901 136.955 204.901H136.972ZM152.352 171.779V182.962C150.712 191.816 143.202 193.8 137.939 193.948L101.653 190.865C92.3236 189.717 95.6849 185.618 96.8982 184.421L143.366 161.351C152.647 159.252 152.335 171.779 152.335 171.779H152.352ZM210.051 165.745L163.813 188.93C158.238 191.095 156.303 188.094 155.615 185.274V167.238C156.5 163.45 159.894 156.596 172.979 157.4L204.968 159.957H205.723L208.084 160.138C217.627 161.351 210.035 165.745 210.035 165.745H210.051ZM227.842 145.512V145.594C227.005 156.203 215.102 157.186 209.674 157.072L174.077 154.235C165.305 153.087 168.535 149.48 170.421 147.906L217.266 124.574C227.547 122.065 227.842 134.592 227.842 134.592V145.512ZM288.509 140.298C287.919 140.511 240.057 154.35 240.057 154.35C235.04 156.301 232.712 153.333 231.646 150.119C231.224 148.783 231.019 147.388 231.039 145.988V129.804C231.859 126.18 234.843 120.901 244.96 123.065L286.115 134.641C296.724 137.855 288.575 140.298 288.575 140.298H288.509ZM303.266 123.147C302.512 132.87 295.265 133.264 291.165 132.608L246.403 120.015C238.09 116.998 241.205 113.161 243.386 111.391L293.051 86.6481C303.348 84.0902 303.266 96.6828 303.266 96.6828V123.147ZM364.672 126L320.958 133.198C312.76 134.411 309.071 130.132 307.464 126.541C306.841 125.092 306.528 123.528 306.546 121.95V93.1412C307.283 90.157 309.94 85.5659 318.646 89.4356L365.77 118.572C374.395 123.508 364.77 126 364.77 126H364.672ZM378.789 110.276C378.888 119.327 374.1 119.179 370.919 117.9L319.646 86.189C312.563 80.1222 318.236 74.7114 320.302 73.0717L367.689 49.4606C378.592 46.2796 378.789 59.0362 378.789 59.0362V110.276ZM445.376 118.31L441.9 118.507H441.654C426.973 119.392 412.659 120.545 398.711 121.966L399.334 121.868L397.137 122.13L395.645 122.278C385.708 122.737 382.856 116.588 382.069 112.67V55.5437C382.708 52.7891 384.872 49.1982 391.136 55.1338L448.376 114.473L448.524 114.654C450.049 116.949 447.704 117.966 445.54 118.31H445.376ZM453.771 19.5859V110.358C453.771 113.457 452.131 113.161 450.983 112.456L391.841 51.133C386.692 43.6069 392.644 37.8025 395.12 35.8185L444.31 11.3384C447.409 10.371 454.673 9.10843 453.869 19.5859H453.771ZM677.421 116.424L666.894 111.177L677.421 116.424ZM457.05 111.637V15.831C457.723 12.5517 466.2 11.1908 466.2 11.1908L512.569 34.4412C512.569 34.4412 525.998 42.9019 517.111 53.0842L460.297 112.161C458.46 113.522 457.526 112.555 457.149 111.637H457.05ZM528.769 109.784C528.769 109.784 528.769 121.852 516.127 122.393C499.239 120.622 481.804 119.228 463.822 118.212C461.018 117.867 461.166 116.342 461.51 115.441L521.095 53.6744C528.474 48.0012 528.769 57.4457 528.769 57.4457V109.784ZM532.048 114.063V54.5271C532.786 51.0346 535.148 46.7879 542.559 49.3785L587.781 71.9075C588.325 72.1792 588.841 72.5032 589.322 72.8749C591.732 74.7933 597.996 80.9421 589.519 87.222L542.542 116.277C542.542 116.277 533.885 122.622 532.147 114.063H532.048ZM604.194 121.36C604.194 121.36 602.652 134.903 589.273 133.165C575.139 130.422 560.513 128.017 545.395 125.951C544.018 125.557 538.394 123.721 542.116 120.31L592.208 89.3371C603.685 84.8445 604.144 95.8958 604.144 95.8958L604.194 121.36ZM607.473 123.705V94.4693C608.211 90.5997 610.638 84.6313 618.951 87.4515L665.353 110.407C665.353 110.407 675.896 116.72 661.795 120.819L623.033 131.722L621.771 132.083C618.41 132.919 608.949 134.182 607.653 123.639L607.473 123.705ZM679.749 144.364C679.749 145.856 679.356 157.744 670.485 154.301L672.519 155.071C656.614 149.606 639.78 144.687 622.017 140.314H622.164C622.164 140.314 613.966 137.822 623.624 134.903L624.903 134.543L666.157 122.95C680.52 120.196 679.716 132.788 679.716 132.788L679.749 144.364ZM683.029 145.561V134.084C683.225 131.558 684.668 121.589 694.982 125.197L694.375 124.901L738.646 146.988C739.794 147.824 746.467 153.054 735.039 154.301L732.792 154.481L702.016 156.94C697.212 157.203 684.078 156.744 683.291 145.561H683.029ZM753.436 192.931L751.485 191.751L753.452 192.915L753.436 192.931ZM755.223 183.651C754.944 186.668 753.583 191.423 747.025 189.012C732.212 180.263 716.812 172.549 700.934 165.926L701.327 166.073C701.327 166.073 693.605 161.63 701.737 160.285L738.761 157.318C753.288 157.17 755.059 167.156 755.272 169.107L755.223 183.651ZM758.502 183.241V168.795C758.765 165.073 760.273 159.121 767.471 161.318L813.382 184.274C813.726 184.569 819.301 189.471 809.775 190.931L772.669 194.013C767.668 193.833 760.355 191.996 758.716 183.241H758.502ZM779.703 196.702L813.398 193.882C825.614 193.751 828.155 200.654 828.68 203.982V237.759L762.929 198.572L773.62 204.933C773.62 204.933 766.914 197.424 779.884 196.702H779.703ZM854.423 268.848V322.825C849.618 301.51 838.026 270.881 810.152 239.875C802.171 231.048 793.544 222.827 784.343 215.28L854.373 257.026L854.423 268.848ZM831.959 239.76V209.328C831.959 209.328 832.09 195.391 842.469 198.686L893.922 224.331C896.152 225.97 901.432 230.807 892.102 236.464L856.144 254.107L831.959 239.76ZM902.202 306.002H857.702V277.472C857.702 276.275 857.85 260.469 864.261 266.257L899.759 300.87C901.16 302.236 902.081 304.02 902.383 305.953L902.202 306.002ZM896.595 317.48L868.999 344.584C868.999 344.584 858.473 353.274 857.669 344.797V309.232H901.94C901.155 311.869 899.742 314.277 897.825 316.25L896.611 317.447L896.595 317.48ZM857.751 397.053V368.851C858.014 367.408 859.391 361.849 865.343 361.226H892.053C894.808 361.57 900.645 363.03 896.644 369.424L868.934 396.643L869.032 396.463C869.032 396.463 859.03 404.825 857.932 397.036L857.751 397.053ZM867.589 465.164H891.528C894.021 465.394 900.94 466.673 896.447 473.609L869.049 500.499V500.417C869.049 500.417 858.883 508.796 857.768 501.024V472.789C858.046 471.297 859.407 465.591 865.671 465.148H867.556L867.589 465.164ZM896.693 525.356L869.098 552.444L869.212 552.263C869.212 552.263 858.686 560.937 857.882 552.476V539.277V524.701C858.145 523.241 859.522 517.748 865.408 517.109H890.774C890.774 517.109 901.809 517.273 896.693 525.356ZM896.841 577.17L869.212 604.306C869.212 604.306 858.686 612.98 857.882 604.519V576.989C857.882 576.989 858.653 570.037 865.097 569.07H895.48C898.054 570.054 900.268 572.251 896.824 577.268L896.841 577.17ZM857.932 449.014V420.746C858.194 419.336 859.571 413.99 865.146 413.171H891.118C892.856 413.269 901.383 414.122 896.628 421.549L869.18 448.505C868.573 449.047 858.997 456.589 857.932 449.079V449.014ZM857.932 657.251V629.032C857.932 629.032 858.751 621.605 865.818 621.047H891.184C891.184 621.047 902.662 621.047 895.972 630.115L866.458 659.12C865.408 660.055 858.735 666.236 857.882 657.317L857.932 657.251ZM907.581 669.663H869.967C869.967 669.663 862.162 668.827 866.54 663.531L898.267 632.377C906.679 625.064 907.581 634.706 907.581 634.706V669.663ZM907.581 617.702H866.753C864.982 617.62 861.342 616.932 865.9 612.193L898.808 579.892C906.728 572.644 907.581 582.072 907.581 582.072V617.702ZM907.581 565.725H867.606C867.606 565.725 860.653 566.2 865.376 560.806L898.743 528.013C905.925 522.126 907.351 528.8 907.581 530.292V565.725ZM907.531 513.879H867.556C867.556 513.879 860.309 514.371 865.622 508.648L899.333 475.527C905.892 470.297 907.302 476.904 907.531 478.38V513.879ZM907.531 461.918H866.54C864.72 461.803 861.375 461.032 865.818 456.425L899.104 423.73C905.859 418.188 907.302 424.927 907.499 426.419L907.531 461.918ZM907.531 409.941H867.556C867.556 409.941 860.555 410.416 865.359 405.022L898.989 372.015C905.187 366.735 907.04 371.556 907.531 373.77V409.941ZM907.531 357.98H867.556C867.556 357.98 860.26 358.488 865.654 352.716L898.251 320.694C906.056 315.889 907.531 324.776 907.531 324.776V357.98ZM907.531 296.673C906.859 301.69 904.039 300.132 902.399 298.771L867.278 264.502C861.112 257.403 866.573 253.025 867.278 252.402L896.546 238.038C900.038 236.595 906.384 235.038 907.449 241.662L907.531 296.673Z" fill="#252424"/>
<path fill-rule="evenodd" clip-rule="evenodd" d="M831.005 266.182L832.978 270.286L188.278 580.306V671.831H183.725V577.443L831.005 266.182Z" fill="#252424"/>
<path fill-rule="evenodd" clip-rule="evenodd" d="M295.429 223.297L595.404 382.177V670.654H590.851V384.918L295.433 228.451L55.2832 356.141L53.1457 352.121L295.429 223.297Z" fill="#252424"/>
<path fill-rule="evenodd" clip-rule="evenodd" d="M216.594 375.093L404.784 473.952V670.655H400.231V476.704L216.594 380.236L54.0956 465.577L51.9786 461.546L216.594 375.093Z" fill="#252424"/>
<path fill-rule="evenodd" clip-rule="evenodd" d="M141.256 462.144L276.527 533.969V669.477H271.974V536.706L141.317 467.331L56.5048 514.966L54.2753 510.996L141.256 462.144Z" fill="#252424"/>
<path fill-rule="evenodd" clip-rule="evenodd" d="M103.535 533.904L187.042 576.85L184.96 580.899L103.732 539.125L53.0512 570.225L50.6699 566.344L103.535 533.904Z" fill="#252424"/>
</g>
<defs>
<clipPath id="clip0_1480_186781">
<rect width="910.604" height="672.025" fill="white" transform="translate(0.223633 0.982422)"/>
</clipPath>
</defs>
</svg>
