<svg width="329" height="160" viewBox="0 0 329 160" fill="none" xmlns="http://www.w3.org/2000/svg">
<path d="M220.67 0.191618L220.279 0L219.888 0.191618L111.692 54.0998V109.631L64.3731 87.6766L63.982 87.4967L63.5909 87.6766L53.8848 92.2129L53.1769 92.5453L44.2841 96.7024L43.6115 97.0152L0 117.417V160H328.885V54.0998L220.67 0.191618ZM104.43 107.292L108.692 109.287C108.892 109.42 110.573 110.632 108.383 112.321L102.928 115.79L102.893 108.114C103.085 106.952 104.215 107.226 104.43 107.292ZM102.107 108.176V108.387L102.138 115.759C99.4986 113.98 96.6727 112.494 93.7107 111.328L100.773 107.281C101.907 106.796 102.087 107.734 102.107 108.176ZM95.0677 102.905L100.347 105.376C101.196 105.814 100.23 106.678 100.148 106.749L93.4996 110.554L93.347 103.781C93.4174 102.455 94.7705 102.815 95.0521 102.905H95.0677ZM92.5727 103.937V103.964L92.7331 110.937C91.1532 110.335 89.4846 109.776 87.7274 109.259C86.6442 108.943 85.5609 108.649 84.4894 108.383L91.2392 103.3C92.4632 102.56 92.5493 103.742 92.5571 103.937H92.5727ZM85.6392 98.4934L90.6956 100.859C91.7632 101.618 90.7347 102.678 90.5861 102.815L84.0319 107.746L83.9928 99.1426C84.157 98.1923 85.2989 98.4074 85.6235 98.4934H85.6392ZM83.2146 99.5884L83.2498 108.086C80.3559 107.414 77.5559 106.913 75.0374 106.545L81.9983 99.3929C82.933 98.5834 83.152 99.2404 83.1989 99.5884H83.2146ZM74.5486 94.9778C74.5877 94.4146 74.8184 93.5113 75.9134 93.9414L81.4196 96.5146C82.4403 97.199 81.8106 98.3487 81.6933 98.5834L74.5525 105.916L74.5486 94.9778ZM73.7664 95.2828V106.369C69.5195 105.798 66.2033 105.587 64.772 105.54L72.7458 95.0051C72.9296 94.8487 73.5709 94.4146 73.7508 95.2828H73.7664ZM65.9452 89.28L71.8698 92.0526C72.167 92.2716 73.262 93.2258 72.1396 94.5085L64.3965 104.735V90.4179C64.4435 89.8353 64.7133 88.7677 65.9334 89.28H65.9452ZM56.2663 91.99H56.2429L61.8664 89.366C62.2574 89.2487 63.4306 89.0101 63.5949 90.2615V104.758L55.4216 94.1995C55.4216 94.1995 54.4753 92.7604 56.2546 91.99H56.2663ZM55.054 94.9778L63.2664 105.56C60.0623 105.779 57.0641 106.072 54.2719 106.44L54.0451 95.275C54.0881 94.9778 54.3227 94.223 55.0423 94.9778H55.054ZM45.9696 96.8001L51.0534 94.4264C51.2959 94.3247 53.0831 93.6442 53.2512 95.0599L53.4507 105.912L45.8327 98.2471C45.5512 97.8795 45.2657 97.2538 45.9579 96.8001H45.9696ZM45.8171 99.3772V99.3499L53.0244 106.604C50.0445 107.019 47.2914 107.511 44.7417 108.063L44.4992 99.9247C44.554 99.5415 44.7964 98.7828 45.8054 99.3655L45.8171 99.3772ZM36.6232 101.168L42.0981 98.6147C42.5361 98.4739 43.7562 98.2236 43.7366 99.8504L43.9713 107.742L37.0885 102.686C36.7835 102.455 35.8684 101.622 36.6114 101.168H36.6232ZM36.5919 103.3L43.459 108.36C40.6906 108.995 37.9583 109.778 35.274 110.706V103.812C35.274 103.644 35.5478 102.783 36.5802 103.3H36.5919ZM27.3276 105.513L32.8025 102.959C32.9354 102.912 34.5036 102.412 34.4919 103.785V110.566L27.4879 106.796C27.2455 106.628 26.5024 106.076 27.3159 105.513H27.3276ZM27.0616 107.433L33.9678 111.168C31.1287 112.206 28.386 113.491 25.7711 115.008L25.6851 108.286C25.7164 107.969 25.9158 106.937 27.0616 107.433V107.433ZM17.2655 110.218L23.1315 107.48C23.3896 107.406 24.7505 107.062 24.9069 108.262L24.9968 115.145L17.4063 111.578C17.285 111.488 16.2604 110.851 17.2538 110.218H17.2655ZM16.9996 112.228L24.508 115.747L13.5582 122.278L14.9973 113.499C14.9973 113.499 15.3532 111.723 16.9878 112.228H16.9996ZM19.5532 119.619C18.7972 120.329 18.0842 121.084 17.418 121.879C15.6493 123.95 14.2915 126.339 13.4174 128.918V123.275L19.5532 119.619ZM0.782128 121.574C0.832967 120.905 1.14973 118.375 3.0855 119.255L9.34253 121.918C10.2185 122.364 11.599 123.349 10.5157 124.785L3.12071 131.386L3.31233 131.175C3.31233 131.175 0.817336 133.353 0.793872 131.335L0.782128 121.574ZM9.95259 136.849L3.35534 143.458C3.35534 143.458 1.0637 145.359 0.786043 143.74V136.853C0.813417 136.528 1.04023 134.87 2.74136 134.714H8.7481C9.25649 134.753 11.204 135.007 9.9213 136.833L9.95259 136.849ZM10.6956 137.213C12.0213 136.348 12.5023 137.49 12.6118 137.842V146.587H2.98382C2.98382 146.587 1.27487 146.587 2.59276 145.327L10.6956 137.213ZM0.786043 156.301V149.175C0.825149 148.921 1.11454 147.564 2.50282 147.357H8.93972C9.16263 147.357 11.5403 147.416 10.0386 149.473L2.81567 156.652C2.81567 156.652 1.04023 158.119 0.786043 156.289V156.301ZM12.6236 159.23H3.52741C3.52741 159.23 1.76371 159.065 2.72182 157.861L3.28886 157.294L10.637 149.989C12.5023 148.507 12.6157 150.411 12.6157 150.411V159.112L12.6236 159.23ZM12.6236 132.712C12.5881 133.121 12.575 133.532 12.5844 133.943H2.4637C2.13912 133.9 1.83018 133.728 2.276 133.181L11.0984 125.301C12.5844 123.909 12.6236 125.981 12.6236 125.981V132.712ZM12.7096 122.509L3.48829 118.575C1.85755 117.675 3.21456 116.819 3.60954 116.619L12.6979 112.368C12.9286 112.298 14.356 111.911 14.2191 113.319L12.7096 122.509ZM79.6559 159.23H13.4057V132.891C13.7121 129.776 14.818 126.792 16.6163 124.229L79.6559 137.803V159.23ZM111.692 135.222V159.23H80.438V137.733L100.347 127.956L111.688 135.019L111.692 135.222ZM111.692 134.127L100.394 127.088L79.9961 137.084L17.1013 123.533C17.3906 123.142 17.6957 122.751 18.0281 122.36C23.327 116.037 35.6025 108.118 64.0016 106.303C64.3262 106.303 75.9095 106.62 87.4928 110.018C98.2041 113.147 111.097 119.666 111.692 132.809V134.127ZM111.692 122.047V128.054C110.656 124.534 108.618 121.351 105.63 118.563C106.139 118.805 106.647 119.04 107.144 119.271C108.622 119.955 110.143 120.663 111.692 121.57V122.047ZM111.692 120.663C110.249 119.846 108.841 119.196 107.472 118.563C106.104 117.929 104.735 117.276 103.296 116.471L108.618 113.108L108.845 112.963C109.545 112.54 111.61 111.43 111.692 113.072V120.663ZM309.324 48.1361V56.192L293.642 46.8456L296.192 48.3629C296.192 48.3629 294.55 46.5718 297.643 46.4076L305.679 45.735C308.593 45.6919 309.203 47.354 309.324 48.1361ZM292.594 39.7439C292.657 38.8561 293.017 37.4366 294.733 37.9606L305.683 43.4355C305.765 43.5059 307.095 44.6752 304.823 45.0232L295.973 45.7584C294.726 45.7271 292.985 45.2891 292.583 43.2009L292.594 39.7439ZM291.812 39.8182V43.2869C291.746 44.0065 291.421 45.1405 289.857 44.5657C286.324 42.4789 282.651 40.6391 278.864 39.0595L278.958 39.0947C278.958 39.0947 277.116 38.0349 279.056 37.7142L287.886 37.0064C291.331 36.9712 291.753 39.3372 291.812 39.8182ZM291.39 45.4964L290.924 45.2148L291.39 45.4964ZM274.574 31.4689C274.621 30.8667 274.965 28.489 277.425 29.3494L277.28 29.279L287.839 34.5466C288.113 34.7461 289.704 35.9935 286.979 36.2908L286.443 36.3338L279.103 36.9204C277.898 36.979 274.766 36.8695 274.558 34.2025L274.574 31.4689ZM273.792 31.1835V33.9209C273.792 34.2768 273.698 37.112 271.582 36.2908L272.067 36.4746C268.274 35.171 264.259 33.9978 260.023 32.955H260.058C260.058 32.955 258.102 32.3606 260.406 31.6645L260.711 31.5784L270.55 28.8136C273.976 28.1566 273.784 31.16 273.784 31.16L273.792 31.1835ZM273.217 27.2728L270.706 26.0214L273.217 27.2728ZM256.554 22.0365C256.73 21.1136 257.309 19.6901 259.291 20.3627L270.358 25.8376C270.358 25.8376 272.873 27.3432 269.51 28.3209L260.265 30.9214L259.964 31.0075C259.139 31.2069 256.882 31.508 256.573 29.0091L256.554 22.0365ZM255.772 22.3923V28.4499C255.772 28.4499 255.404 31.6801 252.213 31.2656C248.842 30.6112 245.354 30.0376 241.748 29.5449C241.42 29.451 240.078 29.013 240.966 28.1996L252.913 20.8124C255.658 19.7214 255.783 22.3728 255.783 22.3728L255.772 22.3923ZM238.565 12.5101C238.741 11.6772 239.304 10.6643 241.072 11.2822L251.857 16.6554C251.987 16.7202 252.11 16.7975 252.225 16.8861C252.8 17.3437 254.293 18.8102 252.272 20.308L241.068 27.2376C241.068 27.2376 238.979 28.751 238.565 26.7097V12.5101ZM237.783 13.2062V25.689C237.783 25.689 237.783 28.5672 234.768 28.6963C230.74 28.2739 226.581 27.9415 222.293 27.6991C221.624 27.6169 221.659 27.2533 221.741 27.0382L235.953 12.3068C237.704 10.9342 237.775 13.1867 237.775 13.1867L237.783 13.2062ZM220.678 3.28102C220.838 2.49889 222.86 2.17432 222.86 2.17432L233.919 7.7196C233.919 7.7196 237.122 9.73749 235.002 12.166L221.421 26.2365C220.998 26.5611 220.775 26.3303 220.685 26.1114L220.678 3.28102ZM205.923 8.0481L217.655 2.20951C218.366 1.97878 220.099 1.67766 219.907 4.16483V25.8063C219.907 26.5454 219.516 26.475 219.242 26.3069L205.137 11.6811C203.889 9.8861 205.309 8.50174 205.915 8.02855L205.923 8.0481ZM202.794 12.7409C202.947 12.0839 203.463 11.2274 204.957 12.6431L218.609 26.7957L218.644 26.8387C218.984 27.3862 218.425 27.6209 217.893 27.7108L217.064 27.7577H217.005C213.504 27.9689 210.09 28.244 206.763 28.5829L206.912 28.5594L206.388 28.622L206.032 28.6572C203.662 28.7667 202.982 27.3002 202.794 26.3655V12.7409ZM188.063 16.9331L199.365 11.3018C201.965 10.5431 202.012 13.5856 202.012 13.5856V25.7946C202.036 27.9533 200.894 27.9181 200.135 27.613L187.906 20.0499C186.225 18.5951 187.562 17.3124 188.055 16.9253L188.063 16.9331ZM184.782 21.708C184.958 20.9962 185.591 19.9013 187.668 20.8242L198.907 27.7734C200.941 28.9466 198.645 29.5449 198.645 29.5449L188.219 31.2617C186.264 31.5511 185.384 30.5304 185.001 29.674C184.852 29.3282 184.778 28.9552 184.782 28.579V21.708ZM169.718 26.0762L181.563 20.175C184.019 19.5649 184 22.5683 184 22.5683V28.8801C183.82 31.1991 182.091 31.293 181.114 31.1365L170.438 28.1332C168.447 27.4097 169.19 26.4907 169.71 26.0683L169.718 26.0762ZM166.765 30.4522C166.961 29.5879 167.673 28.3287 170.086 28.8449L179.901 31.6058C182.416 32.3879 180.472 32.955 180.472 32.955C180.331 33.0058 168.916 36.3064 168.916 36.3064C167.72 36.7718 167.164 36.0639 166.91 35.2975C166.81 34.9788 166.761 34.6461 166.765 34.312V30.4522ZM152.296 34.7539L163.469 29.189C165.921 28.5907 165.991 31.5784 165.991 31.5784V34.2142C165.792 36.7444 162.953 36.979 161.658 36.9517L153.168 36.2751C151.06 35.9857 151.831 35.1254 152.28 34.75L152.296 34.7539ZM148.776 39.3723C148.988 38.469 149.797 36.8343 152.918 37.026L160.548 37.636H160.727L161.291 37.679C163.578 37.9489 161.752 39.0047 161.752 39.0047L150.724 44.5344C149.394 45.0506 148.933 44.3349 148.769 43.6623L148.776 39.3723ZM134.772 43.4902L145.832 37.9684C148.045 37.4718 147.971 40.4595 147.971 40.4595V43.1266C147.58 45.2383 145.789 45.7115 144.533 45.7467L135.883 45.0076C133.658 44.7495 134.46 43.7718 134.749 43.4863L134.772 43.4902ZM131.253 47.9014C131.452 47.0724 132.172 45.7271 134.745 45.7154L142.871 46.3919C145.965 46.5601 144.322 48.3473 144.322 48.3473L131.253 56.1686V47.9014ZM141.812 50.8071C139.618 52.6081 137.561 54.5688 135.656 56.673C129.008 64.068 126.271 71.3809 125.098 76.4531V60.7596L141.812 50.8071ZM112.482 57.2362C112.728 55.4568 114.41 55.9652 115.219 56.3093L120.401 58.8512C120.98 59.2814 123.107 61.0217 121.965 62.6837L114.703 69.7619C112.838 70.9351 112.49 68.796 112.49 68.796L112.482 57.2362ZM112.482 75.491C112.646 74.2514 113.358 74.6893 113.737 75.0218L122.755 83.8755C123.439 84.7162 122.458 84.8375 122.18 84.857H112.482V75.491ZM112.482 122.028V113.776C112.517 113.502 112.482 111.359 114.3 112.752L122.759 121.058C123.467 121.93 122.368 122.024 122.149 122.035L112.482 122.028ZM113.131 122.81L113.072 122.837L113.045 122.81H113.131ZM121.684 118.899L115.196 112.529C114.109 111.011 114.946 110.55 115.657 110.421H122.517C123.877 110.601 124.233 111.942 124.308 112.345V119.2C124.006 120.8 121.676 118.919 121.676 118.919L121.684 118.899ZM121.684 106.514L115.172 100.12C113.964 98.3957 115.254 98.0789 115.974 98.0242H122.454C123.858 98.1767 124.222 99.5493 124.3 99.956V106.796C124.014 108.36 121.824 106.631 121.699 106.518L121.684 106.514ZM121.719 94.1565L115.196 87.7509C114.023 86.128 115.055 85.7291 115.794 85.6352H122.505C123.866 85.819 124.222 87.1565 124.296 87.5593V94.4224C124.046 95.8889 122.036 94.4068 121.719 94.1604V94.1565ZM112.474 89.0375C112.474 89.0375 112.697 86.5269 114.468 88.1341L122.724 96.237C123.396 97.0191 122.61 97.2068 122.254 97.242H112.478L112.474 89.0375ZM113.1 98.032L113.057 98.0515V98.032H113.1ZM112.474 101.458C112.474 101.458 112.716 98.7203 114.695 100.769L122.743 108.669C123.428 109.51 122.446 109.635 122.168 109.654H112.47L112.474 101.458ZM112.474 126.255C112.474 126.255 112.716 123.518 114.695 125.567L122.517 133.251C123.424 134.135 122.771 134.381 122.36 134.424H112.474V126.255ZM113.072 135.214H113.049H113.072ZM112.474 138.628C112.474 138.628 112.716 135.891 114.695 137.94L122.751 145.851C123.459 146.723 122.36 146.817 122.141 146.829H114.797C114.258 146.886 113.718 146.736 113.287 146.409C112.855 146.082 112.564 145.603 112.474 145.069V138.628ZM121.257 159.222H112.474V150.137C112.724 148.647 114.124 149.793 114.652 150.286L114.852 150.482L121.699 157.188L122.192 157.673C123.263 158.96 121.281 159.198 121.257 159.218V159.222ZM124.311 156.226C124.089 158.369 122.172 156.578 122.172 156.578L113.878 148.413C113.659 148.151 113.459 147.728 114.363 147.607H122.52C123.979 147.811 124.276 149.351 124.311 149.609V156.226ZM124.311 143.912C124.089 145.656 121.676 143.697 121.676 143.697L115.2 137.338C114.027 135.688 115.098 135.3 115.837 135.214H121.946C122.055 135.209 122.165 135.209 122.274 135.214H122.333C123.96 135.304 124.288 136.974 124.311 137.24V143.912ZM124.311 131.542C124.116 133.06 122.27 131.777 121.789 131.413L115.141 124.894C113.577 122.634 116.385 122.825 116.385 122.825H122.52C123.87 123.013 124.225 124.347 124.3 124.749V128.128L124.311 131.542ZM124.311 81.9397C124.093 83.6291 121.832 81.8536 121.684 81.7324L114.289 74.4743C113.964 74.1381 113.757 73.706 113.698 73.2424H124.311V81.9397ZM124.311 72.4603H113.753C113.944 71.8336 114.283 71.2622 114.742 70.7944L115.028 70.5167L122.481 63.239C123.975 61.8976 124.249 63.1764 124.3 63.6301L124.311 72.4603ZM124.703 60.0948L116.06 55.8557C113.385 54.221 115.794 52.9423 115.794 52.9423L128.081 46.8182C130.393 46.2199 130.467 49.2037 130.467 49.2037V56.6613L124.703 60.0948ZM155.988 159.222H125.094V135.038L136.407 127.976L155.96 137.428L155.988 159.222ZM136.372 127.088L125.105 134.127V122.395L145.14 111.559L176.554 127.061L156.379 136.755L136.372 127.088ZM177.043 159.222H156.758V137.428L177.043 127.679V159.222ZM145.108 110.671L125.094 121.5V110.198L163.254 89.8118L206.998 112.415L177.438 126.623L145.108 110.671ZM207.487 159.218H177.825V127.303L207.487 113.053V159.218ZM163.25 88.928L125.094 109.31V84.6732L182.518 54.0021L252.815 90.3945L207.882 111.989L163.25 88.928ZM253.292 159.218H208.269V112.662L253.292 91.0358V159.218ZM182.705 53.2199L182.521 53.1261L125.094 83.7933V81.9944C125.254 78.51 126.568 67.9513 136.243 57.1814C146.837 45.3947 170.011 30.8276 220.279 28.3561C270.546 30.8276 293.724 45.3947 304.314 57.1814C306.058 59.119 307.642 61.1945 309.05 63.3876L253.699 89.98L182.705 53.2199ZM315.475 84.857V159.218H254.078V90.6604L309.473 64.0407C314.506 72.1826 315.339 79.2922 315.468 82.0296L315.475 84.857ZM315.475 63.5988V76.4726C314.33 71.3888 311.565 64.0837 304.917 56.6887C303.013 54.5834 300.956 52.6227 298.761 50.8227L315.464 60.7792L315.475 63.5988ZM310.118 56.6613V49.411C310.118 49.411 310.149 46.0869 312.625 46.8729L324.896 52.9892C325.428 53.3803 326.687 54.5339 324.462 55.8831L315.886 60.0909L310.118 56.6613ZM326.871 72.4603H316.258V65.6636C316.258 65.3781 316.293 61.6083 317.822 62.9887L326.288 71.2441C326.602 71.5774 326.802 72.0019 326.859 72.4564L326.871 72.4603ZM325.534 75.1977L318.952 81.662C318.952 81.662 316.441 83.7347 316.25 81.7129V73.2385H326.808C326.621 73.8674 326.284 74.4417 325.827 74.9123L325.538 75.1977H325.534ZM316.269 94.1761V87.4498C316.332 87.1056 316.66 85.7799 318.08 85.6313H324.45C325.107 85.7135 326.5 86.0615 325.545 87.5866L318.936 94.0783L318.96 94.0353C318.96 94.0353 316.52 96.0375 316.258 94.18L316.269 94.1761ZM318.616 110.421H324.325C324.92 110.476 326.57 110.781 325.498 112.435L318.964 118.848V118.829C318.964 118.829 316.539 120.827 316.273 118.973V112.247C316.34 111.891 316.664 110.53 318.158 110.425H318.608L318.616 110.421ZM325.502 124.785L318.921 131.245L318.948 131.202C318.948 131.202 316.437 133.271 316.246 131.253V128.105V124.628C316.308 124.28 316.637 122.97 318.041 122.818H324.091C324.091 122.818 326.722 122.857 325.502 124.785ZM325.538 137.142L318.948 143.614C318.948 143.614 316.437 145.683 316.246 143.665V137.099C316.246 137.099 316.43 135.441 317.967 135.21H325.213C325.827 135.445 326.355 135.969 325.534 137.166L325.538 137.142ZM316.258 106.577V99.8348C316.32 99.4985 316.649 98.2236 317.978 98.0281H324.173C324.587 98.0515 326.621 98.2549 325.487 100.026L318.94 106.455C318.796 106.585 316.512 108.383 316.258 106.592V106.577ZM316.258 156.242V149.512C316.258 149.512 316.453 147.74 318.139 147.607H324.188C324.188 147.607 326.926 147.607 325.33 149.77L318.291 156.688C318.041 156.911 316.449 158.385 316.246 156.258L316.258 156.242ZM328.099 159.202H319.128C319.128 159.202 317.267 159.003 318.311 157.74L325.878 150.309C327.884 148.565 328.099 150.865 328.099 150.865V159.202ZM328.099 146.809H318.361C317.939 146.79 317.071 146.626 318.158 145.495L326.007 137.791C327.896 136.063 328.099 138.312 328.099 138.312V146.809ZM328.099 134.413H318.565C318.565 134.413 316.907 134.526 318.033 133.239L325.991 125.418C327.704 124.014 328.044 125.606 328.099 125.962V134.413ZM328.087 122.047H318.553C318.553 122.047 316.825 122.165 318.092 120.8L326.132 112.9C327.696 111.653 328.033 113.229 328.087 113.581V122.047ZM328.087 109.654H318.311C317.877 109.627 317.079 109.443 318.139 108.344L326.077 100.547C327.688 99.2247 328.032 100.832 328.079 101.188L328.087 109.654ZM328.087 97.2577H318.553C318.553 97.2577 316.883 97.3711 318.029 96.0845L326.05 88.2124C327.528 86.9531 327.97 88.1028 328.087 88.6308V97.2577ZM328.087 84.8648H318.553C318.553 84.8648 316.813 84.9861 318.099 83.6095L325.874 75.972C327.735 74.8262 328.087 76.9458 328.087 76.9458V84.8648ZM328.087 70.2429C327.927 71.4396 327.254 71.0681 326.863 70.7435L318.487 62.5703C317.016 60.877 318.318 59.8328 318.487 59.6842L325.467 56.2585C326.3 55.9144 327.813 55.5429 328.068 57.1228L328.087 70.2429Z" fill="#9B9B9B"/>
</svg>
