<svg width="1005" height="487" viewBox="0 0 1005 487" fill="none" xmlns="http://www.w3.org/2000/svg">
<g opacity="0.5">
<mask id="mask0_575_146962" style="mask-type:alpha" maskUnits="userSpaceOnUse" x="0" y="0" width="1005" height="487">
<rect width="1005" height="486.858" fill="#D9D9D9"/>
</mask>
<g mask="url(#mask0_575_146962)">
<g clip-path="url(#clip0_575_146962)">
<path d="M679.931 9.28709L678.756 8.71143L677.582 9.28709L352.537 171.24V489.388H392.799V255.041C393.281 244.573 397.228 212.853 426.294 180.497C458.121 145.088 527.742 101.325 678.756 93.8995C829.771 101.325 899.404 145.088 931.219 180.497C935.92 185.709 940.239 191.253 944.142 197.086C944.225 197.18 944.389 197.415 944.46 197.521C945.297 198.659 946.051 199.857 946.715 201.104C961.836 225.564 964.338 246.923 964.726 255.147V489.388H1005V171.24L679.931 9.28709ZM354.887 180.65C355.627 175.305 360.679 176.832 363.111 177.866L378.677 185.502C380.416 186.795 386.807 192.023 383.377 197.016L361.56 218.28C355.956 221.805 354.91 215.379 354.91 215.379L354.887 180.65ZM354.887 235.492C355.38 231.768 357.518 233.083 358.658 234.082L385.75 260.681C387.806 263.206 384.857 263.571 384.023 263.629H354.887V235.492ZM354.887 375.299V350.521C354.993 349.699 354.887 343.26 360.35 347.443L385.762 372.397C387.888 375.017 384.587 375.298 383.929 375.334L354.887 375.299ZM356.837 377.648L356.661 377.73L356.579 377.648H356.837ZM382.531 365.9L363.04 346.762C359.774 342.203 362.288 340.817 364.427 340.429H385.033C389.122 340.97 390.191 344.999 390.414 346.209V366.804C389.533 371.621 382.531 365.97 382.531 365.97V365.9ZM382.531 328.692L362.97 309.484C359.339 304.303 363.217 303.351 365.378 303.186H384.845C389.063 303.645 390.156 307.768 390.391 308.99V329.55C389.557 334.249 382.977 329.057 382.601 328.716L382.531 328.692ZM382.637 291.567L363.04 272.323C359.516 267.448 362.617 266.249 364.838 265.967H384.998C389.087 266.52 390.156 270.538 390.379 271.748V292.366C389.651 296.784 383.612 292.331 382.66 291.591L382.637 291.567ZM354.863 276.189C354.863 276.189 355.533 268.646 360.855 273.475L385.68 297.829C387.7 300.179 385.339 300.743 384.27 300.849H354.899L354.863 276.189ZM356.743 303.21L356.614 303.269V303.21H356.743ZM354.863 313.502C354.863 313.502 355.592 305.278 361.536 311.434L385.715 335.166C387.771 337.692 384.822 338.068 383.988 338.126H354.852L354.863 313.502ZM354.863 387.999C354.863 387.999 355.592 379.775 361.536 385.931L385.033 409.017C387.759 411.672 385.797 412.412 384.563 412.541H354.887L354.863 387.999ZM356.661 414.914H356.59H356.661ZM354.863 425.171C354.863 425.171 355.592 416.947 361.536 423.103L385.738 446.87C387.865 449.49 384.563 449.772 383.905 449.807H361.865C360.248 449.98 358.625 449.529 357.329 448.546C356.032 447.564 355.159 446.124 354.887 444.52L354.863 425.171ZM381.25 487.038H354.887V459.758C355.639 455.282 359.845 458.724 361.431 460.205L362.03 460.792L382.601 480.941L384.082 482.397C387.301 486.263 381.344 486.979 381.274 487.038H381.25ZM390.426 478.039C389.756 484.477 384 479.096 384 479.096L359.105 454.577C358.447 453.79 357.847 452.521 360.561 452.157H385.069C389.451 452.768 390.344 457.397 390.449 458.172L390.426 478.039ZM390.426 441.043C389.756 446.283 382.507 440.397 382.507 440.397L363.052 421.294C359.527 416.336 362.747 415.173 364.967 414.914H383.318C383.647 414.897 383.976 414.897 384.305 414.914H384.481C389.369 415.185 390.355 420.201 390.426 421V441.043ZM390.426 403.883C389.838 408.441 384.293 404.587 382.848 403.495L362.876 383.91C358.176 377.12 366.612 377.695 366.612 377.695H385.069C389.122 378.259 390.191 382.265 390.414 383.475V393.626L390.426 403.883ZM390.426 254.865C389.768 259.94 382.977 254.607 382.531 254.242L360.315 232.437C359.34 231.427 358.717 230.129 358.541 228.737H390.426V254.865ZM390.426 226.387H358.705C359.28 224.504 360.299 222.788 361.677 221.382L362.535 220.548L384.951 198.696C389.439 194.666 390.261 198.508 390.414 199.871L390.426 226.387ZM391.601 189.238L365.637 176.503C357.601 171.592 364.838 167.75 364.838 167.75L401.751 149.352C408.695 147.555 408.918 156.519 408.918 156.519V178.923L391.601 189.238ZM424.496 179.005C404.524 201.222 396.3 223.191 392.776 238.429V191.247L442.953 161.336C436.37 166.762 430.197 172.668 424.485 179.005H424.496ZM450.519 153.981L411.256 177.478V152.571C411.855 150.081 414.017 146.039 421.747 146.004L446.161 148.036C455.442 148.624 450.507 153.981 450.507 153.981H450.519ZM461.539 130.249V138.262C460.364 144.606 454.984 146.027 451.212 146.133L425.213 143.924C418.528 143.102 420.937 140.165 421.806 139.307L455.101 122.777C461.751 121.273 461.528 130.249 461.528 130.249H461.539ZM502.882 125.926L469.751 142.538C465.757 144.089 464.371 141.939 463.877 139.918V126.995C464.512 124.281 466.944 119.37 476.319 119.946L499.24 121.779H499.781L501.472 121.908C508.31 122.777 502.87 125.926 502.87 125.926H502.882ZM515.629 111.428V111.487C515.03 119.088 506.501 119.793 502.612 119.711L477.106 117.678C470.821 116.856 473.135 114.271 474.486 113.143L508.051 96.4254C515.418 94.6279 515.629 103.604 515.629 103.604V111.428ZM559.098 107.692C558.676 107.845 524.382 117.761 524.382 117.761C520.787 119.159 519.118 117.032 518.355 114.729C518.053 113.772 517.906 112.773 517.92 111.769V100.173C518.508 97.5768 520.646 93.7937 527.895 95.3445L557.383 103.639C564.984 105.942 559.145 107.692 559.145 107.692H559.098ZM569.672 95.4033C569.132 102.37 563.939 102.652 561.002 102.182L528.928 93.1593C522.972 90.9976 525.204 88.2485 526.767 86.9796L562.353 69.2512C569.731 67.4185 569.672 76.4413 569.672 76.4413V95.4033ZM613.67 97.4475L582.349 102.605C576.474 103.474 573.831 100.408 572.68 97.8352C572.233 96.7965 572.009 95.676 572.022 94.5456V73.9036C572.55 71.7654 574.454 68.4758 580.692 71.2485L614.457 92.1255C620.637 95.6618 613.741 97.4475 613.741 97.4475H613.67ZM623.785 86.1808C623.856 92.6659 620.425 92.5602 618.146 91.6438L581.409 68.9223C576.333 64.5753 580.398 60.6983 581.879 59.5235L615.832 42.6057C623.645 40.3265 623.785 49.4668 623.785 49.4668V86.1808ZM671.496 91.9375L669.005 92.0785H668.829C658.31 92.7129 648.054 93.5392 638.06 94.5574L638.506 94.4869L636.932 94.6749L635.863 94.7806C628.743 95.1096 626.699 90.7039 626.135 87.896V46.9644C626.593 44.9907 628.144 42.4177 632.632 46.6707L673.646 89.1884L673.752 89.3176C674.844 90.9624 673.164 91.6908 671.613 91.9375H671.496ZM677.511 21.2V86.2395C677.511 88.4599 676.336 88.2485 675.514 87.7433L633.137 43.8041C629.448 38.4115 633.713 34.2526 635.487 32.831L670.732 15.2906C672.953 14.5974 678.157 13.6928 677.582 21.2H677.511ZM837.76 90.5864L830.218 86.8269L837.76 90.5864ZM679.861 87.1559V18.5096C680.343 16.1599 686.416 15.1848 686.416 15.1848L719.641 31.8441C719.641 31.8441 729.263 37.9063 722.895 45.2021L682.187 87.5318C680.871 88.5069 680.201 87.8138 679.931 87.1559H679.861ZM731.249 85.8283C731.249 85.8283 731.249 94.4751 722.191 94.8628C710.09 93.594 697.597 92.5954 684.713 91.867C682.704 91.6203 682.81 90.5277 683.056 89.8815L725.75 45.6251C731.037 41.5601 731.249 48.3272 731.249 48.3272V85.8283ZM733.598 88.8946V46.236C734.127 43.7336 735.819 40.6907 741.129 42.547L773.531 58.6894C773.921 58.884 774.291 59.1162 774.636 59.3825C776.363 60.7571 780.851 65.1628 774.777 69.6624L741.117 90.4807C741.117 90.4807 734.914 95.0273 733.669 88.8946H733.598ZM785.291 94.1227C785.291 94.1227 784.187 103.827 774.6 102.582C764.473 100.616 753.994 98.8926 743.162 97.4123C742.175 97.1303 738.145 95.8145 740.812 93.3708L776.703 71.178C784.927 67.9589 785.256 75.8773 785.256 75.8773L785.291 94.1227ZM787.641 95.8027V74.8552C788.17 72.0826 789.909 67.8062 795.865 69.8269L829.113 86.2747C829.113 86.2747 836.667 90.7979 826.564 93.735L798.79 101.548L797.886 101.806C795.477 102.405 788.699 103.31 787.77 95.7557L787.641 95.8027ZM839.428 110.606C839.428 111.675 839.146 120.193 832.79 117.725L834.247 118.278C822.851 114.361 810.79 110.837 798.062 107.704H798.168C798.168 107.704 792.294 105.918 799.213 103.827L800.13 103.568L829.689 95.2623C839.981 93.2885 839.405 102.311 839.405 102.311L839.428 110.606ZM841.778 111.463V103.24C841.919 101.43 842.953 94.2872 850.343 96.8719L849.908 96.6604L881.629 112.486C882.451 113.085 887.233 116.832 879.044 117.725L877.435 117.855L855.383 119.617C851.94 119.805 842.53 119.476 841.966 111.463H841.778ZM892.226 145.405L890.828 144.559L892.238 145.393L892.226 145.405ZM893.506 138.755C893.307 140.917 892.332 144.324 887.632 142.597C877.019 136.328 865.984 130.801 854.607 126.055L854.889 126.161C854.889 126.161 849.356 122.977 855.183 122.014L881.711 119.887C892.12 119.781 893.389 126.936 893.542 128.334L893.506 138.755ZM895.856 138.461V128.111C896.044 125.444 897.125 121.179 902.283 122.754L935.178 139.202C935.425 139.413 939.419 142.926 932.594 143.971L906.007 146.18C902.424 146.051 897.184 144.735 896.009 138.461H895.856ZM911.047 148.107L935.19 146.086C943.943 145.992 945.764 150.938 946.14 153.323V177.525L899.028 149.446L906.688 154.005C906.688 154.005 901.883 148.624 911.176 148.107H911.047ZM964.585 199.8V238.476C961.142 223.203 952.836 201.257 932.864 179.041C927.145 172.716 920.964 166.826 914.372 161.418L964.549 191.329L964.585 199.8ZM948.489 178.958V157.153C948.489 157.153 948.583 147.167 956.02 149.528L992.887 167.903C994.484 169.078 998.267 172.544 991.583 176.597L965.818 189.238L948.489 178.958ZM998.82 226.422H966.934V205.98C966.934 205.122 967.04 193.797 971.634 197.944L997.069 222.745C998.073 223.724 998.732 225.002 998.949 226.387L998.82 226.422ZM994.802 234.646L975.029 254.066C975.029 254.066 967.486 260.293 966.911 254.219V228.737H998.632C998.069 230.626 997.057 232.351 995.683 233.765L994.813 234.623L994.802 234.646ZM966.97 291.661V271.454C967.158 270.42 968.144 266.437 972.409 265.991H991.547C993.521 266.238 997.703 267.283 994.837 271.865L974.982 291.368L975.053 291.238C975.053 291.238 967.886 297.23 967.099 291.65L966.97 291.661ZM974.019 340.464H991.171C992.957 340.629 997.915 341.545 994.696 346.515L975.064 365.782V365.724C975.064 365.724 967.78 371.727 966.981 366.158V345.927C967.181 344.858 968.156 340.77 972.644 340.453H973.995L974.019 340.464ZM994.872 383.593L975.099 403.001L975.182 402.872C975.182 402.872 967.639 409.087 967.064 403.025V393.567V383.123C967.252 382.077 968.238 378.142 972.456 377.683H990.631C990.631 377.683 998.538 377.801 994.872 383.593ZM994.978 420.718L975.182 440.162C975.182 440.162 967.639 446.377 967.064 440.315V420.589C967.064 420.589 967.616 415.607 972.233 414.914H994.003C995.847 415.619 997.433 417.193 994.966 420.789L994.978 420.718ZM967.099 328.892V308.638C967.287 307.627 968.274 303.797 972.268 303.21H990.878C992.123 303.28 998.232 303.891 994.825 309.213L975.158 328.528C974.724 328.916 967.862 334.32 967.099 328.939V328.892ZM967.099 478.098V457.878C967.099 457.878 967.686 452.556 972.75 452.157H990.925C990.925 452.157 999.149 452.157 994.355 458.654L973.208 479.437C972.456 480.107 967.674 484.536 967.064 478.145L967.099 478.098ZM1002.67 486.991H975.722C975.722 486.991 970.13 486.392 973.267 482.597L996 460.275C1002.03 455.035 1002.67 461.943 1002.67 461.943V486.991ZM1002.67 449.76H973.419C972.151 449.702 969.542 449.208 972.809 445.813L996.388 422.668C1002.06 417.475 1002.67 424.231 1002.67 424.231V449.76ZM1002.67 412.518H974.03C974.03 412.518 969.049 412.858 972.433 408.993L996.341 385.496C1001.49 381.278 1002.51 386.06 1002.67 387.129V412.518ZM1002.64 375.369H973.995C973.995 375.369 968.802 375.721 972.609 371.621L996.764 347.889C1001.46 344.142 1002.47 348.876 1002.64 349.934V375.369ZM1002.64 338.138H973.267C971.963 338.056 969.566 337.504 972.75 334.202L996.599 310.776C1001.44 306.805 1002.47 311.634 1002.61 312.703L1002.64 338.138ZM1002.64 300.896H973.995C973.995 300.896 968.979 301.236 972.421 297.371L996.517 273.721C1000.96 269.938 1002.29 273.392 1002.64 274.978V300.896ZM1002.64 263.665H973.995C973.995 263.665 968.767 264.029 972.632 259.893L995.988 236.949C1001.58 233.506 1002.64 239.874 1002.64 239.874V263.665ZM1002.64 219.737C1002.16 223.332 1000.14 222.216 998.961 221.241L973.795 196.687C969.378 191.6 973.29 188.463 973.795 188.016L994.766 177.725C997.269 176.691 1001.82 175.575 1002.58 180.321L1002.64 219.737Z" fill="#DDDDDD"/>
<path d="M948.512 199.36L485.649 421.939V488.544" stroke="#DDDDDD" stroke-width="5"/>
<path d="M777.362 487.701V281.984L564.058 169.009L391.222 260.907" stroke="#DDDDDD" stroke-width="5"/>
<path d="M640.779 487.702V347.747L507.569 277.769L390.378 339.316" stroke="#DDDDDD" stroke-width="5"/>
<path d="M548.881 486.858V390.744L453.611 340.158L392.064 374.726" stroke="#DDDDDD" stroke-width="5"/>
<path d="M485.649 421.939L426.632 391.588L389.536 414.351" stroke="#DDDDDD" stroke-width="5"/>
</g>
<g clip-path="url(#clip1_575_146962)">
<path d="M353.19 388.142V339.63L350.84 338.458L208.655 272.657L207.48 272.117L206.305 272.657L177.152 286.253L175.025 287.249L148.292 299.708L146.282 300.646L15.1792 361.759V489.387H55.9896C55.7317 488.634 55.6123 487.839 55.6371 487.043H55.4608V408.15C56.3739 398.808 59.6932 389.861 65.0964 382.177H65.214C65.5024 381.354 65.9815 380.611 66.6123 380.008C67.4584 378.836 68.3631 377.664 69.3502 376.492C85.2607 357.539 122.146 333.804 207.492 328.366C208.467 328.366 243.273 329.315 278.079 339.501C310.264 348.877 348.995 368.416 350.781 407.81V411.748C350.907 412.636 350.855 413.541 350.628 414.409L350.805 414.526V486.996H350.24C350.495 487.751 350.61 488.545 350.581 489.341H353.166V486.996V459.827V425.344C353.164 425.313 353.164 425.282 353.166 425.251V412.745V388.236C353.171 388.204 353.179 388.173 353.19 388.142ZM17.5763 374.183C17.7173 372.179 18.6692 364.595 24.4858 367.232L43.287 375.214C45.9309 376.55 50.0672 379.504 46.8122 383.806L24.5916 403.591L25.1673 402.958C25.1673 402.958 17.6704 409.486 17.5999 403.438L17.5763 374.183ZM45.1319 419.965L25.3084 439.773C25.3084 439.773 18.4224 445.481 17.5763 440.617V420.012C17.6586 419.05 18.3401 414.069 23.5105 413.612H41.5479C43.0873 413.717 48.9274 414.479 45.0731 419.953L45.1319 419.965ZM47.3528 421.055C51.3481 418.464 52.7816 421.899 53.1106 422.942V449.15H24.192C24.192 449.15 19.0569 449.15 23.0169 445.375L47.3528 421.055ZM17.5763 478.264V456.991C17.7056 456.229 18.5634 452.174 22.7467 451.541H42.0767C42.7583 451.541 49.891 451.716 45.3787 457.882L23.6867 479.354C23.6867 479.354 18.3519 483.761 17.5763 478.264ZM53.1577 487.043H25.8136C25.8136 487.043 20.5258 486.551 23.393 482.941L25.1086 481.241L47.1883 459.335C52.7934 454.905 53.0636 460.601 53.0636 460.601V486.68L53.1577 487.043ZM53.1577 407.564C53.0594 408.8 53.028 410.04 53.0636 411.279H22.6527C21.6774 411.139 20.7608 410.623 22.1004 408.935L48.6101 385.318C53.0754 381.145 53.1811 387.357 53.1811 387.357V407.529L53.1577 407.564ZM53.4162 376.984L25.6961 365.193C20.7961 362.497 24.8736 359.93 26.0604 359.332L53.3809 346.592C54.0742 346.381 58.3515 345.221 57.9519 349.44L53.4162 376.984ZM67.5171 375.132C62.2053 381.339 58.1294 388.5 55.5078 396.23V379.317L73.933 368.358C71.6642 370.49 69.5219 372.752 67.5171 375.132ZM55.8956 376.304L60.2316 349.991C60.2316 349.991 61.4067 344.646 66.2715 346.158L88.833 356.707L55.8956 376.304ZM67.4936 344.142C67.1646 343.943 64.0858 342.032 67.0705 340.134L84.6967 331.929C85.4722 331.706 89.5615 330.675 90.0316 334.273L90.3018 354.902L67.4936 344.142ZM92.6637 354.492L92.3934 334.344C92.4992 333.359 93.0985 330.3 96.5062 331.788L117.258 342.982C108.737 346.109 100.507 349.976 92.6637 354.539V354.492ZM97.8223 329.878C97.0938 329.409 94.8494 327.756 97.3053 326.069L113.756 318.415C114.168 318.274 118.868 316.774 118.833 320.888V341.212L97.8223 329.878ZM121.183 341.599V320.947C121.3 320.454 122.064 317.876 125.166 319.423L145.836 334.566C137.509 336.476 129.291 338.832 121.218 341.622L121.183 341.599ZM126.6 317.583C125.742 316.891 122.992 314.395 125.237 313.035L141.688 305.393C143.004 304.959 146.658 304.221 146.6 309.085L147.305 332.738L126.6 317.583ZM149.655 333.711L148.926 309.308C149.103 308.136 149.831 305.885 152.863 307.667V307.585L174.52 329.327C165.62 330.585 157.332 332.054 149.655 333.734V333.711ZM152.898 304.28C152.099 303.178 151.241 301.302 153.309 299.943L168.585 292.828C169.314 292.523 174.684 290.484 175.178 294.727L175.777 327.252L152.898 304.28ZM178.174 328.893L177.563 295.43C177.739 294.551 178.444 292.277 180.606 294.539L205.283 326.256C195.616 326.889 186.58 327.756 178.174 328.858V328.893ZM206.376 323.853L181.817 292.207C181.817 292.207 178.95 287.905 184.296 285.596H184.226L201.123 277.661C202.298 277.31 205.824 276.595 206.317 280.345L206.376 323.853ZM208.726 280.873C208.902 279.127 209.713 275.927 213.368 277.462L231.182 285.772C232.075 286.429 235.365 289.289 231.993 293.133L208.714 323.783L208.726 280.873ZM236.869 328.682C224.108 326.971 214.131 326.338 209.842 326.198L233.814 294.622C234.39 294.164 236.305 292.852 236.857 295.454L236.869 328.682ZM239.219 294.551C239.337 292.852 240.018 290.144 243.32 291.433L259.854 299.157C262.921 301.197 261.029 304.643 260.664 305.346L239.219 327.323V294.551ZM240.653 329.21L261.569 307.772C264.46 305.428 265.094 307.315 265.247 308.37L265.365 333.828C256.634 331.777 248.22 330.288 240.618 329.233L240.653 329.21ZM267.562 306.964C268.079 304.057 271.534 304.76 272.509 305.018L287.703 312.05C290.911 314.324 287.809 317.501 287.374 317.911L267.668 332.75L267.562 306.964ZM278.784 337.286C275.529 336.336 272.274 335.457 269.043 334.66L289.324 319.423C293.061 317.184 293.32 320.724 293.343 321.31V321.392L293.813 342.29C289.082 340.517 284.072 338.856 278.784 337.309V337.286ZM295.682 320.876C295.917 316.903 299.994 317.981 300.84 318.251L316.692 325.658C319.254 326.971 316.34 329.561 316.093 329.772L296.116 341.177L295.682 320.876ZM296.857 343.498L318.079 331.366C321.486 329.913 322.015 332.726 322.086 334.051V334.683L322.18 356.777C314.234 351.444 305.727 346.994 296.81 343.509L296.857 343.498ZM324.436 333.804C325.023 330.382 328.408 331.202 329.054 331.402L341.874 337.379C342.461 337.778 347.526 341.411 340.934 346.475L324.483 356.813L324.436 333.804ZM350.875 393.581C347.761 383.032 341.639 373.491 332.661 365.134L337.221 367.256C341.651 369.307 346.233 371.428 350.875 374.148V393.581ZM350.875 371.428C346.551 368.979 342.32 367.033 338.208 365.134C334.095 363.236 329.982 361.278 325.658 358.875L341.639 348.784L342.332 348.35C344.424 347.084 350.64 343.755 350.875 348.678V371.428Z" fill="#DDDDDD"/>
<path d="M65.7827 381.578L256.012 422.647L316.983 392.899L350.828 415.353" stroke="#DDDDDD" stroke-width="4"/>
<path d="M256.012 422.647V487.738" stroke="#DDDDDD" stroke-width="4"/>
</g>
</g>
</g>
<defs>
<clipPath id="clip0_575_146962">
<rect width="652.462" height="481.517" fill="white" transform="translate(352.537 7.87036)"/>
</clipPath>
<clipPath id="clip1_575_146962">
<rect width="337.975" height="217.27" fill="white" transform="translate(15.2144 272.117)"/>
</clipPath>
</defs>
</svg>
