<svg width="917" height="155" viewBox="0 0 917 155" fill="none" xmlns="http://www.w3.org/2000/svg">
<path d="M354.524 154.343L354.502 72.6326H405.236L405.279 87.6466L372.089 87.6684V154.343H354.524Z" fill="white"/>
<path d="M33.1335 154.343H50.808V72.6326H0.0742188L0.0960257 154.343H17.6615V87.6684L33.2316 87.6466L33.1335 154.343Z" fill="white"/>
<path d="M889.37 154.343V109.094H855.712V72.6216H838.048V154.397H889.37V154.343ZM871.707 124.151V139.242H855.712V124.151H871.707Z" fill="white"/>
<path d="M917 139.242V72.6216H899.336V154.397H917V139.242Z" fill="white"/>
<path d="M275.899 113.739L286.911 72.6326H268.713L259.772 105.997H253.198V72.6326H235.61V154.343H253.198V121.033H259.652L268.582 154.343H286.78L275.899 113.739Z" fill="white"/>
<path d="M511.871 72.6216H483.522L472.902 154.397H489.639L490.838 142.894H504.588L505.776 154.376H522.491L511.871 72.6216ZM492.976 127.804L496.825 87.374H498.874L502.527 127.804H492.976Z" fill="white"/>
<path d="M157.4 72.6216H129.051L118.431 154.397H135.167L136.356 142.894H150.116L151.294 154.376H168.02L157.4 72.6216ZM138.504 127.804L142.342 87.374H144.403L148.044 127.804H138.504Z" fill="white"/>
<path d="M651.207 72.6326H633.118H632.987L630.894 80.4939L624.079 105.943V105.997H617.232L608.291 72.6326H590.082L601.094 113.728L604.387 123.704H619.38L611.169 154.343H629.247L629.291 154.703L631.472 146.514L638.297 121.033L638.286 120.913L640.325 113.248L651.207 72.6326Z" fill="white"/>
<path d="M770.469 72.4473L759.434 113.499L770.469 154.278L718.786 154.31V139.242H748.313L741.422 113.357L748.204 87.494L718.786 87.5049V72.4473H770.469Z" fill="white"/>
<path d="M0.34375 37.6582H5.77721V25.2389H18.8911V37.6582H24.3654V8.44828H18.8911V20.8676H5.77721V8.44828H0.34375V37.6582Z" fill="white"/>
<path d="M44.3416 38.0668C53.2067 38.0668 59.0487 31.6528 59.0487 23.1145V22.7877C59.0487 14.2086 53.0433 8.03975 44.3416 8.03975C35.6807 8.03975 29.5528 14.372 29.5528 22.9103V23.2371C29.5528 31.6528 35.3947 38.0668 44.3416 38.0668ZM44.4233 33.6955C39.1124 33.6955 35.2313 29.5693 35.2313 23.1963V22.8694C35.2313 16.578 38.6221 12.3702 44.3416 12.3702C50.061 12.3702 53.411 16.8232 53.411 22.8286V23.1554C53.411 29.4876 49.9384 33.6955 44.4233 33.6955Z" fill="white"/>
<path d="M64.2964 37.6582H75.531C81.9449 37.6582 85.54 34.9211 85.54 29.4876V29.3242C85.54 25.4432 83.6608 23.278 79.698 22.42C83.0071 21.3987 84.3144 19.1109 84.3144 16.2104V16.047C84.3144 10.7361 80.7602 8.44828 74.7548 8.44828H64.2964V37.6582ZM69.6073 20.7451V12.3293H74.0194C77.492 12.3293 79.0852 13.5141 79.0852 16.2921V16.4555C79.0852 19.4378 77.6962 20.7451 74.1012 20.7451H69.6073ZM69.6073 33.7772V24.4218H74.5097C78.5133 24.4218 80.1883 25.9334 80.1883 28.9565V29.1199C80.1883 32.1431 78.5133 33.7772 74.8773 33.7772H69.6073Z" fill="white"/>
<path d="M90.5876 37.6582H99.6978C106.234 37.6582 110.524 34.676 110.524 28.548V28.3846C110.524 22.2158 106.071 19.5195 99.8204 19.5195H96.0211V8.44828H90.5876V37.6582ZM118.981 8.44828H113.547V37.6582H118.981V8.44828ZM96.0211 33.4504V23.4822H99.6978C103.293 23.4822 105.213 25.1163 105.213 28.3437V28.5072C105.213 32.0205 103.13 33.4504 99.6978 33.4504H96.0211Z" fill="white"/>
<path d="M137.87 6.56904C141.261 6.56904 143.712 4.24042 143.916 0.849609H140.28C140.117 2.27947 139.382 3.50506 137.87 3.50506C136.44 3.50506 135.827 2.23861 135.705 0.849609H131.946C132.151 4.24042 134.438 6.56904 137.87 6.56904ZM131.17 37.6582L144.733 15.6384V37.6582H150.208V8.44828H144.733L131.17 30.3455V8.44828H125.696V37.6582H131.17Z" fill="white"/>
<path d="M179.376 38.0668C186.321 38.0668 191.305 34.5126 192.163 27.4858H186.852C186.28 31.612 183.42 33.6546 179.376 33.6546C173.983 33.6546 170.837 29.7736 170.837 23.1963V22.8694C170.837 16.3329 174.187 12.3293 179.335 12.3293C183.543 12.3293 185.708 14.3311 186.321 18.2122H191.836C191.182 11.3489 185.994 7.9989 179.294 7.9989C171.164 7.9989 165.118 14.1269 165.118 22.9103V23.2371C165.118 32.2248 170.225 38.0668 179.376 38.0668Z" fill="white"/>
<path d="M210.188 38.0668C219.053 38.0668 224.895 31.6528 224.895 23.1145V22.7877C224.895 14.2086 218.889 8.03975 210.188 8.03975C201.527 8.03975 195.399 14.372 195.399 22.9103V23.2371C195.399 31.6528 201.241 38.0668 210.188 38.0668ZM210.269 33.6955C204.958 33.6955 201.077 29.5693 201.077 23.1963V22.8694C201.077 16.578 204.468 12.3702 210.188 12.3702C215.907 12.3702 219.257 16.8232 219.257 22.8286V23.1554C219.257 29.4876 215.784 33.6955 210.269 33.6955Z" fill="white"/>
<path d="M230.142 37.6582H241.377C247.791 37.6582 251.386 34.9211 251.386 29.4876V29.3242C251.386 25.4432 249.507 23.278 245.544 22.42C248.853 21.3987 250.16 19.1109 250.16 16.2104V16.047C250.16 10.7361 246.606 8.44828 240.601 8.44828H230.142V37.6582ZM235.453 20.7451V12.3293H239.865C243.338 12.3293 244.931 13.5141 244.931 16.2921V16.4555C244.931 19.4378 243.542 20.7451 239.947 20.7451H235.453ZM235.453 33.7772V24.4218H240.356C244.359 24.4218 246.034 25.9334 246.034 28.9565V29.1199C246.034 32.1431 244.359 33.7772 240.723 33.7772H235.453Z" fill="white"/>
<path d="M256.434 37.6582H261.867V26.5462H265.952C272.203 26.5462 276.656 23.809 276.656 17.6402V17.4768C276.656 11.3489 272.366 8.44828 265.83 8.44828H256.434V37.6582ZM261.867 22.6243V12.6562H265.83C269.302 12.6562 271.345 14.0043 271.345 17.4768V17.6402C271.345 20.8676 269.425 22.6243 265.83 22.6243H261.867Z" fill="white"/>
<path d="M281.328 37.6582H300.284V33.3687H286.762V24.8304H297.057V20.7451H286.762V12.7379H299.59V8.44828H281.328V37.6582Z" fill="white"/>
<path d="M305.186 37.6582H310.088V15.5976L318.954 37.6582H320.71L329.412 15.5976V37.6582H334.845V8.44828H327.655L320.138 28.3846L312.458 8.44828H305.186V37.6582Z" fill="white"/>
<path d="M341.531 37.6582H360.487V33.3687H346.964V24.8304H357.259V20.7451H346.964V12.7379H359.792V8.44828H341.531V37.6582Z" fill="white"/>
<path d="M365.389 37.6582H370.822V25.2389H383.936V37.6582H389.41V8.44828H383.936V20.8676H370.822V8.44828H365.389V37.6582Z" fill="white"/>
<path d="M396.068 37.6582H401.502V25.2389H414.616V37.6582H420.09V8.44828H414.616V20.8676H401.502V8.44828H396.068V37.6582Z" fill="white"/>
<path d="M426.748 37.6582H435.858C442.395 37.6582 446.684 34.676 446.684 28.548V28.3846C446.684 22.2158 442.231 19.5195 435.981 19.5195H432.181V8.44828H426.748V37.6582ZM455.141 8.44828H449.707V37.6582H455.141V8.44828ZM432.181 33.4504V23.4822H435.858C439.453 23.4822 441.373 25.1163 441.373 28.3437V28.5072C441.373 32.0205 439.29 33.4504 435.858 33.4504H432.181Z" fill="white"/>
<path d="M474.03 6.56904C477.421 6.56904 479.872 4.24042 480.077 0.849609H476.441C476.277 2.27947 475.542 3.50506 474.03 3.50506C472.6 3.50506 471.988 2.23861 471.865 0.849609H468.107C468.311 4.24042 470.599 6.56904 474.03 6.56904ZM467.33 37.6582L480.894 15.6384V37.6582H486.368V8.44828H480.894L467.33 30.3455V8.44828H461.856V37.6582H467.33Z" fill="white"/>
<path d="M502.749 37.6582H508.183V24.0133L519.417 37.6582H525.831L513.126 22.3792L525.218 8.40743H519.376L508.183 21.6847V8.44828H502.749V37.6582Z" fill="white"/>
<path d="M532.779 38.0259C537.722 38.0259 539.805 34.8802 541.725 30.5498L551.489 8.44828H546.26L539.642 24.0133L532.86 8.44828H527.141L537.068 30.0187C535.883 32.3473 534.454 33.3278 532.452 33.3278C531.349 33.3278 530.736 33.1236 530.573 33.0827V37.5765C530.695 37.6582 531.471 38.0259 532.779 38.0259Z" fill="white"/>
<path d="M560.252 27.0773C560.62 22.3792 560.824 16.8232 560.906 12.8196H569.894V37.6582H575.368V8.44828H555.963C555.963 12.4927 555.84 20.1731 555.35 26.056C554.941 30.7541 554.002 33.1644 551.755 33.1644C550.856 33.1644 550.448 33.001 550.448 33.001V37.6582C550.448 37.6582 551.183 38.0668 552.49 38.0668C557.965 38.0668 559.721 33.2461 560.252 27.0773Z" fill="white"/>
<path d="M582.061 37.6582H591.458C597.994 37.6582 602.243 34.676 602.243 28.548V28.3846C602.243 22.2158 597.831 19.5195 591.58 19.5195H587.495V8.44828H582.061V37.6582ZM587.495 33.4504V23.4822H591.458C595.053 23.4822 596.973 25.1163 596.973 28.3437V28.5072C596.973 32.0205 594.889 33.4504 591.458 33.4504H587.495Z" fill="white"/>
<path d="M610.125 37.6582H615.6V12.7379H623.729V8.44828H601.996V12.7379H610.125V37.6582Z" fill="white"/>
<path d="M631.201 38.0259C636.144 38.0259 638.228 34.8802 640.148 30.5498L649.912 8.44828H644.683L638.064 24.0133L631.283 8.44828H625.563L635.491 30.0187C634.306 32.3473 632.876 33.3278 630.874 33.3278C629.771 33.3278 629.158 33.1236 628.995 33.0827V37.5765C629.118 37.6582 629.894 38.0259 631.201 38.0259Z" fill="white"/>
<path d="M653.515 37.6582H658.948V26.5462H663.033C669.284 26.5462 673.737 23.809 673.737 17.6402V17.4768C673.737 11.3489 669.447 8.44828 662.911 8.44828H653.515V37.6582ZM658.948 22.6243V12.6562H662.911C666.383 12.6562 668.426 14.0043 668.426 17.4768V17.6402C668.426 20.8676 666.506 22.6243 662.911 22.6243H658.948Z" fill="white"/>
<path d="M678.409 37.6582H683.843V25.2389H696.957V37.6582H702.431V8.44828H696.957V20.8676H683.843V8.44828H678.409V37.6582Z" fill="white"/>
<path d="M709.089 37.6582H718.199C724.736 37.6582 729.025 34.676 729.025 28.548V28.3846C729.025 22.2158 724.573 19.5195 718.322 19.5195H714.523V8.44828H709.089V37.6582ZM737.482 8.44828H732.049V37.6582H737.482V8.44828ZM714.523 33.4504V23.4822H718.199C721.794 23.4822 723.715 25.1163 723.715 28.3437V28.5072C723.715 32.0205 721.631 33.4504 718.199 33.4504H714.523Z" fill="white"/>
<path d="M756.371 6.56904C759.762 6.56904 762.213 4.24042 762.418 0.849609H758.782C758.618 2.27947 757.883 3.50506 756.371 3.50506C754.942 3.50506 754.329 2.23861 754.206 0.849609H750.448C750.652 4.24042 752.94 6.56904 756.371 6.56904ZM749.672 37.6582L763.235 15.6384V37.6582H768.709V8.44828H763.235L749.672 30.3455V8.44828H744.197V37.6582H749.672Z" fill="white"/>
<path d="M812.094 42.9692V33.287H808.703V8.44828H803.229V33.287H790.565V8.44828H785.09V37.6582H807.233L807.437 42.9692H812.094Z" fill="white"/>
<path d="M815.969 37.6582H834.925V33.3687H821.403V24.8304H831.698V20.7451H821.403V12.7379H834.231V8.44828H815.969V37.6582Z" fill="white"/>
<path d="M839.827 37.6582H845.26V25.2389H858.374V37.6582H863.849V8.44828H858.374V20.8676H845.26V8.44828H839.827V37.6582Z" fill="white"/>
<path d="M876.349 37.6582H881.823V12.7379H889.953V8.44828H868.219V12.7379H876.349V37.6582Z" fill="white"/>
<path d="M894.324 37.6582H899.758V26.5462H903.843C910.094 26.5462 914.547 23.809 914.547 17.6402V17.4768C914.547 11.3489 910.257 8.44828 903.721 8.44828H894.324V37.6582ZM899.758 22.6243V12.6562H903.721C907.193 12.6562 909.236 14.0043 909.236 17.4768V17.6402C909.236 20.8676 907.316 22.6243 903.721 22.6243H899.758Z" fill="white"/>
</svg>
