<svg width="167" height="30" viewBox="0 0 167 30" fill="none" xmlns="http://www.w3.org/2000/svg">
<path d="M1.26 16.2605H2.38V7.8325L5.81 16.2605H6.188L9.506 7.8325V16.2605H10.724V6.2505H9.044L6.048 14.0485L2.954 6.2505H1.26V16.2605ZM15.1122 15.4625C14.0902 15.4625 13.7262 14.9865 13.7262 14.2305C13.7262 13.1525 14.8042 12.7885 16.2742 12.7885H17.2822V13.6985C17.2822 14.8325 16.3442 15.4625 15.1122 15.4625ZM15.0002 16.3865C16.0782 16.3865 16.7362 16.0225 17.2822 15.3365V16.2605H18.4442V11.4305C18.4442 9.3865 17.1702 8.8125 15.7702 8.8125C14.3562 8.8125 13.0262 9.4285 12.8722 11.0945H14.0342C14.1462 10.1985 14.7062 9.7785 15.7142 9.7785C16.8342 9.7785 17.2822 10.2685 17.2822 11.4305V11.9625H16.2322C14.3562 11.9625 12.5642 12.5365 12.5642 14.2305C12.5642 15.7285 13.6422 16.3865 15.0002 16.3865ZM23.6108 15.4205C22.3788 15.4205 21.3848 14.5385 21.3848 12.6905V12.5785C21.3848 10.8005 22.2528 9.7785 23.7088 9.7785C25.1368 9.7785 26.0328 10.6605 26.0328 12.5365V12.6485C26.0328 14.5245 24.9688 15.4205 23.6108 15.4205ZM23.4848 16.3865C24.5488 16.3865 25.5708 15.7145 25.9908 15.0005V16.2605H27.1528V5.4385H25.9908V10.1145C25.5708 9.4005 24.8148 8.8125 23.5968 8.8125C21.5808 8.8125 20.1808 10.3945 20.1808 12.6345V12.7465C20.1808 15.0285 21.5668 16.3865 23.4848 16.3865ZM32.5001 16.3865C34.1521 16.3865 35.3701 15.6165 35.6221 14.1465H34.4601C34.3061 15.0005 33.6481 15.4205 32.5141 15.4205C31.0161 15.4205 30.2181 14.4965 30.1621 12.8305H35.6781V12.4525C35.6781 9.8345 34.0821 8.8125 32.3881 8.8125C30.3721 8.8125 28.9581 10.3525 28.9581 12.5645V12.6765C28.9581 14.9305 30.4281 16.3865 32.5001 16.3865ZM30.2041 11.8925C30.4001 10.5905 31.1981 9.7785 32.3881 9.7785C33.5921 9.7785 34.3761 10.3805 34.4881 11.8925H30.2041ZM44.8062 16.3865C46.8222 16.3865 48.1382 14.8465 48.1382 12.6065V12.4945C48.1382 10.2125 46.7242 8.8125 44.8062 8.8125C43.7422 8.8125 42.7482 9.4565 42.3282 10.1705V5.4385H41.1662V16.2605H42.3282V15.0565C42.7482 15.7845 43.6162 16.3865 44.8062 16.3865ZM44.6942 15.4205C43.2662 15.4205 42.2862 14.5385 42.2862 12.6625V12.5505C42.2862 10.6745 43.3222 9.7785 44.6802 9.7785C45.9122 9.7785 46.9342 10.7025 46.9342 12.5505V12.6625C46.9342 14.4405 46.1502 15.4205 44.6942 15.4205ZM50.4649 18.8085H51.6409L55.6869 8.9385H54.4969L52.4669 14.1885L50.2269 8.9385H48.9809L51.8509 15.5045L50.4649 18.8085Z" fill="#555555"/>
<path d="M109.014 0.514893H105.828V1.77429H109.014V0.514893Z" fill="#555555"/>
<path d="M143.579 0.434692H140.728V17.2582H143.579V0.434692Z" fill="#555555"/>
<path fill-rule="evenodd" clip-rule="evenodd" d="M77.4315 3.46217V0.434631H62V17.2605H64.8516V13.7767H77.4315V10.7491H64.8516V3.46217H77.4315Z" fill="#555555"/>
<path fill-rule="evenodd" clip-rule="evenodd" d="M134.007 0.434631H114.903V3.46217H123.029V17.2579H125.881V3.46217H134.007V0.434631Z" fill="#555555"/>
<path d="M148.485 14.2995V14.2902C150.429 14.075 152.558 13.6001 154.437 12.8754C155.763 12.3635 157.035 11.7008 158.04 10.8602C159.041 10.0232 159.891 8.91052 160.109 7.49597C160.478 5.11561 159.643 3.21635 158.189 1.97302C156.802 0.787368 154.939 0.260498 153.206 0.260498C151.616 0.260498 149.856 0.520958 148.488 1.6554C147.053 2.84544 146.354 4.731 146.354 7.26163H149.205C149.205 5.28606 149.733 4.41053 150.269 3.96617C150.872 3.4662 151.825 3.21893 153.206 3.21893C154.443 3.21893 155.614 3.6051 156.375 4.25612C157.07 4.84972 157.497 5.71154 157.294 7.02729C157.227 7.46053 156.938 7.98223 156.251 8.55746C155.567 9.12882 154.602 9.65569 153.443 10.1026C151.124 10.997 148.313 11.4652 146.209 11.4652V14.4236C146.21 14.4236 146.208 14.4236 146.209 14.4236V15.8729V17.2579H160.585V14.2995H148.485Z" fill="#555555"/>
<path fill-rule="evenodd" clip-rule="evenodd" d="M82.849 0.434631H79.9971V17.2582H95.2924V14.2304H82.849V0.434631Z" fill="#555555"/>
<path d="M105.338 0.434631L97.2637 17.2582H102.425L111.833 12.1102L114.303 17.2582H117.504L109.43 0.434631H105.338ZM101.957 14.147L107.38 2.84835H107.388L110.553 9.44341L101.957 14.147Z" fill="#555555"/>
<path d="M163.877 4.80896C165.231 4.80896 166.019 3.78698 166.019 2.53473C166.019 1.28247 165.231 0.260498 163.877 0.260498C162.524 0.260498 161.735 1.28221 161.735 2.53473C161.735 3.78698 162.524 4.80896 163.877 4.80896ZM163.877 4.19434C162.871 4.19434 162.314 3.42594 162.314 2.53473C162.314 1.64351 162.871 0.875112 163.877 0.875112C164.883 0.875112 165.44 1.64351 165.44 2.53473C165.44 3.42594 164.883 4.19434 163.877 4.19434ZM162.944 3.59508H163.494V2.99582H164.333V3.59508H164.883V2.91906C164.883 2.79624 164.818 2.72689 164.702 2.72689H164.268V2.57337C164.572 2.54267 164.883 2.46591 164.883 2.06622C164.883 1.53605 164.254 1.43626 163.841 1.43626H162.944V3.59508ZM163.494 2.41165V2.0199H163.841C164.145 2.0199 164.333 2.0199 164.333 2.21207C164.333 2.41191 164.145 2.41191 163.841 2.41191H163.494V2.41165Z" fill="#555555"/>
</svg>
