<svg width="247" height="23" viewBox="0 0 247 23" fill="none" xmlns="http://www.w3.org/2000/svg">
<path d="M95.2097 21.9983L95.2039 0.0498047H108.832L108.843 4.08277L99.928 4.08862V21.9983H95.2097Z" fill="#0E0D0D"/>
<path d="M8.88013 21.9985H13.6277V0.0500488H0L0.0058576 21.9985H4.72416V4.08887L8.90649 4.08301L8.88013 21.9985Z" fill="#0E0D0D"/>
<path d="M238.876 21.9982V9.84372H229.835V0.046875H225.09V22.0129H238.876V21.9982ZM234.131 13.8884V17.9419H229.835V13.8884H234.131Z" fill="#0E0D0D"/>
<path d="M246.297 17.9419V0.046875H241.553V22.0129H246.297V17.9419Z" fill="#0E0D0D"/>
<path d="M74.0897 11.0914L77.0478 0.0498047H72.1597L69.758 9.01194H67.992V0.0498047H63.2678V21.9983H67.992V13.0508H69.7258L72.1245 21.9983H77.0127L74.0897 11.0914Z" fill="#0E0D0D"/>
<path d="M137.475 0.046875H129.86L127.008 22.0129H131.503L131.825 18.923H135.519L135.838 22.007H140.328L137.475 0.046875ZM132.399 14.8695L133.433 4.00955H133.984L134.965 14.8695H132.399Z" fill="#0E0D0D"/>
<path d="M42.2595 0.046875H34.6446L31.792 22.0129H36.2877L36.6069 18.923H40.3031L40.6194 22.007H45.1122L42.2595 0.046875ZM37.1839 14.8695L38.2149 4.00955H38.7684L39.7466 14.8695H37.1839Z" fill="#0E0D0D"/>
<path d="M174.902 0.0498047H170.043H170.008L169.446 2.16147L167.615 8.9973V9.01194H165.776L163.374 0.0498047H158.483L161.441 11.0885L162.326 13.7683H166.353L164.147 21.9983H169.003L169.015 22.0949L169.601 19.8954L171.434 13.0508L171.431 13.0185L171.979 10.9596L174.902 0.0498047Z" fill="#0E0D0D"/>
<path d="M206.937 0L203.974 11.0269L206.937 21.9807L193.055 21.9894V17.9418H200.986L199.135 10.9889L200.957 4.04174L193.055 4.04467V0H206.937Z" fill="#0E0D0D"/>
</svg>
