<svg width="73" height="28" viewBox="0 0 73 28" fill="none" xmlns="http://www.w3.org/2000/svg">
<g clip-path="url(#clip0_529_125423)">
<path opacity="0.6" d="M67.0826 0H6.6676C3.53747 0 1 2.53747 1 5.6676V21.9707C1 25.1008 3.53747 27.6383 6.6676 27.6383H67.0826C70.2127 27.6383 72.7502 25.1008 72.7502 21.9707V5.6676C72.7502 2.53747 70.2127 0 67.0826 0Z" fill="white" fill-opacity="0.1"/>
<g opacity="0.6">
<path d="M10 20.9006C10.0275 20.7828 10.1223 20.801 10.203 20.7867C10.3906 20.7535 10.5783 20.7217 10.764 20.6781C11.1201 20.5955 11.357 20.3685 11.5216 20.0406C11.6654 19.7389 11.7581 19.4148 11.7957 19.0818C11.8391 18.7717 11.8618 18.4589 11.8636 18.1457C11.8687 15.1274 11.8702 12.1095 11.868 9.09204V8.91315C11.3865 8.54172 11.4198 8.31795 12.0224 7.97448C11.9084 7.95822 11.8303 7.94261 11.7553 7.9374C11.6167 7.9334 11.4804 7.89975 11.3554 7.83867C11.2303 7.77758 11.1194 7.69043 11.0298 7.58288C10.6929 7.18152 10.5725 6.73723 10.7736 6.23114C10.9747 5.72506 11.3602 5.50844 11.87 5.48372C12.1146 5.47201 12.3592 5.48372 12.6039 5.48372C13.7418 5.48372 14.8798 5.48372 16.0178 5.48372C16.2189 5.48372 16.4206 5.50389 16.6211 5.5234C17.0437 5.56568 17.3338 5.81027 17.4901 6.19341C17.8071 6.97011 17.4126 7.76892 16.6268 7.91789C16.5481 7.93285 16.4693 7.95106 16.3316 7.97969C16.4437 8.04018 16.5026 8.07726 16.566 8.10523C16.7402 8.18069 16.8503 8.316 16.8407 8.50269C16.8371 8.58491 16.8079 8.66385 16.7574 8.72823C16.7069 8.7926 16.6377 8.83911 16.5596 8.86111C16.5205 8.87478 16.4834 8.89364 16.436 8.9138V12.9183H20.5345C20.541 12.822 20.5518 12.7381 20.5518 12.6548C20.5518 11.1619 20.5589 9.66903 20.5435 8.17679C20.5347 7.79956 20.4918 7.42394 20.4154 7.05468C20.3418 6.67869 20.1766 6.33457 19.8602 6.09779C19.6065 5.91869 19.3174 5.79813 19.013 5.74457C18.956 5.73286 18.9015 5.71009 18.7786 5.67041C18.8798 5.62423 18.9188 5.59365 18.9592 5.59105C19.0757 5.58325 19.1929 5.5878 19.3101 5.5878H26.6478C26.7691 5.58188 26.8901 5.60622 27 5.6587C26.9568 5.69189 26.9097 5.71943 26.8598 5.74067C26.6862 5.78815 26.5101 5.82783 26.3346 5.87077C25.7788 6.00087 25.4554 6.37816 25.31 6.91157C25.2304 7.19145 25.1836 7.47987 25.1704 7.77088C25.1364 8.77525 25.1127 9.78027 25.1063 10.7846C25.098 13.1863 25.1063 15.5873 25.1063 17.9889C25.1063 18.5405 25.1364 19.0896 25.2921 19.6236C25.5277 20.4322 25.8806 20.6534 26.6497 20.7828C26.7592 20.8017 26.8873 20.7581 26.9878 20.8986C26.9366 20.9324 26.8943 20.9799 26.845 20.9884C26.76 20.9987 26.6743 21.0011 26.5889 20.9955H19.2192C19.0956 20.9955 18.972 20.9877 18.7799 20.9812C18.8612 20.8849 18.8887 20.8225 18.9316 20.8082C19.0244 20.7859 19.1182 20.7688 19.2128 20.7568C19.8909 20.6046 20.2797 20.1577 20.4109 19.4818C20.4875 19.1233 20.5314 18.7583 20.5422 18.3916C20.5576 16.8558 20.5506 15.3199 20.5506 13.7834C20.5506 13.7184 20.539 13.6566 20.5339 13.5974C20.2925 13.5265 16.7805 13.5161 16.4405 13.587C16.4347 13.6748 16.4226 13.7691 16.4226 13.8628C16.4226 15.3555 16.4226 16.8482 16.4226 18.3408C16.4236 18.7949 16.4883 19.2466 16.6147 19.6822C16.8036 20.3385 17.2384 20.6872 17.891 20.7822C17.98 20.7952 18.0901 20.7607 18.1471 20.9071C18.1017 20.9388 18.0529 20.9654 18.0018 20.9864C17.9493 20.995 17.8959 20.9968 17.843 20.9916C15.3326 20.9916 12.8227 20.9916 10.3132 20.9916C10.203 20.991 10.0749 21.0398 10 20.9006ZM14.8606 19.4961V15.1456C14.8606 13.1898 14.8606 11.2341 14.8606 9.27873C14.8599 9.16107 14.8473 9.04379 14.8228 8.92877C14.8208 8.90638 14.8138 8.88475 14.8025 8.86545C14.7912 8.84614 14.7757 8.82965 14.7573 8.81718C14.7389 8.80471 14.718 8.79658 14.6961 8.79338C14.6742 8.79017 14.6518 8.79198 14.6307 8.79867C14.5566 8.82726 14.4962 8.88391 14.4623 8.95674C14.4316 9.0309 14.4482 9.12652 14.4482 9.21303C14.4482 12.5726 14.4482 15.9336 14.4482 19.2958V19.6627L14.8606 19.4961ZM13.469 14.43H13.4581C13.4581 16.2358 13.4581 18.041 13.4549 19.8468C13.4549 19.9671 13.4914 20.0491 13.599 20.0536C13.6524 20.0611 13.7066 20.0484 13.7514 20.0179C13.7961 19.9875 13.8283 19.9414 13.8417 19.8884C13.854 19.8022 13.8573 19.715 13.8514 19.6282C13.8514 16.1467 13.8514 12.6648 13.8514 9.18246C13.8514 9.107 13.8514 9.03089 13.8469 8.95544C13.8473 8.9337 13.8434 8.91211 13.8354 8.89196C13.8273 8.87182 13.8153 8.85355 13.8001 8.83828C13.7849 8.823 13.7668 8.81103 13.7468 8.8031C13.7269 8.79517 13.7056 8.79145 13.6842 8.79216C13.5741 8.78436 13.4921 8.82924 13.4799 8.94698C13.4705 9.04381 13.4669 9.14113 13.469 9.2384C13.469 10.9692 13.469 12.6997 13.469 14.43ZM12.837 19.6152V9.18181C12.837 9.10635 12.837 9.03024 12.8306 8.95544C12.8302 8.93363 12.8256 8.9121 12.8171 8.8921C12.8085 8.87209 12.7961 8.85401 12.7807 8.83889C12.7652 8.82377 12.7469 8.81192 12.7269 8.80401C12.7069 8.7961 12.6855 8.79229 12.6641 8.79281C12.5533 8.78696 12.4771 8.83509 12.4649 8.95348C12.4578 9.04002 12.4552 9.12687 12.4572 9.21368V19.4512C12.5501 19.5091 12.6205 19.5566 12.6942 19.597C12.7407 19.6087 12.7884 19.6148 12.8363 19.6152H12.837ZM15.4626 19.1598C15.8366 19.0551 15.8391 19.0551 15.8391 18.7468C15.8391 15.5463 15.8391 12.3461 15.8391 9.14603C15.8391 9.08098 15.8391 9.01593 15.8327 8.95088C15.8328 8.92905 15.8286 8.90743 15.8203 8.88729C15.8121 8.86714 15.7999 8.84889 15.7845 8.8336C15.7692 8.81832 15.751 8.80632 15.731 8.79831C15.711 8.79029 15.6896 8.78643 15.6682 8.78696C15.5593 8.7811 15.4805 8.82989 15.469 8.94828C15.4607 9.03415 15.4632 9.12131 15.4632 9.20848C15.4632 12.4085 15.4632 15.6087 15.4632 18.8092L15.4626 19.1598ZM16.4943 6.78147C16.4245 6.75675 16.3579 6.73203 16.2913 6.70926C16.1318 6.65462 16.0229 6.71512 15.9858 6.87839C15.9715 6.96392 15.9887 7.05179 16.0341 7.1253C16.0794 7.19881 16.1497 7.25285 16.2317 7.27715C16.3403 7.30718 16.4555 7.30088 16.5602 7.25916C16.6649 7.21745 16.7537 7.14254 16.8132 7.04557C17.0393 6.68194 16.8254 6.21878 16.3803 6.13487C16.0454 6.07307 15.7181 6.10365 15.4523 6.35149C15.3892 6.40879 15.3153 6.45256 15.235 6.48017C15.1548 6.50778 15.07 6.51866 14.9855 6.51216C14.4649 6.5063 13.9436 6.50305 13.4229 6.51216C13.1892 6.51671 13.0067 6.46728 12.8267 6.28904C12.4681 5.93387 11.854 5.98851 11.5421 6.36515C11.4693 6.45834 11.425 6.57121 11.4147 6.68974C11.4045 6.80827 11.4287 6.92725 11.4844 7.03191C11.5374 7.1265 11.6187 7.2015 11.7164 7.24606C11.8142 7.29062 11.9234 7.30242 12.0281 7.27975C12.1124 7.26539 12.1886 7.22023 12.2424 7.15278C12.2962 7.08533 12.3238 7.00024 12.3202 6.91352C12.308 6.73658 12.1831 6.65332 12.0121 6.70666C11.9481 6.72813 11.8802 6.75284 11.7976 6.78212C11.7829 6.71707 11.7585 6.67609 11.7675 6.64161C11.8271 6.40353 12.016 6.27147 12.2676 6.28383C12.6019 6.30075 12.8895 6.60583 12.908 6.97206C12.9151 7.09566 12.908 7.2199 12.908 7.34285C13.6362 7.39424 15.1879 7.37212 15.4184 7.30772C15.4007 7.22391 15.3889 7.13891 15.3832 7.05338C15.3774 6.59803 15.7764 6.23244 16.192 6.3053C16.4277 6.34758 16.5429 6.51931 16.4956 6.78147H16.4943Z" fill="white"/>
<path d="M14.1745 5.00449C14.8968 5.00449 15.6192 5.00449 16.3416 5.00449C16.4259 4.99514 16.5113 5.00042 16.5939 5.0201C16.626 5.03331 16.6547 5.05394 16.6776 5.08036C16.7005 5.10679 16.717 5.13827 16.7258 5.17232C16.7197 5.20703 16.7059 5.23986 16.6853 5.26828C16.6648 5.29671 16.6381 5.31996 16.6073 5.33624C16.5366 5.35877 16.4618 5.36543 16.3883 5.35576H11.9235C11.8498 5.35576 11.7653 5.36747 11.7051 5.33559C11.6744 5.31838 11.6479 5.29434 11.6276 5.26528C11.6073 5.23623 11.5937 5.20289 11.5879 5.16776C11.5972 5.1343 11.614 5.10349 11.637 5.07775C11.66 5.05201 11.6886 5.03205 11.7205 5.01945C11.8032 5.00035 11.8884 4.9953 11.9728 5.00449C12.7058 5.00405 13.4397 5.00405 14.1745 5.00449Z" fill="white"/>
<path d="M14.763 6.72949H15.1197C15.1568 6.87651 15.1837 7.01116 15.0666 7.09703C15.0315 7.11786 14.9923 7.13043 14.9519 7.13381C14.9114 7.13719 14.8707 7.13129 14.8328 7.11654C14.69 7.03978 14.7572 6.89732 14.763 6.72949Z" fill="white"/>
<path d="M13.1582 6.73145H13.52C13.5559 6.8713 13.6071 7.00856 13.4784 7.11069C13.4474 7.12721 13.413 7.13617 13.378 7.13684C13.343 7.13752 13.3083 7.1299 13.2767 7.11459C13.1371 7.03393 13.1563 6.89212 13.1582 6.73145Z" fill="white"/>
<path d="M14.0552 6.74108C14.0552 6.84386 14.0744 6.93623 14.0494 7.00973C14.0359 7.04142 14.0159 7.06982 13.9907 7.09303C13.9655 7.11625 13.9358 7.13376 13.9034 7.14439C13.8105 7.1665 13.7471 7.10471 13.7273 7.00388C13.6857 6.79247 13.7625 6.71896 14.0552 6.74108Z" fill="white"/>
<path d="M14.5571 6.6875V7.0778C14.4406 7.12203 14.3228 7.15846 14.2651 7.04137C14.2469 6.99794 14.2385 6.95092 14.2405 6.90377C14.2425 6.85661 14.2549 6.8105 14.2766 6.76881C14.3119 6.71222 14.4342 6.71742 14.5571 6.6875Z" fill="white"/>
<path d="M40.5602 20.7055C41.3625 20.2556 41.3972 20.1023 41.0233 19.0761C40.5614 18.933 40.0699 19.0237 39.5845 19.0224C39.53 19.0224 39.4396 19.0633 39.4285 19.1029C39.3256 19.419 39.2506 19.7441 39.2044 20.0742C39.1821 20.3297 39.3951 20.4741 39.6291 20.5495C39.6761 20.5649 39.7108 20.6211 39.8235 20.7272H37.8672C38.646 20.2786 38.9035 19.5004 39.1821 18.7285C39.6774 17.3381 40.1986 15.9541 40.7088 14.5676C40.7521 14.4487 40.8078 14.3337 40.8487 14.2136C40.8718 14.1191 40.9302 14.0379 41.0112 13.9878C41.0922 13.9378 41.1892 13.9229 41.2808 13.9465C41.429 13.993 41.5591 14.087 41.6522 14.2149C41.723 14.3439 41.7736 14.4836 41.8021 14.6289C42.3642 16.2672 42.9164 17.9055 43.4921 19.5413C43.5648 19.7618 43.6719 19.9685 43.8091 20.1534C43.9601 20.3224 44.1446 20.4558 44.3502 20.5444C44.1632 20.0473 44.0803 19.5707 44.4876 19.1988C44.9519 18.7758 45.4447 18.9943 45.9635 19.2908C46.0472 19.1214 46.1128 18.9432 46.1591 18.7592C46.2235 18.2991 46.2681 17.834 46.3015 17.3688C46.3523 16.6928 46.3845 16.0142 46.4253 15.3382C46.4612 14.772 46.382 14.2698 45.7703 14.0117H50.8827C50.2203 14.4781 50.1782 14.5637 50.177 15.4417C50.177 16.7196 50.177 17.9941 50.177 19.2652C50.177 19.3291 50.177 19.393 50.177 19.4556C50.177 19.9911 50.2735 20.4626 50.8728 20.6709C50.3169 20.855 49.7758 20.7655 49.2421 20.7808C48.7085 20.7962 48.1513 20.7808 47.5459 20.7808C47.7786 20.4933 48.0114 20.308 48.103 20.0665C48.1947 19.825 48.1563 19.5234 48.1575 19.2486C48.1575 17.8429 48.1649 16.4372 48.1575 15.0417C48.1575 14.4257 47.9446 14.2379 47.3663 14.2826C46.9813 14.3133 46.8711 14.4104 46.824 14.8283C46.7733 15.2704 46.7596 15.7164 46.7138 16.1599C46.5987 17.2959 46.4848 18.4333 46.3424 19.5681C46.3008 19.8185 46.217 20.0594 46.0947 20.2799C45.909 20.6454 45.6082 20.8818 45.1934 20.8051C44.8467 20.7412 44.5124 20.7834 44.1694 20.7885C43.1009 20.809 42.0324 20.7885 40.9638 20.7808C40.8277 20.7657 40.6928 20.7405 40.5602 20.7055V20.7055ZM40.9155 18.6914C40.6766 17.995 40.4686 17.3892 40.2271 16.6825C39.9869 17.4097 39.6959 18.0014 39.5573 18.6914H40.9155Z" fill="white"/>
<path d="M38.0187 6.18329C40.3824 6.12834 42.7473 6.11301 45.2211 6.13985C44.4782 6.66635 44.4782 6.66635 44.4782 7.53662C44.4782 8.83243 44.4782 10.1287 44.4782 11.4253C44.4782 12.3199 44.4782 12.3199 45.0725 12.8732H41.7728C41.8966 12.7608 41.9499 12.6752 42.0205 12.647C42.1181 12.6113 42.2028 12.5457 42.2632 12.4589C42.3236 12.3721 42.3568 12.2683 42.3585 12.1614C42.4038 11.8467 42.4331 11.5298 42.4464 11.2119C42.4563 10.0017 42.4464 8.79026 42.4464 7.57879C42.4464 7.53662 42.4464 7.49317 42.4464 7.451C42.4191 6.31492 42.0403 6.33153 41.0757 6.45933C40.9296 6.4785 40.7835 6.72897 40.6944 6.90405C40.6337 7.02289 40.6634 7.19413 40.6634 7.34237C40.6634 8.74809 40.6634 10.1538 40.6634 11.5506C40.6634 12.2867 40.7365 12.4208 41.2664 12.8183C40.8467 12.9346 38.5586 12.9461 37.9023 12.8183C38.6836 12.5563 38.6452 11.9557 38.6452 11.3563C38.6366 10.1449 38.6452 8.93467 38.6452 7.7232C38.6452 7.61713 38.6452 7.51106 38.6452 7.40372C38.639 6.69063 38.587 6.59734 38.0187 6.18329Z" fill="white"/>
<path d="M37.4492 9.55256C37.4492 10.5378 37.2313 11.4516 36.5107 12.1519C35.5313 13.1039 34.3588 13.247 33.1268 12.8752C32.0025 12.5352 31.3661 11.6931 31.116 10.5225C30.9105 9.56023 30.965 8.62607 31.3847 7.7328C31.534 7.39403 31.7479 7.08978 32.0136 6.83817C32.2793 6.58655 32.5913 6.39275 32.9312 6.26829C33.7023 5.96221 34.5517 5.93785 35.3381 6.19928C36.6766 6.64017 37.3056 7.70852 37.443 9.10784C37.4525 9.25587 37.4546 9.40431 37.4492 9.55256V9.55256ZM35.3443 9.70335C35.2812 8.88804 35.2552 8.25419 35.1735 7.62673C35.1278 7.29217 35.0318 6.96705 34.8887 6.66317C34.6349 6.12005 33.8189 6.152 33.5725 6.65039C33.487 6.81817 33.4221 6.99633 33.3794 7.18073C33.0488 8.71424 33.0897 10.2478 33.3608 11.7736C33.4006 11.9586 33.4553 12.1398 33.5242 12.3154C33.6481 12.6694 33.9068 12.7627 34.251 12.7614C34.5953 12.7602 34.8045 12.6451 34.9221 12.3282C34.9903 12.1748 35.0417 12.0141 35.0757 11.849C35.1821 11.0771 35.2725 10.3027 35.3456 9.70335H35.3443Z" fill="white"/>
<path d="M32.2085 20.7086C32.8882 20.4274 32.8102 19.7885 32.8276 19.2441C32.8598 17.9917 32.8387 16.7381 32.8375 15.4844C32.8392 15.3563 32.8322 15.2282 32.8164 15.101C32.726 14.411 32.7248 14.411 32.123 14.0059H37.4025C37.6972 14.8007 37.4942 15.616 37.5635 16.4339C37.488 16.3355 37.4063 16.2422 37.3382 16.1387C37.0063 15.6275 36.6894 15.1164 36.3476 14.6167C36.1532 14.3381 35.8524 14.2678 35.523 14.2781C35.0983 14.2908 34.9213 14.4288 34.8854 14.8812C34.8519 15.303 34.8718 15.7298 34.8693 16.1592C34.8693 16.3662 34.8693 16.5745 34.8693 16.8326C35.2667 16.8735 35.6122 16.8914 35.9502 16.9476C36.3352 16.9982 36.7151 17.0837 37.0856 17.2032C37.3821 17.3038 37.6427 17.4938 37.8336 17.7487C38.0245 18.0036 38.137 18.3117 38.1566 18.6332C38.193 18.9426 38.1471 19.2564 38.0238 19.541C37.9006 19.8256 37.7047 20.0701 37.457 20.2485C37.078 20.5473 36.6129 20.7066 36.1359 20.7009C35.2692 20.7073 34.4099 20.7073 33.5469 20.7086H32.2085ZM34.8631 17.2876C34.8631 18.1821 34.8507 19.0217 34.8631 19.8651C34.8705 20.2357 35.0414 20.4479 35.2803 20.4875C35.5193 20.5271 35.7756 20.3431 35.8648 20.0287C36.0517 19.3527 36.1433 18.6652 35.9366 17.9713C35.7954 17.4818 35.4871 17.2761 34.8631 17.2876Z" fill="white"/>
<path d="M54.7442 10.0585C54.7442 10.6975 54.7294 11.3365 54.7442 11.9754C54.7578 12.3869 55.003 12.654 55.4586 12.7844C54.9733 12.9211 52.5329 12.9479 51.8531 12.8508C51.8531 12.8125 51.8531 12.746 51.8742 12.7409C52.4598 12.5697 52.5849 12.1019 52.5886 11.5588C52.5952 10.2 52.5952 8.8411 52.5886 7.48224C52.5886 6.9059 52.492 6.373 51.8457 6.15064C51.9618 6.13156 52.0787 6.11876 52.1961 6.1123C53.4491 6.1123 54.7034 6.1123 55.9564 6.12764C56.2844 6.13643 56.6099 6.18927 56.9246 6.28483C57.675 6.50718 58.1492 7.07586 58.1529 7.85028C58.1529 8.60298 57.9052 9.27261 57.2057 9.6496C56.5061 10.0266 55.71 10.0521 54.93 10.0636L54.7442 10.0585ZM54.7096 8.20299C54.7096 8.56337 54.7021 8.92502 54.7096 9.2854C54.7207 9.76078 54.873 9.86685 55.3286 9.7595C55.4718 9.73612 55.6042 9.66713 55.7075 9.56217C55.8107 9.45722 55.8796 9.32157 55.9044 9.17422C55.9641 8.88435 56.0079 8.59124 56.0356 8.29628C56.0876 7.8092 56.0212 7.31642 55.8425 6.86245C55.7903 6.70974 55.6863 6.58171 55.5497 6.50206C55.4132 6.42241 55.2532 6.39654 55.0996 6.42923C54.8359 6.48929 54.7219 6.65159 54.7046 7.05797C54.6984 7.43879 54.7096 7.82089 54.7096 8.20299Z" fill="white"/>
<path d="M51.1331 12.8802H45.6765C45.7223 12.8099 45.7409 12.7447 45.7768 12.7319C46.2263 12.5696 46.3191 12.2029 46.3166 11.7684C46.3166 10.9403 46.3166 10.1071 46.3166 9.28537C46.3166 8.69114 46.3055 8.09562 46.3166 7.49628C46.329 6.94293 46.3166 6.41898 45.5898 6.25285C46.0851 6.08544 50.3345 6.06628 50.9795 6.20812C51.1299 7.03641 51.1782 7.88101 51.1232 8.72181C50.9672 8.44577 50.8842 8.28731 50.7901 8.13651C50.535 7.72758 50.2948 7.30203 50.0088 6.92121C49.8949 6.75573 49.7426 6.62229 49.5659 6.53301C49.3893 6.44374 49.1938 6.40146 48.9973 6.41004C48.6493 6.42921 48.502 6.51866 48.4327 6.86881C48.374 7.20167 48.3413 7.53884 48.3348 7.8771C48.3187 8.31926 48.3348 8.7627 48.3348 9.21892C49.4938 9.53073 49.7364 8.65152 50.0324 7.77103C50.1908 8.29753 50.2119 10.2745 50.0819 10.9812C50.0074 10.8426 49.9401 10.7002 49.8801 10.5544C49.6324 9.79526 49.2003 9.40422 48.3274 9.6368C48.2868 10.407 48.2926 11.1791 48.3447 11.9486C48.4017 12.5479 49.0233 12.8214 49.5755 12.5109C49.7723 12.3985 49.9381 12.2362 50.0571 12.0393C50.3543 11.5345 50.613 11.0042 50.8854 10.4841C50.9659 10.3294 51.0402 10.171 51.1182 10.0151L51.2532 10.0521C51.2148 10.9722 51.1752 11.8872 51.1331 12.8802Z" fill="white"/>
<path d="M54.108 17.0103C54.8398 17.1995 55.0849 17.1138 55.4972 16.342C55.5963 16.1579 55.6669 15.9586 55.7523 15.7682C55.7523 15.7567 55.787 15.7567 55.8514 15.7401V18.6665L55.7721 18.7036C55.6954 18.5298 55.6198 18.356 55.5418 18.1847C55.2323 17.5074 54.9227 17.34 54.0981 17.4397C54.087 18.2486 54.056 19.0691 54.1217 19.8882C54.1563 20.3214 54.6083 20.5911 55.0478 20.4722C55.2095 20.4361 55.3619 20.3651 55.4951 20.2637C55.6283 20.1624 55.7392 20.0331 55.8204 19.8844C56.1052 19.3451 56.3825 18.802 56.6611 18.2589C56.7156 18.1515 56.7626 18.0403 56.8642 17.8218C56.9065 17.9144 56.938 18.0117 56.9583 18.1119C56.9583 18.8339 56.9583 19.5572 56.9422 20.2844C56.9323 20.7112 56.8716 20.7866 56.4816 20.7891C54.8373 20.7968 53.193 20.7891 51.5488 20.7891C51.5153 20.7891 51.4819 20.7495 51.4064 20.701C51.4683 20.6435 51.5129 20.5732 51.5723 20.554C51.6938 20.5261 51.8028 20.4569 51.8818 20.3575C51.9608 20.2581 52.0053 20.1343 52.0081 20.0058C52.0484 19.7558 52.0752 19.5036 52.0886 19.2505C52.0973 17.9969 52.0886 16.7432 52.0886 15.4896C52.0886 15.404 52.0886 15.3196 52.0886 15.234C52.0527 14.5503 51.9734 14.4123 51.3457 14.0264H56.6326C56.7973 14.4187 56.9261 15.8921 56.8444 16.5209L56.5559 16.0762C56.2476 15.6033 55.9529 15.1203 55.6235 14.6628C55.5274 14.5368 55.4026 14.4374 55.2603 14.3731C55.1179 14.3089 54.9624 14.282 54.8076 14.2947C54.295 14.2947 54.1278 14.4225 54.1105 14.958C54.0919 15.6276 54.108 16.3062 54.108 17.0103Z" fill="white"/>
<path d="M61.1876 14.3084C61.174 14.4976 61.1554 14.642 61.1542 14.7864C61.1492 16.3148 61.1463 17.8423 61.1455 19.369C61.1455 19.4968 61.1455 19.6246 61.1579 19.7524C61.1826 20.2035 61.4055 20.4962 61.8253 20.6009C61.8251 20.6327 61.8218 20.6644 61.8153 20.6955C61.8153 20.7134 61.7906 20.739 61.7782 20.739H58.4426C58.481 20.6546 58.4958 20.5715 58.5256 20.5639C58.9787 20.4604 59.1075 20.0885 59.1124 19.7C59.131 17.9224 59.1211 16.1435 59.1211 14.3595C58.772 14.2139 58.5652 14.4043 58.4228 14.633C58.1578 15.0586 57.935 15.5122 57.6898 15.9506C57.5722 16.1589 57.5313 16.4221 57.3023 16.5985C57.2552 16.5141 57.2007 16.463 57.2032 16.417C57.2577 15.64 57.327 14.8631 57.3852 14.0222C59.2152 13.9864 60.9932 14.012 62.7873 14.0094C63.0473 14.8618 62.9631 15.7065 63.0461 16.693C62.9244 16.5681 62.8134 16.4325 62.7142 16.2879C62.474 15.8215 62.2598 15.3384 62.0097 14.8822C61.7856 14.458 61.7002 14.4158 61.1876 14.3084Z" fill="white"/>
<path d="M64.0006 12.7946C63.4484 12.9467 60.592 12.9493 60.1054 12.8266C60.8371 12.2694 60.7975 12.4432 60.4446 11.1653H58.9242C58.4698 11.9474 58.5341 12.3576 59.2956 12.879C58.5837 12.9339 57.9745 12.902 57.3418 12.9071C57.3765 12.801 57.3789 12.7422 57.4037 12.7295C57.9745 12.4266 58.2593 11.8937 58.4735 11.311C58.9848 9.92697 59.4863 8.53915 59.9915 7.1526C60.0781 6.9149 60.171 6.67976 60.2502 6.43951C60.2761 6.33661 60.337 6.24678 60.4218 6.18646C60.5067 6.12614 60.6097 6.09938 60.7121 6.11109C60.9597 6.11109 61.0736 6.2491 61.1479 6.47274C61.5986 7.83586 62.0526 9.19685 62.5099 10.5557C62.6337 10.9391 62.7748 11.3122 62.916 11.6867C63.1067 12.1902 63.3828 12.6183 64.0006 12.7946ZM59.6745 8.80879C59.4182 9.53465 59.199 10.1583 58.9687 10.8113H60.3406L59.6745 8.80879Z" fill="white"/>
</g>
</g>
<defs>
<clipPath id="clip0_529_125423">
<rect width="73" height="28" fill="white"/>
</clipPath>
</defs>
</svg>
