<svg width="145" height="35" viewBox="0 0 145 35" fill="none" xmlns="http://www.w3.org/2000/svg">
<rect opacity="0.6" x="0.780762" y="0.712158" width="143.5" height="33.6663" rx="5.6676" fill="white" fill-opacity="0.1"/>
<path opacity="0.6" d="M133.403 22.0415H128.77V12.7789H133.428L133.403 22.0415ZM127.311 11.3638V23.4665H134.832V11.3638H127.311ZM99.7699 23.4665V11.3638H98.3008L90.5795 21.2102V11.3638H89.1054V23.4665H90.5795L98.3008 13.7388V23.4665H99.7699ZM70.2833 23.4665V11.3638H68.8142V16.6829H63.7201V11.3638H62.2461V23.4665H63.7201V18.1376H68.8142V23.4665H70.2833ZM85.0291 23.4665V11.3638H83.555L75.8337 21.2102V11.3638H74.3646V23.4665H75.8337L83.555 13.7388V23.4665H85.0291ZM51.6919 17.4201L57.3475 23.4665H59.3932L53.6874 17.4201L59.3932 11.3737H57.3475L51.6919 17.4201ZM50.1476 23.4665H51.6016V11.3638H50.1476V23.4665ZM92.1689 8.39014V9.84483H96.7215V8.39014H92.1689ZM50.0523 17.4102L44.3966 11.3638H42.346L48.0468 17.4102L42.356 23.4665H44.4067L50.0523 17.4102ZM122.713 22.0415H118.056V12.7789H122.713V22.0415ZM116.622 11.3638V23.4665H124.142V11.3638H116.622ZM24.7623 23.4665V11.3638H23.2933V16.6829H18.1942V11.3638H16.7251V23.4665H18.1942V18.1376H23.2933V23.4665H24.7623ZM39.5031 23.4665V11.3638H38.019L30.2976 21.2102V11.3638H28.8436V23.4665H30.3127L38.019 13.729V23.4665H39.5031ZM106.614 15.3519L108.735 17.4102L106.614 19.4685L109.452 22.2988L112.29 19.4685L110.169 17.4102L112.29 15.3519L109.452 12.5217L106.614 15.3519ZM109.452 10.4831L114.32 15.3519L112.224 17.4102L114.345 19.4685L109.477 24.3373L104.608 19.4685L106.729 17.4102L104.608 15.3519L109.452 10.4831Z" fill="white"/>
</svg>
