<svg width="68" height="28" viewBox="0 0 68 28" fill="none" xmlns="http://www.w3.org/2000/svg">
<path opacity="0.6" d="M62.0159 0.0732422H6.44885C3.31872 0.0732422 0.78125 2.61071 0.78125 5.74084V22.0439C0.78125 25.1741 3.31872 27.7115 6.44885 27.7115H62.0159C65.146 27.7115 67.6834 25.1741 67.6834 22.0439V5.74084C67.6834 2.61071 65.146 0.0732422 62.0159 0.0732422Z" fill="white" fill-opacity="0.1"/>
<g opacity="0.6">
<path d="M46.1777 20.091V7.33567H48.5416C49.7745 9.3909 51.1126 12.2601 52.5394 14.4781L56.4683 7.33567L58.9998 7.30176V20.091H57.0272C56.9252 18.3681 57.0272 11.3376 57.0272 10.2184L53.174 17.0386H51.9509C51.9509 17.0386 49.1564 11.7887 48.1504 10.2184V20.091H46.1777Z" fill="white"/>
<path d="M11 7.20312H12.9726V12.4802H19.4922V7.23704H21.5207V20.0907H19.548V14.583H12.9726V20.0907H11V7.20312Z" fill="white"/>
<path d="M23.4922 20.0907V7.26758H31.649L31.7213 8.94636H25.136V20.0907H23.4922Z" fill="white"/>
<path d="M38.7493 12.1652C40.4654 10.3169 41.797 8.77374 43.352 7.07801L44.9301 8.60756C43.214 10.1371 41.9219 11.8328 40.1432 13.42C42.1389 15.3362 43.4309 16.6657 45.1175 18.3038L43.5855 19.9995L38.9136 14.8512L34.1103 20.0402L32.3711 18.4123C34.1004 16.8319 35.5865 15.1531 37.5657 13.3488L32.45 8.64486L33.9656 7C35.5076 8.72626 37.1284 10.3474 38.7493 12.1652Z" fill="white"/>
</g>
</svg>
