<svg width="1001" height="738" viewBox="0 0 1001 738" fill="none" xmlns="http://www.w3.org/2000/svg">
<g clip-path="url(#clip0_505_119904)">
<path d="M502.388 2.17136L500.587 1.28906L498.787 2.17136L0.605469 250.389V738H62.3132V378.828C63.0515 362.784 69.1016 314.167 113.649 264.578C162.428 210.307 269.134 143.233 500.587 131.853C732.041 143.233 838.764 210.307 887.526 264.578C894.73 272.566 901.35 281.063 907.333 290.003C907.459 290.147 907.711 290.507 907.819 290.669C909.103 292.413 910.258 294.249 911.276 296.161C934.45 333.65 938.285 366.386 938.88 378.99V738H1000.61V250.389L502.388 2.17136ZM4.20674 264.812C5.34114 256.619 13.0839 258.96 16.8112 260.544L40.6696 272.248C43.3345 274.229 53.13 282.242 47.8721 289.895L14.4344 322.486C5.84541 327.888 4.24278 318.039 4.24278 318.039L4.20674 264.812ZM4.20674 348.865C4.963 343.157 8.24019 345.174 9.98681 346.705L51.5094 387.471C54.6605 391.342 50.141 391.901 48.8625 391.991H4.20674V348.865ZM4.20674 563.141V525.165C4.36879 523.905 4.20678 514.037 12.5797 520.448L51.5274 558.693C54.7866 562.709 49.7268 563.141 48.7185 563.195L4.20674 563.141ZM7.19585 566.742L6.92571 566.868L6.79965 566.742H7.19585ZM46.5757 548.736L16.7031 519.403C11.6974 512.417 15.5508 510.292 18.828 509.698H50.4111C56.6773 510.526 58.3159 516.702 58.658 518.557V550.122C57.3075 557.505 46.5757 548.844 46.5757 548.844V548.736ZM46.5757 491.71L16.5951 462.269C11.0311 454.328 16.9733 452.87 20.2865 452.618H50.1229C56.5872 453.32 58.2618 459.64 58.6219 461.513V493.024C57.3435 500.227 47.2599 492.268 46.6837 491.746L46.5757 491.71ZM46.7378 434.81L16.7031 405.315C11.3012 397.843 16.055 396.006 19.4582 395.574H50.357C56.6232 396.42 58.2618 402.578 58.6039 404.433V436.034C57.4875 442.804 48.2323 435.98 46.7737 434.846L46.7378 434.81ZM4.1708 411.239C4.1708 411.239 5.19711 399.679 13.354 407.08L51.4014 444.407C54.4985 448.008 50.8792 448.873 49.2406 449.035H4.22476L4.1708 411.239ZM7.05177 452.654L6.85372 452.744V452.654H7.05177ZM4.1708 468.427C4.1708 468.427 5.28718 455.823 14.3984 465.258L51.4555 501.631C54.6066 505.503 50.0869 506.079 48.8085 506.169H4.15277L4.1708 468.427ZM4.1708 582.606C4.1708 582.606 5.28718 570.001 14.3984 579.437L50.4111 614.819C54.5885 618.888 51.5814 620.023 49.6908 620.221H4.20674L4.1708 582.606ZM6.92571 623.858H6.81768H6.92571ZM4.1708 639.578C4.1708 639.578 5.28718 626.973 14.3984 636.409L51.4914 672.835C54.7505 676.851 49.6908 677.283 48.6824 677.337H14.9025C12.4233 677.601 9.93668 676.91 7.94934 675.405C5.96199 673.899 4.62351 671.692 4.20674 669.234L4.1708 639.578ZM44.613 734.399H4.20674V692.588C5.35914 685.728 11.8054 691.004 14.2363 693.273L15.1546 694.173L46.6837 725.054L48.9525 727.286C53.8863 733.211 44.757 734.309 44.649 734.399H44.613ZM58.6759 720.606C57.6495 730.474 48.8265 722.227 48.8265 722.227L10.6711 684.648C9.6627 683.441 8.74436 681.496 12.9038 680.938H50.465C57.1814 681.875 58.5499 688.969 58.712 690.157L58.6759 720.606ZM58.6759 663.904C57.6495 671.935 46.5396 662.914 46.5396 662.914L16.7212 633.636C11.3193 626.037 16.253 624.254 19.6562 623.858H47.7821C48.2859 623.832 48.7908 623.832 49.2947 623.858H49.5647C57.0553 624.272 58.5679 631.961 58.6759 633.185V663.904ZM58.6759 606.95C57.7756 613.937 49.2767 608.031 47.0619 606.356L16.4511 576.339C9.2486 565.932 22.1771 566.814 22.1771 566.814H50.465C56.6772 567.678 58.3159 573.819 58.658 575.673V591.231L58.6759 606.95ZM58.6759 378.558C57.6675 386.337 47.2599 378.162 46.5757 377.603L12.5258 344.184C11.0315 342.636 10.0777 340.646 9.80679 338.512H58.6759V378.558ZM58.6759 334.91H10.0588C10.9398 332.025 12.5024 329.394 14.6145 327.24L15.9289 325.961L50.285 292.47C57.1634 286.293 58.4239 292.181 58.658 294.27L58.6759 334.91ZM60.4765 277.974L20.6826 258.456C8.36624 250.929 19.4582 245.041 19.4582 245.041L76.034 216.843C86.6758 214.088 87.018 227.827 87.018 227.827V262.165L60.4765 277.974ZM110.894 262.291C80.2835 296.341 67.6791 330.013 62.2772 353.367V281.053L139.182 235.209C129.093 243.527 119.632 252.579 110.876 262.291H110.894ZM150.778 223.937L90.6012 259.95V221.777C91.5195 217.959 94.8327 211.765 106.681 211.711L144.098 214.826C158.323 215.727 150.76 223.937 150.76 223.937H150.778ZM167.668 187.565V199.845C165.868 209.568 157.621 211.747 151.841 211.909L111.993 208.524C101.747 207.264 105.438 202.762 106.771 201.448L157.801 176.113C167.992 173.808 167.65 187.565 167.65 187.565H167.668ZM231.033 180.938L180.255 206.399C174.133 208.776 172.008 205.481 171.252 202.384V182.577C172.224 178.417 175.951 170.891 190.32 171.773L225.451 174.582H226.279L228.872 174.78C239.352 176.113 231.015 180.938 231.015 180.938H231.033ZM250.569 158.718V158.809C249.651 170.459 236.579 171.539 230.618 171.413L191.527 168.298C181.893 167.037 185.441 163.076 187.511 161.347L238.955 135.724C250.245 132.969 250.569 146.726 250.569 146.726V158.718ZM317.193 152.992C316.545 153.227 263.984 168.424 263.984 168.424C258.474 170.567 255.917 167.307 254.747 163.778C254.284 162.311 254.059 160.779 254.081 159.241V141.468C254.981 137.489 258.258 131.691 269.368 134.068L314.564 146.78C326.214 150.309 317.265 152.992 317.265 152.992H317.193ZM333.399 134.158C332.57 144.836 324.611 145.268 320.11 144.547L270.953 130.719C261.823 127.405 265.245 123.192 267.64 121.247L322.181 94.0757C333.489 91.2667 333.399 105.096 333.399 105.096V134.158ZM400.832 137.291L352.828 145.196C343.824 146.528 339.773 141.828 338.008 137.885C337.324 136.293 336.981 134.576 337 132.843V101.206C337.81 97.9291 340.727 92.8873 350.289 97.1368L402.039 129.134C411.51 134.554 400.94 137.291 400.94 137.291H400.832ZM416.336 120.023C416.444 129.962 411.186 129.8 407.693 128.396L351.387 93.5715C343.608 86.9092 349.838 80.9671 352.107 79.1665L404.146 53.2374C416.12 49.7441 416.336 63.753 416.336 63.753V120.023ZM489.46 128.846L485.642 129.062H485.372C469.25 130.034 453.531 131.301 438.213 132.861L438.898 132.753L436.485 133.041L434.846 133.204C423.934 133.708 420.801 126.955 419.937 122.652V59.9177C420.639 56.8926 423.016 52.9492 429.895 59.4675L492.755 124.632L492.917 124.831C494.591 127.351 492.016 128.468 489.64 128.846H489.46ZM498.679 20.4298V120.113C498.679 123.516 496.878 123.192 495.618 122.418L430.669 55.074C425.015 46.8091 431.551 40.4348 434.27 38.2561L488.289 11.3726C491.692 10.3102 499.669 8.92376 498.787 20.4298H498.679ZM744.285 126.775L732.725 121.013L744.285 126.775ZM502.28 121.517V16.3063C503.018 12.7051 512.328 11.2106 512.328 11.2106L563.25 36.7435C563.25 36.7435 577.997 46.0348 568.237 57.2167L505.845 122.094C503.829 123.588 502.802 122.526 502.388 121.517H502.28ZM581.04 119.483C581.04 119.483 581.04 132.735 567.157 133.329C548.61 131.385 529.464 129.854 509.717 128.738C506.638 128.36 506.8 126.685 507.178 125.695L572.613 57.8649C580.716 51.6348 581.04 62.0064 581.04 62.0064V119.483ZM584.641 124.182V58.8013C585.451 54.966 588.044 50.3023 596.183 53.1473L645.845 77.888C646.442 78.1864 647.009 78.5422 647.537 78.9504C650.184 81.0571 657.063 87.8095 647.753 94.7059L596.165 126.613C596.165 126.613 586.658 133.582 584.749 124.182H584.641ZM663.869 132.195C663.869 132.195 662.176 147.068 647.483 145.16C631.962 142.147 615.9 139.506 599.298 137.237C597.786 136.805 591.61 134.788 595.697 131.043L650.706 97.0287C663.311 92.095 663.815 104.231 663.815 104.231L663.869 132.195ZM667.47 134.77V102.665C668.281 98.4152 670.945 91.8609 680.075 94.958L731.033 120.167C731.033 120.167 742.611 127.099 727.125 131.601L684.558 143.575L683.172 143.971C679.48 144.89 669.091 146.276 667.668 134.698L667.47 134.77ZM746.842 157.458C746.842 159.097 746.41 172.151 736.668 168.37L738.901 169.216C721.435 163.214 702.949 157.812 683.442 153.01H683.604C683.604 153.01 674.601 150.273 685.206 147.068L686.611 146.672L731.915 133.942C747.689 130.917 746.806 144.746 746.806 144.746L746.842 157.458ZM750.443 158.772V146.168C750.659 143.395 752.244 132.447 763.57 136.409L762.904 136.084L811.521 160.339C812.781 161.257 820.11 167.001 807.56 168.37L805.093 168.568L771.295 171.269C766.019 171.557 751.596 171.053 750.732 158.772H750.443ZM827.763 210.793L825.62 209.496L827.781 210.775L827.763 210.793ZM829.725 200.601C829.419 203.914 827.925 209.136 820.722 206.489C804.455 196.881 787.543 188.41 770.106 181.136L770.538 181.298C770.538 181.298 762.057 176.419 770.989 174.942L811.647 171.683C827.6 171.521 829.545 182.487 829.779 184.63L829.725 200.601ZM833.327 200.151V184.287C833.615 180.2 835.271 173.664 843.176 176.077L893.594 201.285C893.972 201.61 900.094 206.993 889.632 208.596L848.884 211.981C843.392 211.783 835.361 209.766 833.561 200.151H833.327ZM856.609 214.934L893.612 211.837C907.026 211.693 909.818 219.274 910.394 222.929V260.022L838.188 216.987L849.928 223.973C849.928 223.973 842.564 215.727 856.807 214.934H856.609ZM938.664 294.162V353.439C933.388 330.031 920.657 296.395 890.047 262.345C881.282 252.652 871.808 243.624 861.705 235.335L938.61 281.18L938.664 294.162ZM913.995 262.219V228.799C913.995 228.799 914.139 213.494 925.537 217.113L982.041 245.275C984.49 247.076 990.288 252.387 980.042 258.6L940.554 277.974L913.995 262.219ZM991.134 334.964H942.265V303.633C942.265 302.319 942.427 284.961 949.467 291.317L988.451 329.328C989.99 330.829 991 332.787 991.332 334.91L991.134 334.964ZM984.976 347.569L954.671 377.333C954.671 377.333 943.111 386.877 942.229 377.567V338.512H990.846C989.983 341.408 988.433 344.052 986.326 346.218L984.994 347.533L984.976 347.569ZM942.319 434.954V403.983C942.607 402.398 944.12 396.294 950.656 395.61H979.988C983.013 395.988 989.423 397.591 985.03 404.613L954.599 434.504L954.707 434.305C954.707 434.305 943.723 443.489 942.517 434.936L942.319 434.954ZM953.123 509.752H979.412C982.149 510.004 989.748 511.409 984.814 519.025L954.725 548.556V548.466C954.725 548.466 943.561 557.667 942.337 549.132V518.125C942.643 516.486 944.138 510.22 951.016 509.734H953.087L953.123 509.752ZM985.084 575.853L954.779 605.6L954.905 605.402C954.905 605.402 943.345 614.927 942.463 605.636V591.141V575.133C942.751 573.53 944.263 567.498 950.728 566.796H978.584C978.584 566.796 990.702 566.976 985.084 575.853ZM985.246 632.753L954.905 662.554C954.905 662.554 943.345 672.079 942.463 662.788V632.555C942.463 632.555 943.309 624.92 950.386 623.858H983.752C986.579 624.938 989.009 627.351 985.228 632.861L985.246 632.753ZM942.517 492.016V460.973C942.805 459.424 944.318 453.554 950.44 452.654H978.962C980.87 452.762 990.234 453.698 985.012 461.855L954.869 491.458C954.203 492.052 943.687 500.335 942.517 492.088V492.016ZM942.517 720.696V689.707C942.517 689.707 943.417 681.55 951.178 680.938H979.034C979.034 680.938 991.638 680.938 984.292 690.896L951.88 722.749C950.728 723.775 943.399 730.564 942.463 720.768L942.517 720.696ZM997.04 734.327H955.734C955.734 734.327 947.163 733.409 951.97 727.593L986.813 693.381C996.05 685.35 997.04 695.938 997.04 695.938V734.327ZM997.04 677.265H952.204C950.26 677.175 946.262 676.419 951.268 671.215L987.407 635.742C996.104 627.784 997.04 638.137 997.04 638.137V677.265ZM997.04 620.185H953.141C953.141 620.185 945.506 620.707 950.692 614.783L987.335 578.77C995.222 572.306 996.788 579.635 997.04 581.273V620.185ZM996.986 563.249H953.087C953.087 563.249 945.128 563.789 950.962 557.505L987.983 521.132C995.186 515.388 996.734 522.644 996.986 524.265V563.249ZM996.986 506.187H951.97C949.972 506.061 946.298 505.214 951.178 500.155L987.731 464.25C995.149 458.164 996.734 465.564 996.95 467.203L996.986 506.187ZM996.986 449.107H953.087C953.087 449.107 945.398 449.629 950.674 443.705L987.605 407.458C994.411 401.66 996.446 406.954 996.986 409.385V449.107ZM996.986 392.045H953.087C953.087 392.045 945.074 392.603 950.998 386.265L986.795 351.098C995.366 345.822 996.986 355.582 996.986 355.582V392.045ZM996.986 324.719C996.248 330.229 993.151 328.518 991.35 327.024L952.781 289.39C946.01 281.594 952.006 276.786 952.781 276.102L984.922 260.328C988.757 258.744 995.726 257.033 996.896 264.308L996.986 324.719Z" fill="#DDDDDD"/>
<path d="M914.03 293.488L204.621 634.625V749" stroke="#DDDDDD" stroke-width="5"/>
<path d="M651.716 763.5V420.122L324.794 246.97L59.8965 387.818" stroke="#DDDDDD" stroke-width="5"/>
<path d="M442.382 775.5V520.913L238.217 413.662L58.6035 507.992" stroke="#DDDDDD" stroke-width="5"/>
<path d="M301.534 752.5V586.814L155.517 509.283L61.1875 562.263" stroke="#DDDDDD" stroke-width="5"/>
<path d="M204.621 634.625L114.167 588.106L57.3115 622.995" stroke="#DDDDDD" stroke-width="5"/>
</g>
<defs>
<clipPath id="clip0_505_119904">
<rect width="1001" height="738" fill="white"/>
</clipPath>
</defs>
</svg>
