<svg width="518" height="333" viewBox="0 0 518 333" fill="none" xmlns="http://www.w3.org/2000/svg">
<g clip-path="url(#clip0_505_119912)">
<path d="M518 177.826V103.473L514.398 101.677L296.479 0.826332L294.678 0L292.877 0.826332L248.194 21.6647L244.935 23.1916L203.962 42.2874L200.882 43.7245L-0.0537109 137.389V333L62.4945 345.5C62.0993 344.345 61.9163 343.127 61.9543 341.907H61.6841V208.491C63.0835 194.173 68.1709 180.46 76.4522 168.683H76.6324C77.0744 167.422 77.8087 166.283 78.7755 165.359C80.0723 163.563 81.4589 161.766 82.9718 159.97C107.357 130.922 163.89 94.5449 294.696 86.2096C296.191 86.2096 349.536 87.6647 402.881 103.275C452.21 117.647 511.571 147.593 514.308 207.97V214.006C514.502 215.367 514.422 216.753 514.074 218.084L514.344 218.263V345.407H513.48C513.869 346.564 514.046 347.781 514.002 349H517.964V345.407V287.695V234.844C517.96 234.796 517.96 234.748 517.964 234.701V215.533V177.97C517.972 177.921 517.984 177.873 518 177.826ZM3.62026 156.431C3.83638 153.359 5.29519 141.737 14.2101 145.778L43.0259 158.012C47.0781 160.06 53.4176 164.587 48.4288 171.18L14.3722 201.503L15.2547 200.533C15.2547 200.533 3.76438 210.539 3.65632 201.269L3.62026 156.431ZM45.8534 226.599L15.4708 256.958C15.4708 256.958 4.91697 265.707 3.62026 258.251V226.671C3.74633 225.198 4.79088 217.563 12.7152 216.862H40.3605C42.7197 217.024 51.6707 218.192 45.7634 226.581L45.8534 226.599ZM49.2573 228.269C55.3807 224.299 57.5778 229.563 58.0821 231.162V271.329H13.7598C13.7598 271.329 5.88952 271.329 11.9588 265.545L49.2573 228.269ZM3.62026 315.952V283.347C3.81837 282.18 5.13314 275.964 11.5447 274.994H41.1709C42.2155 274.994 53.1475 275.263 46.2317 284.713L12.9854 317.623C12.9854 317.623 4.80892 324.377 3.62026 315.952ZM58.1542 329.407H16.2452C16.2452 329.407 8.14076 328.653 12.5352 323.12L15.1647 320.515L49.0052 286.94C57.5959 280.15 58.0101 288.88 58.0101 288.88V328.85L58.1542 329.407ZM58.1542 207.593C58.0036 209.487 57.9555 211.388 58.0101 213.287H11.4005C9.90572 213.072 8.50101 212.281 10.5541 209.695L51.1844 173.497C58.0282 167.102 58.1902 176.623 58.1902 176.623V207.539L58.1542 207.593ZM58.5504 160.725L16.0651 142.653C8.55503 138.521 14.8045 134.587 16.6234 133.671L58.4964 114.144C59.559 113.82 66.1145 112.042 65.5022 118.509L58.5504 160.725ZM80.1622 157.886C72.0211 167.399 65.7741 178.374 61.7562 190.222V164.299L89.9957 147.503C86.5184 150.771 83.235 154.238 80.1622 157.886ZM62.3504 159.683L68.9961 119.353C68.9961 119.353 70.7971 111.162 78.2532 113.479L112.832 129.647L62.3504 159.683ZM80.1263 110.389C79.622 110.084 74.9033 107.156 79.4778 104.245L106.493 91.6706C107.681 91.3293 113.949 89.7485 114.669 95.2634L115.083 126.88L80.1263 110.389ZM118.703 126.251L118.289 95.3712C118.451 93.8622 119.37 89.1736 124.593 91.4551L156.398 108.611C143.338 113.403 130.724 119.33 118.703 126.323V126.251ZM126.61 88.5269C125.493 87.8084 122.053 85.2755 125.817 82.6886L151.031 70.9581C151.661 70.7425 158.865 68.4431 158.811 74.7485V105.898L126.61 88.5269ZM162.413 106.491V74.8383C162.593 74.0838 163.764 70.1317 168.519 72.503L200.198 95.7125C187.436 98.64 174.841 102.25 162.467 106.527L162.413 106.491ZM170.716 69.6826C169.401 68.6227 165.187 64.7964 168.627 62.7126L193.841 51C195.858 50.3353 201.459 49.2036 201.369 56.6587L202.449 92.9102L170.716 69.6826ZM206.051 94.4012L204.935 57C205.205 55.2036 206.321 51.7545 210.968 54.485V54.3593L244.16 87.6826C230.521 89.6107 217.818 91.8623 206.051 94.4371V94.4012ZM211.022 49.2934C209.797 47.6048 208.483 44.7305 211.652 42.6467L235.065 31.7425C236.182 31.2754 244.412 28.1497 245.169 34.6527L246.087 84.503L211.022 49.2934ZM249.761 87.018L248.825 35.7305C249.095 34.3832 250.175 30.8982 253.489 34.3652L291.31 82.9761C276.494 83.9461 262.644 85.2754 249.761 86.9641V87.018ZM292.985 79.2934L255.344 30.7904C255.344 30.7904 250.95 24.1976 259.144 20.6587H259.036L284.935 8.497C286.736 7.95808 292.138 6.86226 292.895 12.6108L292.985 79.2934ZM296.587 13.4192C296.857 10.7425 298.1 5.83832 303.701 8.19161L331.004 20.9281C332.373 21.9341 337.415 26.3174 332.246 32.2096L296.569 79.1856L296.587 13.4192ZM339.721 86.6946C320.162 84.0718 304.871 83.1018 298.298 82.8862L335.038 34.491C335.92 33.7904 338.856 31.7784 339.702 35.7664L339.721 86.6946ZM343.322 34.3832C343.503 31.7784 344.547 27.6287 349.608 29.6048L374.948 41.4431C379.648 44.5688 376.749 49.8503 376.191 50.9281L343.322 84.6108V34.3832ZM345.52 87.503L377.577 54.6467C382.008 51.0539 382.98 53.9461 383.214 55.5629L383.394 94.5809C370.013 91.4371 357.118 89.1557 345.466 87.5389L345.52 87.503ZM386.762 53.4072C387.555 48.9521 392.85 50.0299 394.344 50.4251L417.631 61.2036C422.548 64.6886 417.793 69.5569 417.127 70.1856L386.924 92.9281L386.762 53.4072ZM403.962 99.8802C398.973 98.4251 393.984 97.0779 389.032 95.8563L420.117 72.503C425.844 69.0719 426.24 74.497 426.276 75.3952V75.521L426.996 107.551C419.744 104.832 412.066 102.287 403.962 99.9162V99.8802ZM429.86 74.7305C430.22 68.6407 436.47 70.2934 437.766 70.7066L462.062 82.0599C465.988 84.0718 461.521 88.0419 461.143 88.3652L430.526 105.844L429.86 74.7305ZM431.661 109.401L464.187 90.8084C469.41 88.5808 470.22 92.8922 470.328 94.9221V95.8922L470.472 129.754C458.295 121.58 445.256 114.761 431.589 109.419L431.661 109.401ZM473.93 94.5449C474.831 89.2994 480.017 90.5569 481.008 90.8623L500.657 100.024C501.557 100.635 509.319 106.204 499.216 113.964L474.002 129.808L473.93 94.5449ZM514.452 186.162C509.68 169.994 500.297 155.371 486.537 142.563L493.525 145.814C500.315 148.958 507.338 152.21 514.452 156.377V186.162ZM514.452 152.21C507.825 148.455 501.341 145.473 495.038 142.563C488.734 139.653 482.431 136.653 475.803 132.97L500.297 117.503L501.359 116.838C504.565 114.898 514.092 109.796 514.452 117.341V152.21Z" fill="#DDDDDD"/>
<path d="M77.5039 167.766L369.06 230.71L462.507 185.117L514.38 219.531" stroke="#DDDDDD" stroke-width="4"/>
<path d="M369.06 230.71V359" stroke="#DDDDDD" stroke-width="4"/>
</g>
<defs>
<clipPath id="clip0_505_119912">
<rect width="518" height="333" fill="white"/>
</clipPath>
</defs>
</svg>
