<svg width="200" height="70" viewBox="0 0 200 70" fill="none" xmlns="http://www.w3.org/2000/svg">
<path d="M200 0H0V70H200V0Z" fill="white"/>
<path d="M177.076 40.8319H170.847V28.0548H177.076V40.8319ZM168.925 42.7843H179V26.0977H168.925V42.7843ZM132.085 42.7843V26.0977H130.117L119.79 39.6853V26.0977H117.819V42.7843H119.787L130.115 29.3683V42.7843H132.085ZM92.6444 42.7843V26.0977H90.6763V33.4446H83.8608V26.1049H81.895V42.7914H83.8608V35.4446H90.6763V42.7843H92.6444ZM112.365 42.7843V26.0977H110.397L100.069 39.6853V26.0977H98.101V42.7843H100.069L110.397 29.3683V42.7843H112.365ZM67.7719 34.441L75.3372 42.7843H78.0761L70.4405 34.441L78.0761 26.0977H75.3372L67.7719 34.441ZM65.7101 42.7843H67.6547V26.0977H65.7101V42.7843ZM121.919 24.0024H128.011V22H121.919V24.0024ZM65.5929 34.4458L58.0276 26.1025H55.2887L62.922 34.4458L55.2887 42.789H58.0276L65.5929 34.4458ZM162.789 40.8319H156.559V28.0548H162.789V40.8319ZM154.638 42.7843H164.713V26.0977H154.638V42.7843ZM31.7494 42.7843V26.0977H29.7836V33.4446H22.9681V26.1049H21V42.7914H22.9681V35.4446H29.7836V42.7843H31.7494ZM51.4698 42.7843V26.0977H49.5041L39.1741 39.6853V26.0977H37.206V42.7843H39.1741L49.5041 29.3683V42.7843H51.4698ZM141.248 31.6091L144.081 34.4458L141.248 37.2801L145.042 41.1895L148.835 37.2801L145.998 34.4458L148.83 31.6091L145.037 27.702L141.248 31.6091ZM145.042 24.8892L151.557 31.6091L148.722 34.4458L151.557 37.2801L145.046 44L138.526 37.2801L141.361 34.4458L138.526 31.6091L145.042 24.8892Z" fill="#1D1D1B"/>
</svg>
