<svg width="200" height="70" viewBox="0 0 200 70" fill="none" xmlns="http://www.w3.org/2000/svg">
<path d="M200 0H0V70H200V0Z" fill="white"/>
<g clip-path="url(#clip0_506_119958)">
<rect width="148" height="23" transform="translate(26 24)" fill="white"/>
<path d="M37.8813 28.2279L37.8694 24H26L26.0061 47.0132H37.8753L37.8722 42.7685L30.4051 42.7786L30.411 28.2346L37.8813 28.2279Z" fill="#1D1D1B"/>
<path d="M78.5813 24H69.541V47.057H73.9491V36.6937H82.3495V24H78.5813ZM73.9491 32.4591V28.2312H77.9414V32.4591H73.9491Z" fill="#1D1D1B"/>
<path d="M60.4642 24H55.9127H51.5046H46.9561V28.2312H51.5046L51.5076 47.0065H55.9157L55.9127 28.2312H60.4642V24Z" fill="#1D1D1B"/>
<path d="M104.872 28.2312V24H96.4744H92.0664V28.2312V42.7752V47.0065H96.4744H104.872V42.7752H96.4744V36.996H102.339V32.7646H96.4744V28.2312H104.872Z" fill="#1D1D1B"/>
<path d="M123.757 24H122.48H118.042L117.612 28.2312L116.129 42.7887H114.077V47.0199H115.695H120.133L120.563 42.7887L122.05 28.2312H123.757V47.0199H128.165V28.2312V24H123.757Z" fill="#1D1D1B"/>
<path d="M149.391 35.572L152.155 24H147.588L145.347 33.3927H143.701V24H139.289V47.0031H143.701V37.6272H145.319L147.558 47.0031H152.121L149.391 35.572Z" fill="#1D1D1B"/>
<path d="M171.338 24H164.252L161.602 47.0132H165.789L166.088 43.7929H169.545L169.843 47.0132H174L171.338 24ZM166.635 39.5615L167.594 28.2312H168.106L169.003 39.5615H166.635Z" fill="#1D1D1B"/>
</g>
<defs>
<clipPath id="clip0_506_119958">
<rect width="148" height="23" fill="white" transform="translate(26 24)"/>
</clipPath>
</defs>
</svg>
