<svg width="308" height="29" viewBox="0 0 308 29" fill="none" xmlns="http://www.w3.org/2000/svg">
<g clip-path="url(#clip0_69_4353)">
<path d="M118.917 27.9764L118.91 0.5625H135.931L135.946 5.59972L124.811 5.60703V27.9764H118.917Z" fill="#252424"/>
<path d="M11.0914 27.9764H17.0212V0.5625H0L0.00731621 27.9764H5.90052V5.60703L11.1243 5.59972L11.0914 27.9764Z" fill="#252424"/>
<path d="M298.358 27.9761V12.795H287.066V0.558594H281.14V27.9944H298.358V27.9761ZM292.432 17.8468V22.9096H287.066V17.8468H292.432Z" fill="#252424"/>
<path d="M307.628 22.9096V0.558594H301.702V27.9944H307.628V22.9096Z" fill="#252424"/>
<path d="M92.5392 14.3536L96.2338 0.5625H90.1285L87.1288 11.7563H84.923V0.5625H79.0225V27.9764H84.923V16.8008H87.0886L90.0846 27.9764H96.1899L92.5392 14.3536Z" fill="#252424"/>
<path d="M171.708 0.558594H162.197L158.634 27.9944H164.249L164.651 24.1351H169.264L169.663 27.9871H175.271L171.708 0.558594ZM165.368 19.0723L166.66 5.50802H167.347L168.573 19.0723H165.368Z" fill="#252424"/>
<path d="M52.783 0.558594H43.272L39.709 27.9944H45.3242L45.7229 24.1351H50.3394L50.7345 27.9871H56.3461L52.783 0.558594ZM46.4436 19.0723L47.7312 5.50802H48.4226L49.6444 19.0723H46.4436Z" fill="#252424"/>
<path d="M218.455 0.5625H212.386H212.342L211.64 3.19999L209.353 11.738V11.7563H207.056L204.056 0.5625H197.947L201.642 14.3499L202.747 17.6971H207.777L205.022 27.9764H211.087L211.102 28.0971L211.833 25.3498L214.123 16.8008L214.12 16.7606L214.804 14.1889L218.455 0.5625Z" fill="#252424"/>
<path d="M258.466 0.5L254.764 14.2728L258.466 27.9541L241.127 27.9651V22.9095H251.033L248.721 14.2252L250.997 5.54818L241.127 5.55184V0.5H258.466Z" fill="#252424"/>
</g>
<defs>
<clipPath id="clip0_69_4353">
<rect width="308" height="29" fill="white"/>
</clipPath>
</defs>
</svg>
