<svg width="26" height="26" viewBox="0 0 26 26" fill="none" xmlns="http://www.w3.org/2000/svg">
<g clip-path="url(#clip0_706_167081)">
<path d="M12.4993 6.82014C13.5147 6.82014 14.3406 7.64604 14.3406 8.66139C14.3406 9.67588 13.5145 10.5018 12.4993 10.5018C11.4846 10.5018 10.6585 9.67588 10.6585 8.66139C10.6583 7.64583 11.4848 6.82014 12.4993 6.82014ZM12.4993 13.1068C14.9519 13.1068 16.9464 11.1129 16.9464 8.66139C16.9464 6.20859 14.9521 4.21387 12.4993 4.21387C10.047 4.21387 8.05224 6.2088 8.05224 8.66139C8.05224 11.1129 10.047 13.1068 12.4993 13.1068ZM14.2984 16.7341C15.2133 16.5258 16.0863 16.1643 16.8806 15.6649C17.1731 15.481 17.3804 15.1883 17.4571 14.8515C17.5338 14.5146 17.4735 14.161 17.2896 13.8686C17.1986 13.7237 17.0799 13.5981 16.9403 13.499C16.8008 13.4 16.643 13.3294 16.4762 13.2914C16.3093 13.2534 16.1366 13.2486 15.9679 13.2774C15.7992 13.3061 15.6378 13.3679 15.493 13.4591C13.6711 14.6045 11.3263 14.6036 9.50586 13.4591C9.36107 13.3679 9.19971 13.3061 9.03102 13.2773C8.86233 13.2485 8.68962 13.2533 8.52277 13.2913C8.35593 13.3294 8.19822 13.3999 8.05867 13.499C7.91913 13.598 7.80048 13.7236 7.70953 13.8686C7.52549 14.161 7.46512 14.5144 7.54168 14.8513C7.61824 15.1882 7.82547 15.4808 8.1178 15.6649C8.91208 16.1641 9.78495 16.5256 10.6996 16.7341L8.21358 19.2206C7.96928 19.465 7.83206 19.7964 7.83212 20.142C7.83218 20.4875 7.96951 20.8189 8.2139 21.0632C8.45829 21.3075 8.78973 21.4447 9.13529 21.4447C9.48085 21.4446 9.81223 21.3073 10.0565 21.0629L12.4989 18.6201L14.9428 21.0631C15.0636 21.1841 15.2071 21.2801 15.3651 21.3456C15.523 21.4111 15.6924 21.4448 15.8634 21.4448C16.0344 21.4448 16.2037 21.4111 16.3617 21.3456C16.5197 21.2801 16.6632 21.1841 16.784 21.0631C16.9052 20.9423 17.0014 20.7987 17.067 20.6407C17.1326 20.4826 17.1663 20.3132 17.1663 20.142C17.1663 19.9709 17.1326 19.8015 17.067 19.6434C17.0014 19.4854 16.9052 19.3418 16.784 19.221L14.2984 16.7341Z" fill="#211F1F"/>
</g>
<defs>
<clipPath id="clip0_706_167081">
<rect width="25.0632" height="25.0632" fill="white" transform="translate(0.199219 0.558594)"/>
</clipPath>
</defs>
</svg>
