<svg width="26" height="27" viewBox="0 0 26 27" fill="none" xmlns="http://www.w3.org/2000/svg">
<g clip-path="url(#clip0_706_167080)">
<path d="M4.80704 12.6239C4.80704 12.6239 12.1965 9.6439 14.7593 8.59458C15.7417 8.17489 19.0733 6.83175 19.0733 6.83175C19.0733 6.83175 20.611 6.24417 20.4829 7.67119C20.4401 8.25883 20.0985 10.3154 19.7568 12.5399C19.2442 15.6879 18.6889 19.1295 18.6889 19.1295C18.6889 19.1295 18.6035 20.0949 17.8774 20.2628C17.1512 20.4307 15.9552 19.6752 15.7417 19.5073C15.5708 19.3814 12.5382 17.4926 11.4276 16.5692C11.1286 16.3174 10.7869 15.8138 11.4703 15.2262C13.008 13.8411 14.8447 12.1202 15.9552 11.029C16.4678 10.5253 16.9803 9.35009 14.8447 10.7771C11.8121 12.8338 8.82211 14.7645 8.82211 14.7645C8.82211 14.7645 8.13867 15.1842 6.85728 14.8064C5.57584 14.4287 4.08086 13.925 4.08086 13.925C4.08086 13.925 3.0558 13.2955 4.80704 12.6239V12.6239Z" fill="#211F1F"/>
</g>
<defs>
<clipPath id="clip0_706_167080">
<rect width="25.0616" height="25.0616" fill="white" transform="translate(0.12793 0.96875)"/>
</clipPath>
</defs>
</svg>
